SplineFontDB: 3.0
FontName: StintUltraCondensed-Regular
FullName: Stint Ultra Condensed
FamilyName: Stint Ultra Condensed
Weight: Book
Copyright: Copyright (c) 2011 by Brian J. Bonislawsky DBA Astigmatic (AOETI) (astigma@astigmatic.com), with Reserved\nFont Name "Stint Ultra Condensed"
Version: 1.000
ItalicAngle: 0
UnderlinePosition: -103
UnderlineWidth: 102
Ascent: 1638
Descent: 410
sfntRevision: 0x00010000
LayerCount: 2
Layer: 0 1 "Back"  1
Layer: 1 1 "Fore"  0
XUID: [1021 210 879221529 6376915]
FSType: 0
OS2Version: 3
OS2_WeightWidthSlopeOnly: 0
OS2_UseTypoMetrics: 1
CreationTime: 1322668860
ModificationTime: 1380409002
PfmFamily: 17
TTFWeight: 400
TTFWidth: 1
LineGap: 0
VLineGap: 0
Panose: 2 6 5 8 4 6 4 2 2 6
OS2TypoAscent: 191
OS2TypoAOffset: 1
OS2TypoDescent: -73
OS2TypoDOffset: 1
OS2TypoLinegap: 0
OS2WinAscent: 0
OS2WinAOffset: 1
OS2WinDescent: 0
OS2WinDOffset: 1
HheadAscent: 0
HheadAOffset: 1
HheadDescent: 0
HheadDOffset: 1
OS2SubXSize: 418
OS2SubYSize: 418
OS2SubXOff: 0
OS2SubYOff: 586
OS2SupXSize: 418
OS2SupYSize: 418
OS2SupXOff: 0
OS2SupYOff: 586
OS2StrikeYSize: 209
OS2StrikeYPos: 1048
OS2Vendor: 'AOEF'
OS2CodePages: 00000093.00000000
OS2UnicodeRanges: a00000ef.4000004a.00000000.00000000
Lookup: 1 0 0 "'aalt' Access All Alternates in Latin lookup 0"  {"'aalt' Access All Alternates in Latin lookup 0 subtable"  } ['aalt' ('latn' <'dflt' > ) ]
Lookup: 1 0 0 "'sups' Superscript in Latin lookup 1"  {"'sups' Superscript in Latin lookup 1 subtable" ("superior" ) } ['sups' ('latn' <'dflt' > ) ]
Lookup: 4 0 1 "'liga' Standard Ligatures in Latin lookup 2"  {"'liga' Standard Ligatures in Latin lookup 2 subtable"  } ['liga' ('latn' <'dflt' > ) ]
Lookup: 6 0 0 "'ordn' Ordinals in Latin lookup 3"  {"'ordn' Ordinals in Latin lookup 3 subtable"  } ['ordn' ('latn' <'dflt' > ) ]

StartChar: A
Encoding: 65 65 1
Width: 776
Flags: W
LayerCount: 2
Fore
SplineSet
487 467 m 1,0,-1
 285 467 l 1,1,-1
 236 113 l 1,2,-1
 344 113 l 1,3,-1
 344 0 l 1,4,-1
 20 0 l 1,5,-1
 20 113 l 1,6,-1
 115 113 l 1,7,-1
 299 1262 l 1,8,-1
 164 1262 l 1,9,-1
 164 1374 l 1,10,-1
 457 1374 l 1,11,-1
 664 113 l 1,12,-1
 756 113 l 1,13,-1
 756 0 l 1,14,-1
 432 0 l 1,15,-1
 432 113 l 1,16,-1
 541 113 l 1,17,-1
 487 467 l 1,0,-1
299 573 m 1,18,-1
 471 573 l 1,19,-1
 383 1171 l 1,20,-1
 299 573 l 1,18,-1
EndSplineSet
EndChar

StartChar: B
Encoding: 66 66 2
Width: 754
Flags: W
LayerCount: 2
Fore
SplineSet
33 1374 m 1,0,-1
 408 1374 l 2,1,2
 431 1374 431 1374 458.5 1369.5 c 128,-1,3
 486 1365 486 1365 513 1351.5 c 128,-1,4
 540 1338 540 1338 565 1314 c 128,-1,5
 590 1290 590 1290 609 1251.5 c 128,-1,6
 628 1213 628 1213 639.5 1158 c 128,-1,7
 651 1103 651 1103 651 1028 c 0,8,9
 651 961 651 961 641.5 911.5 c 128,-1,10
 632 862 632 862 613.5 826.5 c 128,-1,11
 595 791 595 791 568 768 c 128,-1,12
 541 745 541 745 506 733 c 1,13,14
 600 719 600 719 646 627 c 128,-1,15
 692 535 692 535 692 379 c 0,16,17
 692 259 692 259 669 185 c 128,-1,18
 646 111 646 111 608.5 69.5 c 128,-1,19
 571 28 571 28 523 14 c 128,-1,20
 475 0 475 0 424 0 c 2,21,-1
 33 0 l 1,22,-1
 33 113 l 1,23,-1
 147 113 l 1,24,-1
 147 1262 l 1,25,-1
 33 1262 l 1,26,-1
 33 1374 l 1,0,-1
561 381 m 0,27,28
 561 459 561 459 551 514 c 128,-1,29
 541 569 541 569 522 604 c 128,-1,30
 503 639 503 639 477 655.5 c 128,-1,31
 451 672 451 672 420 672 c 2,32,-1
 272 672 l 1,33,-1
 272 113 l 1,34,-1
 424 113 l 2,35,36
 457 113 457 113 482.5 127.5 c 128,-1,37
 508 142 508 142 525.5 174.5 c 128,-1,38
 543 207 543 207 552 258 c 128,-1,39
 561 309 561 309 561 381 c 0,27,28
535 1026 m 0,40,41
 535 1070 535 1070 529 1112.5 c 128,-1,42
 523 1155 523 1155 508.5 1188 c 128,-1,43
 494 1221 494 1221 469.5 1241.5 c 128,-1,44
 445 1262 445 1262 408 1262 c 2,45,-1
 272 1262 l 1,46,-1
 272 782 l 1,47,-1
 408 782 l 2,48,49
 443 782 443 782 467.5 801.5 c 128,-1,50
 492 821 492 821 507 854.5 c 128,-1,51
 522 888 522 888 528.5 932.5 c 128,-1,52
 535 977 535 977 535 1026 c 0,40,41
EndSplineSet
EndChar

StartChar: C
Encoding: 67 67 3
Width: 745
Flags: W
LayerCount: 2
Fore
SplineSet
410 -27 m 0,0,1
 331 -27 331 -27 265.5 15.5 c 128,-1,2
 200 58 200 58 153.5 145.5 c 128,-1,3
 107 233 107 233 81 367.5 c 128,-1,4
 55 502 55 502 55 686 c 0,5,6
 55 863 55 863 83 997 c 128,-1,7
 111 1131 111 1131 158 1220 c 128,-1,8
 205 1309 205 1309 267 1354 c 128,-1,9
 329 1399 329 1399 397 1399 c 0,10,11
 462 1399 462 1399 504.5 1370.5 c 128,-1,12
 547 1342 547 1342 578 1300 c 1,13,-1
 578 1374 l 1,14,-1
 686 1374 l 1,15,-1
 686 901 l 1,16,-1
 578 901 l 1,17,-1
 578 1038 l 2,18,19
 578 1098 578 1098 564.5 1144 c 128,-1,20
 551 1190 551 1190 528 1221.5 c 128,-1,21
 505 1253 505 1253 474.5 1269.5 c 128,-1,22
 444 1286 444 1286 410 1286 c 0,23,24
 353 1286 353 1286 312 1244 c 128,-1,25
 271 1202 271 1202 244.5 1124 c 128,-1,26
 218 1046 218 1046 205.5 935 c 128,-1,27
 193 824 193 824 193 686 c 256,28,29
 193 548 193 548 203.5 437.5 c 128,-1,30
 214 327 214 327 240.5 249.5 c 128,-1,31
 267 172 267 172 310.5 130 c 128,-1,32
 354 88 354 88 420 88 c 0,33,34
 465 88 465 88 497 114 c 128,-1,35
 529 140 529 140 552 179.5 c 128,-1,36
 575 219 575 219 590 265 c 128,-1,37
 605 311 605 311 616 352 c 1,38,-1
 731 352 l 1,39,40
 713 263 713 263 683.5 192.5 c 128,-1,41
 654 122 654 122 614 73.5 c 128,-1,42
 574 25 574 25 523 -1 c 128,-1,43
 472 -27 472 -27 410 -27 c 0,0,1
EndSplineSet
EndChar

StartChar: D
Encoding: 68 68 4
Width: 803
Flags: W
LayerCount: 2
Fore
SplineSet
25 1374 m 1,0,-1
 410 1374 l 2,1,2
 485 1374 485 1374 547 1341 c 128,-1,3
 609 1308 609 1308 654 1228.5 c 128,-1,4
 699 1149 699 1149 723.5 1017 c 128,-1,5
 748 885 748 885 748 688 c 0,6,7
 748 490 748 490 723.5 357.5 c 128,-1,8
 699 225 699 225 654.5 145.5 c 128,-1,9
 610 66 610 66 548 33 c 128,-1,10
 486 0 486 0 410 0 c 2,11,-1
 25 0 l 1,12,-1
 25 113 l 1,13,-1
 147 113 l 1,14,-1
 147 1262 l 1,15,-1
 25 1262 l 1,16,-1
 25 1374 l 1,0,-1
618 688 m 256,17,18
 618 856 618 856 604.5 967 c 128,-1,19
 591 1078 591 1078 564.5 1143.5 c 128,-1,20
 538 1209 538 1209 500 1235.5 c 128,-1,21
 462 1262 462 1262 414 1262 c 2,22,-1
 272 1262 l 1,23,-1
 272 113 l 1,24,-1
 414 113 l 2,25,26
 462 113 462 113 500 140 c 128,-1,27
 538 167 538 167 564.5 232.5 c 128,-1,28
 591 298 591 298 604.5 409 c 128,-1,29
 618 520 618 520 618 688 c 256,17,18
EndSplineSet
EndChar

StartChar: E
Encoding: 69 69 5
Width: 702
Flags: W
LayerCount: 2
Fore
SplineSet
520 963 m 1,0,-1
 520 1262 l 1,1,-1
 283 1262 l 1,2,-1
 283 782 l 1,3,-1
 504 782 l 1,4,-1
 504 670 l 1,5,-1
 283 670 l 1,6,-1
 283 113 l 1,7,-1
 535 113 l 1,8,-1
 535 432 l 1,9,-1
 643 432 l 1,10,-1
 643 0 l 1,11,-1
 25 0 l 1,12,-1
 25 113 l 1,13,-1
 147 113 l 1,14,-1
 147 1262 l 1,15,-1
 25 1262 l 1,16,-1
 25 1374 l 1,17,-1
 629 1374 l 1,18,-1
 629 963 l 1,19,-1
 520 963 l 1,0,-1
EndSplineSet
EndChar

StartChar: F
Encoding: 70 70 6
Width: 655
Flags: W
LayerCount: 2
Fore
SplineSet
502 963 m 1,0,-1
 502 1262 l 1,1,-1
 272 1262 l 1,2,-1
 272 762 l 1,3,-1
 506 762 l 1,4,-1
 506 649 l 1,5,-1
 272 649 l 1,6,-1
 272 113 l 1,7,-1
 422 113 l 1,8,-1
 422 0 l 1,9,-1
 25 0 l 1,10,-1
 25 113 l 1,11,-1
 147 113 l 1,12,-1
 147 1262 l 1,13,-1
 25 1262 l 1,14,-1
 25 1374 l 1,15,-1
 610 1374 l 1,16,-1
 610 963 l 1,17,-1
 502 963 l 1,0,-1
EndSplineSet
EndChar

StartChar: G
Encoding: 71 71 7
Width: 799
Flags: W
LayerCount: 2
Fore
SplineSet
555 0 m 1,0,-1
 555 61 l 1,1,2
 510 10 510 10 464.5 -8.5 c 128,-1,3
 419 -27 419 -27 371 -27 c 0,4,5
 303 -27 303 -27 245 16.5 c 128,-1,6
 187 60 187 60 145 148.5 c 128,-1,7
 103 237 103 237 79 371 c 128,-1,8
 55 505 55 505 55 686 c 256,9,10
 55 867 55 867 82.5 1001 c 128,-1,11
 110 1135 110 1135 155.5 1223.5 c 128,-1,12
 201 1312 201 1312 260 1355.5 c 128,-1,13
 319 1399 319 1399 383 1399 c 0,14,15
 418 1399 418 1399 445 1391 c 128,-1,16
 472 1383 472 1383 493.5 1369 c 128,-1,17
 515 1355 515 1355 532.5 1336.5 c 128,-1,18
 550 1318 550 1318 565 1296 c 1,19,-1
 565 1374 l 1,20,-1
 676 1374 l 1,21,-1
 676 936 l 1,22,-1
 565 936 l 1,23,-1
 565 1049 l 2,24,25
 565 1109 565 1109 550 1153.5 c 128,-1,26
 535 1198 535 1198 511 1227.5 c 128,-1,27
 487 1257 487 1257 458.5 1271.5 c 128,-1,28
 430 1286 430 1286 403 1286 c 0,29,30
 288 1286 288 1286 236 1137.5 c 128,-1,31
 184 989 184 989 184 686 c 0,32,33
 184 555 184 555 198 444.5 c 128,-1,34
 212 334 212 334 240 254 c 128,-1,35
 268 174 268 174 310 129 c 128,-1,36
 352 84 352 84 408 84 c 0,37,38
 450 84 450 84 488 113 c 128,-1,39
 526 142 526 142 555 188 c 1,40,-1
 555 571 l 1,41,-1
 432 571 l 1,42,-1
 432 684 l 1,43,-1
 762 684 l 1,44,-1
 762 571 l 1,45,-1
 680 571 l 1,46,-1
 680 0 l 1,47,-1
 555 0 l 1,0,-1
EndSplineSet
EndChar

StartChar: H
Encoding: 72 72 8
Width: 887
Flags: W
LayerCount: 2
Fore
SplineSet
25 1374 m 1,0,-1
 395 1374 l 1,1,-1
 395 1262 l 1,2,-1
 272 1262 l 1,3,-1
 272 782 l 1,4,-1
 614 782 l 1,5,-1
 614 1262 l 1,6,-1
 492 1262 l 1,7,-1
 492 1374 l 1,8,-1
 862 1374 l 1,9,-1
 862 1262 l 1,10,-1
 739 1262 l 1,11,-1
 739 113 l 1,12,-1
 862 113 l 1,13,-1
 862 0 l 1,14,-1
 492 0 l 1,15,-1
 492 113 l 1,16,-1
 614 113 l 1,17,-1
 614 666 l 1,18,-1
 272 666 l 1,19,-1
 272 113 l 1,20,-1
 395 113 l 1,21,-1
 395 0 l 1,22,-1
 25 0 l 1,23,-1
 25 113 l 1,24,-1
 147 113 l 1,25,-1
 147 1262 l 1,26,-1
 25 1262 l 1,27,-1
 25 1374 l 1,0,-1
EndSplineSet
EndChar

StartChar: I
Encoding: 73 73 9
Width: 420
Flags: W
LayerCount: 2
Fore
SplineSet
25 1374 m 1,0,-1
 395 1374 l 1,1,-1
 395 1262 l 1,2,-1
 272 1262 l 1,3,-1
 272 113 l 1,4,-1
 395 113 l 1,5,-1
 395 0 l 1,6,-1
 25 0 l 1,7,-1
 25 113 l 1,8,-1
 147 113 l 1,9,-1
 147 1262 l 1,10,-1
 25 1262 l 1,11,-1
 25 1374 l 1,0,-1
EndSplineSet
EndChar

StartChar: J
Encoding: 74 74 10
Width: 635
Flags: W
LayerCount: 2
Fore
SplineSet
233 1374 m 1,0,-1
 625 1374 l 1,1,-1
 625 1262 l 1,2,-1
 502 1262 l 1,3,-1
 502 375 l 2,4,5
 502 267 502 267 485.5 192.5 c 128,-1,6
 469 118 469 118 438.5 71.5 c 128,-1,7
 408 25 408 25 364.5 4.5 c 128,-1,8
 321 -16 321 -16 266 -16 c 0,9,10
 212 -16 212 -16 169.5 2 c 128,-1,11
 127 20 127 20 97 69.5 c 128,-1,12
 67 119 67 119 51 207 c 128,-1,13
 35 295 35 295 35 434 c 1,14,-1
 160 434 l 1,15,16
 161 340 161 340 164.5 276 c 128,-1,17
 168 212 168 212 178.5 172.5 c 128,-1,18
 189 133 189 133 210 115.5 c 128,-1,19
 231 98 231 98 266 98 c 256,20,21
 301 98 301 98 323 116.5 c 128,-1,22
 345 135 345 135 357 170.5 c 128,-1,23
 369 206 369 206 373 259 c 128,-1,24
 377 312 377 312 377 381 c 2,25,-1
 377 1262 l 1,26,-1
 233 1262 l 1,27,-1
 233 1374 l 1,0,-1
EndSplineSet
EndChar

StartChar: K
Encoding: 75 75 11
Width: 782
Flags: W
LayerCount: 2
Fore
SplineSet
25 1374 m 1,0,-1
 395 1374 l 1,1,-1
 395 1262 l 1,2,-1
 272 1262 l 1,3,-1
 272 793 l 1,4,-1
 526 1262 l 1,5,-1
 451 1262 l 1,6,-1
 451 1374 l 1,7,-1
 756 1374 l 1,8,-1
 756 1262 l 1,9,-1
 653 1262 l 1,10,-1
 395 784 l 1,11,-1
 678 113 l 1,12,-1
 791 113 l 1,13,-1
 791 0 l 1,14,-1
 465 0 l 1,15,-1
 465 113 l 1,16,-1
 549 113 l 1,17,-1
 317 678 l 1,18,-1
 272 596 l 1,19,-1
 272 113 l 1,20,-1
 395 113 l 1,21,-1
 395 0 l 1,22,-1
 25 0 l 1,23,-1
 25 113 l 1,24,-1
 147 113 l 1,25,-1
 147 1262 l 1,26,-1
 25 1262 l 1,27,-1
 25 1374 l 1,0,-1
EndSplineSet
EndChar

StartChar: L
Encoding: 76 76 12
Width: 674
Flags: W
LayerCount: 2
Fore
SplineSet
25 1374 m 1,0,-1
 403 1374 l 1,1,-1
 403 1262 l 1,2,-1
 272 1262 l 1,3,-1
 272 113 l 1,4,-1
 532 113 l 1,5,-1
 532 432 l 1,6,-1
 641 432 l 1,7,-1
 641 0 l 1,8,-1
 25 0 l 1,9,-1
 25 113 l 1,10,-1
 147 113 l 1,11,-1
 147 1262 l 1,12,-1
 25 1262 l 1,13,-1
 25 1374 l 1,0,-1
EndSplineSet
EndChar

StartChar: M
Encoding: 77 77 13
Width: 1083
Flags: W
LayerCount: 2
Fore
SplineSet
25 1374 m 1,0,-1
 330 1374 l 1,1,-1
 543 246 l 1,2,-1
 752 1374 l 1,3,-1
 1059 1374 l 1,4,-1
 1059 1262 l 1,5,-1
 936 1262 l 1,6,-1
 936 113 l 1,7,-1
 1059 113 l 1,8,-1
 1059 0 l 1,9,-1
 709 0 l 1,10,-1
 709 113 l 1,11,-1
 815 113 l 1,12,-1
 815 1149 l 1,13,-1
 594 0 l 1,14,-1
 489 0 l 1,15,-1
 268 1153 l 1,16,-1
 268 113 l 1,17,-1
 375 113 l 1,18,-1
 375 0 l 1,19,-1
 25 0 l 1,20,-1
 25 113 l 1,21,-1
 147 113 l 1,22,-1
 147 1262 l 1,23,-1
 25 1262 l 1,24,-1
 25 1374 l 1,0,-1
EndSplineSet
EndChar

StartChar: N
Encoding: 78 78 14
Width: 868
Flags: W
LayerCount: 2
Fore
SplineSet
25 1374 m 1,0,-1
 264 1374 l 1,1,-1
 606 354 l 1,2,-1
 606 1262 l 1,3,-1
 481 1262 l 1,4,-1
 481 1374 l 1,5,-1
 852 1374 l 1,6,-1
 852 1262 l 1,7,-1
 729 1262 l 1,8,-1
 729 0 l 1,9,-1
 614 0 l 1,10,-1
 272 1016 l 1,11,-1
 272 113 l 1,12,-1
 395 113 l 1,13,-1
 395 0 l 1,14,-1
 25 0 l 1,15,-1
 25 113 l 1,16,-1
 147 113 l 1,17,-1
 147 1262 l 1,18,-1
 25 1262 l 1,19,-1
 25 1374 l 1,0,-1
EndSplineSet
EndChar

StartChar: O
Encoding: 79 79 15
Width: 809
Flags: W
LayerCount: 2
Fore
SplineSet
754 686 m 256,0,1
 754 501 754 501 727 366.5 c 128,-1,2
 700 232 700 232 653.5 144.5 c 128,-1,3
 607 57 607 57 543 15 c 128,-1,4
 479 -27 479 -27 406 -27 c 0,5,6
 331 -27 331 -27 267 15 c 128,-1,7
 203 57 203 57 156 144.5 c 128,-1,8
 109 232 109 232 82 366.5 c 128,-1,9
 55 501 55 501 55 686 c 0,10,11
 55 870 55 870 82 1004.5 c 128,-1,12
 109 1139 109 1139 156.5 1227 c 128,-1,13
 204 1315 204 1315 268 1357 c 128,-1,14
 332 1399 332 1399 406 1399 c 0,15,16
 479 1399 479 1399 543 1357 c 128,-1,17
 607 1315 607 1315 653.5 1227.5 c 128,-1,18
 700 1140 700 1140 727 1005.5 c 128,-1,19
 754 871 754 871 754 686 c 256,0,1
616 686 m 256,20,21
 616 978 616 978 563 1131 c 128,-1,22
 510 1284 510 1284 406 1284 c 0,23,24
 299 1284 299 1284 246 1129.5 c 128,-1,25
 193 975 193 975 193 686 c 0,26,27
 193 394 193 394 246 241 c 128,-1,28
 299 88 299 88 406 88 c 0,29,30
 510 88 510 88 563 241 c 128,-1,31
 616 394 616 394 616 686 c 256,20,21
EndSplineSet
EndChar

StartChar: P
Encoding: 80 80 16
Width: 725
Flags: W
LayerCount: 2
Fore
SplineSet
25 1374 m 1,0,-1
 424 1374 l 2,1,2
 552 1374 552 1374 618 1267 c 128,-1,3
 684 1160 684 1160 684 952 c 0,4,5
 684 745 684 745 618 636.5 c 128,-1,6
 552 528 552 528 424 528 c 2,7,-1
 272 528 l 1,8,-1
 272 113 l 1,9,-1
 395 113 l 1,10,-1
 395 0 l 1,11,-1
 25 0 l 1,12,-1
 25 113 l 1,13,-1
 147 113 l 1,14,-1
 147 1262 l 1,15,-1
 25 1262 l 1,16,-1
 25 1374 l 1,0,-1
547 952 m 0,17,18
 547 1050 547 1050 536 1111 c 128,-1,19
 525 1172 525 1172 504 1205.5 c 128,-1,20
 483 1239 483 1239 454 1250.5 c 128,-1,21
 425 1262 425 1262 389 1262 c 2,22,-1
 272 1262 l 1,23,-1
 272 641 l 1,24,-1
 389 641 l 2,25,26
 403 641 403 641 420 641 c 128,-1,27
 437 641 437 641 454.5 647.5 c 128,-1,28
 472 654 472 654 488.5 671 c 128,-1,29
 505 688 505 688 518 722.5 c 128,-1,30
 531 757 531 757 539 812.5 c 128,-1,31
 547 868 547 868 547 952 c 0,17,18
EndSplineSet
EndChar

StartChar: Q
Encoding: 81 81 17
Width: 809
Flags: W
LayerCount: 2
Fore
SplineSet
754 686 m 0,0,1
 754 510 754 510 729.5 381 c 128,-1,2
 705 252 705 252 662 164 c 1,3,4
 713 133 713 133 768 111 c 128,-1,5
 823 89 823 89 877 80 c 1,6,-1
 827 -45 l 1,7,8
 770 -25 770 -25 714.5 6 c 128,-1,9
 659 37 659 37 606 74 c 1,10,11
 564 23 564 23 513.5 -2 c 128,-1,12
 463 -27 463 -27 406 -27 c 0,13,14
 331 -27 331 -27 267 15 c 128,-1,15
 203 57 203 57 156 144.5 c 128,-1,16
 109 232 109 232 82 366.5 c 128,-1,17
 55 501 55 501 55 686 c 0,18,19
 55 870 55 870 82 1004.5 c 128,-1,20
 109 1139 109 1139 156.5 1227 c 128,-1,21
 204 1315 204 1315 268 1357 c 128,-1,22
 332 1399 332 1399 406 1399 c 0,23,24
 479 1399 479 1399 543 1357 c 128,-1,25
 607 1315 607 1315 653.5 1227.5 c 128,-1,26
 700 1140 700 1140 727 1005.5 c 128,-1,27
 754 871 754 871 754 686 c 0,0,1
616 686 m 0,28,29
 616 978 616 978 563 1131 c 128,-1,30
 510 1284 510 1284 406 1284 c 0,31,32
 299 1284 299 1284 246 1129.5 c 128,-1,33
 193 975 193 975 193 686 c 0,34,35
 193 394 193 394 246 241 c 128,-1,36
 299 88 299 88 406 88 c 0,37,38
 469 88 469 88 516 150 c 1,39,40
 467 195 467 195 428 246 c 1,41,-1
 479 326 l 1,42,43
 512 278 512 278 561 236 c 1,44,45
 616 388 616 388 616 686 c 0,28,29
EndSplineSet
EndChar

StartChar: R
Encoding: 82 82 18
Width: 774
Flags: W
LayerCount: 2
Fore
SplineSet
451 113 m 1,0,-1
 524 113 l 1,1,-1
 362 592 l 1,2,-1
 334 592 l 1,3,-1
 272 592 l 1,4,-1
 272 113 l 1,5,-1
 395 113 l 1,6,-1
 395 0 l 1,7,-1
 25 0 l 1,8,-1
 25 113 l 1,9,-1
 147 113 l 1,10,-1
 147 1262 l 1,11,-1
 25 1262 l 1,12,-1
 25 1374 l 1,13,-1
 401 1374 l 2,14,15
 532 1374 532 1374 594.5 1276 c 128,-1,16
 657 1178 657 1178 657 979 c 0,17,18
 657 824 657 824 615 732 c 128,-1,19
 573 640 573 640 479 606 c 1,20,-1
 657 113 l 1,21,-1
 768 113 l 1,22,-1
 768 0 l 1,23,-1
 451 0 l 1,24,-1
 451 113 l 1,0,-1
520 979 m 0,25,26
 520 1067 520 1067 513 1122.5 c 128,-1,27
 506 1178 506 1178 489 1209 c 128,-1,28
 472 1240 472 1240 444.5 1251 c 128,-1,29
 417 1262 417 1262 377 1262 c 2,30,-1
 272 1262 l 1,31,-1
 272 705 l 1,32,-1
 375 705 l 2,33,34
 415 705 415 705 443 714.5 c 128,-1,35
 471 724 471 724 488 753.5 c 128,-1,36
 505 783 505 783 512.5 836.5 c 128,-1,37
 520 890 520 890 520 979 c 0,25,26
EndSplineSet
EndChar

StartChar: S
Encoding: 83 83 19
Width: 666
Flags: W
LayerCount: 2
Fore
SplineSet
49 0 m 1,0,-1
 49 453 l 1,1,-1
 158 453 l 1,2,-1
 158 291 l 2,3,4
 158 230 158 230 173.5 190 c 128,-1,5
 189 150 189 150 212.5 126 c 128,-1,6
 236 102 236 102 263.5 92 c 128,-1,7
 291 82 291 82 315 82 c 0,8,9
 349 82 349 82 380 96 c 128,-1,10
 411 110 411 110 435 140.5 c 128,-1,11
 459 171 459 171 473 220 c 128,-1,12
 487 269 487 269 487 340 c 0,13,14
 487 408 487 408 469 457.5 c 128,-1,15
 451 507 451 507 421 544.5 c 128,-1,16
 391 582 391 582 353 611 c 128,-1,17
 315 640 315 640 275 669.5 c 128,-1,18
 235 699 235 699 197 731 c 128,-1,19
 159 763 159 763 129 806.5 c 128,-1,20
 99 850 99 850 81 908.5 c 128,-1,21
 63 967 63 967 63 1047 c 0,22,23
 63 1144 63 1144 86 1211 c 128,-1,24
 109 1278 109 1278 145 1320 c 128,-1,25
 181 1362 181 1362 224.5 1380.5 c 128,-1,26
 268 1399 268 1399 309 1399 c 0,27,28
 330 1399 330 1399 352.5 1394 c 128,-1,29
 375 1389 375 1389 396.5 1379 c 128,-1,30
 418 1369 418 1369 437 1353.5 c 128,-1,31
 456 1338 456 1338 471 1317 c 1,32,-1
 471 1374 l 1,33,-1
 580 1374 l 1,34,-1
 580 963 l 1,35,-1
 471 963 l 1,36,-1
 471 1116 l 2,37,38
 471 1167 471 1167 457.5 1200.5 c 128,-1,39
 444 1234 444 1234 424.5 1254 c 128,-1,40
 405 1274 405 1274 383 1282 c 128,-1,41
 361 1290 361 1290 344 1290 c 0,42,43
 313 1290 313 1290 285.5 1276 c 128,-1,44
 258 1262 258 1262 237.5 1232.5 c 128,-1,45
 217 1203 217 1203 205 1158 c 128,-1,46
 193 1113 193 1113 193 1051 c 256,47,48
 193 989 193 989 211.5 943.5 c 128,-1,49
 230 898 230 898 259.5 862.5 c 128,-1,50
 289 827 289 827 327.5 797 c 128,-1,51
 366 767 366 767 405.5 737 c 128,-1,52
 445 707 445 707 483.5 672.5 c 128,-1,53
 522 638 522 638 551.5 593 c 128,-1,54
 581 548 581 548 599.5 488.5 c 128,-1,55
 618 429 618 429 618 348 c 0,56,57
 618 233 618 233 592 160 c 128,-1,58
 566 87 566 87 527 45.5 c 128,-1,59
 488 4 488 4 442 -11.5 c 128,-1,60
 396 -27 396 -27 356 -27 c 0,61,62
 230 -27 230 -27 158 70 c 1,63,-1
 158 0 l 1,64,-1
 49 0 l 1,0,-1
EndSplineSet
EndChar

StartChar: T
Encoding: 84 84 20
Width: 756
Flags: W
LayerCount: 2
Fore
SplineSet
41 942 m 1,0,-1
 41 1374 l 1,1,-1
 715 1374 l 1,2,-1
 715 942 l 1,3,-1
 606 942 l 1,4,-1
 606 1264 l 1,5,-1
 440 1264 l 1,6,-1
 440 113 l 1,7,-1
 584 113 l 1,8,-1
 584 0 l 1,9,-1
 172 0 l 1,10,-1
 172 113 l 1,11,-1
 315 113 l 1,12,-1
 315 1264 l 1,13,-1
 150 1264 l 1,14,-1
 150 942 l 1,15,-1
 41 942 l 1,0,-1
EndSplineSet
EndChar

StartChar: U
Encoding: 85 85 21
Width: 821
Flags: W
LayerCount: 2
Fore
SplineSet
10 1374 m 1,0,-1
 381 1374 l 1,1,-1
 381 1262 l 1,2,-1
 258 1262 l 1,3,-1
 258 381 l 2,4,5
 258 312 258 312 262 257 c 128,-1,6
 266 202 266 202 281 163.5 c 128,-1,7
 296 125 296 125 327 104.5 c 128,-1,8
 358 84 358 84 412 84 c 256,9,10
 466 84 466 84 496 104.5 c 128,-1,11
 526 125 526 125 541 163.5 c 128,-1,12
 556 202 556 202 559.5 257 c 128,-1,13
 563 312 563 312 563 381 c 2,14,-1
 563 1262 l 1,15,-1
 440 1262 l 1,16,-1
 440 1374 l 1,17,-1
 811 1374 l 1,18,-1
 811 1262 l 1,19,-1
 688 1262 l 1,20,-1
 688 365 l 2,21,22
 688 257 688 257 673.5 182.5 c 128,-1,23
 659 108 659 108 626.5 61.5 c 128,-1,24
 594 15 594 15 541 -6 c 128,-1,25
 488 -27 488 -27 412 -27 c 0,26,27
 335 -27 335 -27 282 -6 c 128,-1,28
 229 15 229 15 196 61.5 c 128,-1,29
 163 108 163 108 148 182.5 c 128,-1,30
 133 257 133 257 133 365 c 2,31,-1
 133 1262 l 1,32,-1
 10 1262 l 1,33,-1
 10 1374 l 1,0,-1
EndSplineSet
EndChar

StartChar: V
Encoding: 86 86 22
Width: 774
Flags: W
LayerCount: 2
Fore
SplineSet
0 1374 m 1,0,-1
 346 1374 l 1,1,-1
 346 1262 l 1,2,-1
 223 1262 l 1,3,-1
 389 270 l 1,4,-1
 551 1262 l 1,5,-1
 428 1262 l 1,6,-1
 428 1374 l 1,7,-1
 774 1374 l 1,8,-1
 774 1262 l 1,9,-1
 672 1262 l 1,10,-1
 444 0 l 1,11,-1
 330 0 l 1,12,-1
 102 1262 l 1,13,-1
 0 1262 l 1,14,-1
 0 1374 l 1,0,-1
EndSplineSet
EndChar

StartChar: W
Encoding: 87 87 23
Width: 1153
Flags: W
LayerCount: 2
Fore
SplineSet
6 1374 m 1,0,-1
 338 1374 l 1,1,-1
 338 1262 l 1,2,-1
 227 1262 l 1,3,-1
 362 346 l 1,4,-1
 528 1374 l 1,5,-1
 625 1374 l 1,6,-1
 791 346 l 1,7,-1
 926 1262 l 1,8,-1
 815 1262 l 1,9,-1
 815 1374 l 1,10,-1
 1147 1374 l 1,11,-1
 1147 1262 l 1,12,-1
 1047 1262 l 1,13,-1
 844 0 l 1,14,-1
 748 0 l 1,15,-1
 575 1036 l 1,16,-1
 406 0 l 1,17,-1
 309 0 l 1,18,-1
 106 1262 l 1,19,-1
 6 1262 l 1,20,-1
 6 1374 l 1,0,-1
EndSplineSet
EndChar

StartChar: X
Encoding: 88 88 24
Width: 752
Flags: W
LayerCount: 2
Fore
SplineSet
440 690 m 1,0,-1
 639 113 l 1,1,-1
 750 113 l 1,2,-1
 750 0 l 1,3,-1
 410 0 l 1,4,-1
 410 113 l 1,5,-1
 512 113 l 1,6,-1
 375 530 l 1,7,-1
 231 113 l 1,8,-1
 334 113 l 1,9,-1
 334 0 l 1,10,-1
 -6 0 l 1,11,-1
 -6 113 l 1,12,-1
 104 113 l 1,13,-1
 313 690 l 1,14,-1
 117 1262 l 1,15,-1
 6 1262 l 1,16,-1
 6 1374 l 1,17,-1
 342 1374 l 1,18,-1
 342 1262 l 1,19,-1
 244 1262 l 1,20,-1
 379 850 l 1,21,-1
 520 1262 l 1,22,-1
 422 1262 l 1,23,-1
 422 1374 l 1,24,-1
 758 1374 l 1,25,-1
 758 1262 l 1,26,-1
 647 1262 l 1,27,-1
 440 690 l 1,0,-1
EndSplineSet
EndChar

StartChar: Y
Encoding: 89 89 25
Width: 817
Flags: W
LayerCount: 2
Fore
SplineSet
0 1374 m 1,0,-1
 371 1374 l 1,1,-1
 371 1262 l 1,2,-1
 258 1262 l 1,3,-1
 410 727 l 1,4,-1
 559 1262 l 1,5,-1
 446 1262 l 1,6,-1
 446 1374 l 1,7,-1
 817 1374 l 1,8,-1
 817 1262 l 1,9,-1
 692 1262 l 1,10,-1
 471 582 l 1,11,-1
 471 113 l 1,12,-1
 614 113 l 1,13,-1
 614 0 l 1,14,-1
 203 0 l 1,15,-1
 203 113 l 1,16,-1
 346 113 l 1,17,-1
 346 582 l 1,18,-1
 125 1262 l 1,19,-1
 0 1262 l 1,20,-1
 0 1374 l 1,0,-1
EndSplineSet
EndChar

StartChar: Z
Encoding: 90 90 26
Width: 618
Flags: W
LayerCount: 2
Fore
SplineSet
66 963 m 1,0,-1
 66 1374 l 1,1,-1
 557 1374 l 1,2,-1
 557 1286 l 1,3,-1
 178 117 l 1,4,-1
 457 117 l 1,5,-1
 457 432 l 1,6,-1
 565 432 l 1,7,-1
 565 0 l 1,8,-1
 45 0 l 1,9,-1
 45 102 l 1,10,-1
 418 1257 l 1,11,-1
 174 1257 l 1,12,-1
 174 963 l 1,13,-1
 66 963 l 1,0,-1
EndSplineSet
EndChar

StartChar: a
Encoding: 97 97 27
Width: 555
Flags: W
LayerCount: 2
Fore
SplineSet
328 500 m 1,0,1
 275 495 275 495 242.5 478.5 c 128,-1,2
 210 462 210 462 192 432.5 c 128,-1,3
 174 403 174 403 168 360 c 128,-1,4
 162 317 162 317 162 260 c 0,5,6
 162 172 162 172 180 126 c 128,-1,7
 198 80 198 80 229 80 c 0,8,9
 242 80 242 80 256.5 90 c 128,-1,10
 271 100 271 100 284.5 117 c 128,-1,11
 298 134 298 134 309.5 157.5 c 128,-1,12
 321 181 321 181 328 207 c 1,13,-1
 328 500 l 1,0,1
74 743 m 1,14,15
 80 815 80 815 98 860.5 c 128,-1,16
 116 906 116 906 141.5 932.5 c 128,-1,17
 167 959 167 959 199 969 c 128,-1,18
 231 979 231 979 266 979 c 0,19,20
 305 979 305 979 339 966.5 c 128,-1,21
 373 954 373 954 398.5 921.5 c 128,-1,22
 424 889 424 889 438.5 832 c 128,-1,23
 453 775 453 775 453 686 c 2,24,-1
 453 113 l 1,25,-1
 535 113 l 1,26,-1
 535 0 l 1,27,-1
 328 0 l 1,28,-1
 328 66 l 1,29,30
 299 19 299 19 269 -4 c 128,-1,31
 239 -27 239 -27 190 -27 c 0,32,33
 160 -27 160 -27 133 -9 c 128,-1,34
 106 9 106 9 85 44.5 c 128,-1,35
 64 80 64 80 51.5 132.5 c 128,-1,36
 39 185 39 185 39 254 c 0,37,38
 39 352 39 352 61 414.5 c 128,-1,39
 83 477 83 477 122 514.5 c 128,-1,40
 161 552 161 552 213.5 569.5 c 128,-1,41
 266 587 266 587 328 596 c 1,42,-1
 328 688 l 2,43,44
 328 748 328 748 322.5 784 c 128,-1,45
 317 820 317 820 308 839.5 c 128,-1,46
 299 859 299 859 287.5 865.5 c 128,-1,47
 276 872 276 872 264 872 c 0,48,49
 232 872 232 872 215 836.5 c 128,-1,50
 198 801 198 801 193 723 c 1,51,-1
 74 743 l 1,14,15
EndSplineSet
Substitution2: "Single Substitution lookup 5 subtable" ordfeminine
Substitution2: "'aalt' Access All Alternates in Latin lookup 0 subtable" ordfeminine
EndChar

StartChar: b
Encoding: 98 98 28
Width: 602
Flags: W
LayerCount: 2
Fore
SplineSet
16 1374 m 1,0,-1
 223 1374 l 1,1,-1
 223 877 l 1,2,3
 275 979 275 979 352 979 c 0,4,5
 391 979 391 979 427.5 952.5 c 128,-1,6
 464 926 464 926 493 865.5 c 128,-1,7
 522 805 522 805 539.5 707.5 c 128,-1,8
 557 610 557 610 557 469 c 0,9,10
 557 343 557 343 540.5 249.5 c 128,-1,11
 524 156 524 156 496 94.5 c 128,-1,12
 468 33 468 33 430 3 c 128,-1,13
 392 -27 392 -27 350 -27 c 0,14,15
 304 -27 304 -27 271 1 c 128,-1,16
 238 29 238 29 209 82 c 1,17,18
 209 66 209 66 206.5 51.5 c 128,-1,19
 204 37 204 37 202 26 c 1,20,21
 198 13 198 13 195 0 c 1,22,-1
 78 0 l 1,23,24
 84 20 84 20 88 40 c 0,25,26
 92 57 92 57 95 76.5 c 128,-1,27
 98 96 98 96 98 113 c 2,28,-1
 98 1262 l 1,29,-1
 16 1262 l 1,30,-1
 16 1374 l 1,0,-1
223 207 m 1,31,32
 242 151 242 151 268 115.5 c 128,-1,33
 294 80 294 80 326 80 c 0,34,35
 375 80 375 80 404.5 181 c 128,-1,36
 434 282 434 282 434 469 c 0,37,38
 434 664 434 664 407 768 c 128,-1,39
 380 872 380 872 328 872 c 0,40,41
 311 872 311 872 295.5 854.5 c 128,-1,42
 280 837 280 837 266.5 809 c 128,-1,43
 253 781 253 781 242 747 c 128,-1,44
 231 713 231 713 223 680 c 1,45,-1
 223 207 l 1,31,32
EndSplineSet
EndChar

StartChar: c
Encoding: 99 99 29
Width: 543
Flags: W
LayerCount: 2
Fore
SplineSet
387 604 m 1,0,-1
 387 676 l 2,1,2
 387 737 387 737 377.5 775.5 c 128,-1,3
 368 814 368 814 354 835.5 c 128,-1,4
 340 857 340 857 323.5 864.5 c 128,-1,5
 307 872 307 872 293 872 c 0,6,7
 262 872 262 872 239.5 844.5 c 128,-1,8
 217 817 217 817 202.5 765.5 c 128,-1,9
 188 714 188 714 181 641 c 128,-1,10
 174 568 174 568 174 477 c 0,11,12
 174 385 174 385 180 312 c 128,-1,13
 186 239 186 239 200.5 188 c 128,-1,14
 215 137 215 137 237.5 109.5 c 128,-1,15
 260 82 260 82 293 82 c 0,16,17
 322 82 322 82 342 100.5 c 128,-1,18
 362 119 362 119 375 146.5 c 128,-1,19
 388 174 388 174 396 205.5 c 128,-1,20
 404 237 404 237 410 264 c 1,21,-1
 508 264 l 1,22,23
 500 202 500 202 482.5 148.5 c 128,-1,24
 465 95 465 95 438 56 c 128,-1,25
 411 17 411 17 374.5 -5 c 128,-1,26
 338 -27 338 -27 291 -27 c 0,27,28
 175 -27 175 -27 109 101 c 128,-1,29
 43 229 43 229 43 475 c 0,30,31
 43 597 43 597 62 691 c 128,-1,32
 81 785 81 785 113.5 848.5 c 128,-1,33
 146 912 146 912 188.5 944.5 c 128,-1,34
 231 977 231 977 279 977 c 0,35,36
 300 977 300 977 317 970 c 128,-1,37
 334 963 334 963 347.5 952 c 128,-1,38
 361 941 361 941 371 927 c 128,-1,39
 381 913 381 913 387 899 c 1,40,-1
 387 952 l 1,41,-1
 492 952 l 1,42,-1
 492 604 l 1,43,-1
 387 604 l 1,0,-1
EndSplineSet
EndChar

StartChar: d
Encoding: 100 100 30
Width: 602
Flags: W
LayerCount: 2
Fore
SplineSet
584 0 m 1,0,-1
 377 0 l 1,1,-1
 377 63 l 1,2,3
 348 20 348 20 317 -3.5 c 128,-1,4
 286 -27 286 -27 242 -27 c 0,5,6
 201 -27 201 -27 165 -3 c 128,-1,7
 129 21 129 21 102 79.5 c 128,-1,8
 75 138 75 138 59 236.5 c 128,-1,9
 43 335 43 335 43 483 c 0,10,11
 43 609 43 609 59 702 c 128,-1,12
 75 795 75 795 102.5 856.5 c 128,-1,13
 130 918 130 918 167.5 948.5 c 128,-1,14
 205 979 205 979 248 979 c 0,15,16
 288 979 288 979 319.5 957 c 128,-1,17
 351 935 351 935 377 881 c 1,18,-1
 377 1262 l 1,19,-1
 289 1262 l 1,20,-1
 289 1374 l 1,21,-1
 502 1374 l 1,22,-1
 502 113 l 1,23,-1
 584 113 l 1,24,-1
 584 0 l 1,0,-1
272 80 m 0,25,26
 306 80 306 80 333 117.5 c 128,-1,27
 360 155 360 155 377 221 c 1,28,-1
 377 688 l 1,29,30
 371 718 371 718 360.5 750.5 c 128,-1,31
 350 783 350 783 337 810 c 128,-1,32
 324 837 324 837 308 854.5 c 128,-1,33
 292 872 292 872 274 872 c 0,34,35
 251 872 251 872 231.5 846 c 128,-1,36
 212 820 212 820 197.5 770.5 c 128,-1,37
 183 721 183 721 174.5 648.5 c 128,-1,38
 166 576 166 576 166 483 c 0,39,40
 166 288 166 288 193 184 c 128,-1,41
 220 80 220 80 272 80 c 0,25,26
EndSplineSet
EndChar

StartChar: e
Encoding: 101 101 31
Width: 535
Flags: W
LayerCount: 2
Fore
SplineSet
362 520 m 1,0,1
 361 587 361 587 355.5 649 c 128,-1,2
 350 711 350 711 339 758.5 c 128,-1,3
 328 806 328 806 310.5 834 c 128,-1,4
 293 862 293 862 268 862 c 0,5,6
 245 862 245 862 228 834 c 128,-1,7
 211 806 211 806 199 758.5 c 128,-1,8
 187 711 187 711 180 649 c 128,-1,9
 173 587 173 587 172 520 c 1,10,-1
 362 520 l 1,0,1
285 82 m 0,11,12
 314 82 314 82 333 100.5 c 128,-1,13
 352 119 352 119 364 146.5 c 128,-1,14
 376 174 376 174 383 205.5 c 128,-1,15
 390 237 390 237 395 264 c 1,16,-1
 494 264 l 1,17,18
 486 202 486 202 469 148.5 c 128,-1,19
 452 95 452 95 425 56 c 128,-1,20
 398 17 398 17 361.5 -5 c 128,-1,21
 325 -27 325 -27 279 -27 c 0,22,23
 225 -27 225 -27 181.5 5 c 128,-1,24
 138 37 138 37 107 100 c 128,-1,25
 76 163 76 163 59.5 256 c 128,-1,26
 43 349 43 349 43 471 c 0,27,28
 43 586 43 586 59.5 679 c 128,-1,29
 76 772 76 772 106 837 c 128,-1,30
 136 902 136 902 177.5 937.5 c 128,-1,31
 219 973 219 973 270 973 c 0,32,33
 376 973 376 973 434 836 c 128,-1,34
 492 699 492 699 492 438 c 2,35,-1
 492 416 l 1,36,-1
 172 416 l 1,37,38
 175 252 175 252 200 167 c 128,-1,39
 225 82 225 82 285 82 c 0,11,12
EndSplineSet
EndChar

StartChar: f
Encoding: 102 102 32
Width: 424
Flags: W
LayerCount: 2
Fore
SplineSet
31 952 m 1,0,-1
 113 952 l 1,1,-1
 113 1061 l 2,2,3
 113 1223 113 1223 178.5 1309 c 128,-1,4
 244 1395 244 1395 356 1395 c 0,5,6
 409 1395 409 1395 449.5 1377 c 128,-1,7
 490 1359 490 1359 518 1339 c 1,8,-1
 473 1241 l 1,9,10
 461 1251 461 1251 451 1259.5 c 128,-1,11
 441 1268 441 1268 431 1274 c 128,-1,12
 421 1280 421 1280 408 1283 c 128,-1,13
 395 1286 395 1286 377 1286 c 0,14,15
 309 1286 309 1286 273.5 1230 c 128,-1,16
 238 1174 238 1174 238 1065 c 2,17,-1
 238 952 l 1,18,-1
 408 952 l 1,19,-1
 408 840 l 1,20,-1
 238 840 l 1,21,-1
 238 113 l 1,22,-1
 360 113 l 1,23,-1
 360 0 l 1,24,-1
 31 0 l 1,25,-1
 31 113 l 1,26,-1
 113 113 l 1,27,-1
 113 840 l 1,28,-1
 31 840 l 1,29,-1
 31 952 l 1,0,-1
EndSplineSet
EndChar

StartChar: g
Encoding: 103 103 33
Width: 604
Flags: W
LayerCount: 2
Fore
SplineSet
502 10 m 2,0,1
 502 -80 502 -80 490 -157.5 c 128,-1,2
 478 -235 478 -235 449.5 -292 c 128,-1,3
 421 -349 421 -349 372 -381.5 c 128,-1,4
 323 -414 323 -414 250 -414 c 0,5,6
 216 -414 216 -414 188 -406 c 128,-1,7
 160 -398 160 -398 137 -385.5 c 128,-1,8
 114 -373 114 -373 95 -358 c 128,-1,9
 76 -343 76 -343 61 -328 c 1,10,-1
 121 -233 l 1,11,12
 131 -243 131 -243 143.5 -255.5 c 128,-1,13
 156 -268 156 -268 171.5 -278.5 c 128,-1,14
 187 -289 187 -289 205 -296 c 128,-1,15
 223 -303 223 -303 244 -303 c 0,16,17
 285 -303 285 -303 311 -282 c 128,-1,18
 337 -261 337 -261 351.5 -221 c 128,-1,19
 366 -181 366 -181 371.5 -123.5 c 128,-1,20
 377 -66 377 -66 377 8 c 2,21,-1
 377 66 l 1,22,23
 354 24 354 24 326.5 -1.5 c 128,-1,24
 299 -27 299 -27 252 -27 c 0,25,26
 210 -27 210 -27 172.5 -3 c 128,-1,27
 135 21 135 21 106 79.5 c 128,-1,28
 77 138 77 138 60 236.5 c 128,-1,29
 43 335 43 335 43 483 c 0,30,31
 43 609 43 609 58 702 c 128,-1,32
 73 795 73 795 100 856.5 c 128,-1,33
 127 918 127 918 165 948.5 c 128,-1,34
 203 979 203 979 248 979 c 0,35,36
 288 979 288 979 321 951 c 128,-1,37
 354 923 354 923 377 881 c 1,38,-1
 377 952 l 1,39,-1
 584 952 l 1,40,-1
 584 840 l 1,41,-1
 502 840 l 1,42,-1
 502 10 l 2,0,1
272 80 m 0,43,44
 306 80 306 80 333 118.5 c 128,-1,45
 360 157 360 157 377 223 c 1,46,-1
 377 688 l 1,47,48
 369 723 369 723 358.5 756.5 c 128,-1,49
 348 790 348 790 335 815.5 c 128,-1,50
 322 841 322 841 307 856.5 c 128,-1,51
 292 872 292 872 276 872 c 0,52,53
 227 872 227 872 196.5 770.5 c 128,-1,54
 166 669 166 669 166 483 c 0,55,56
 166 288 166 288 193 184 c 128,-1,57
 220 80 220 80 272 80 c 0,43,44
EndSplineSet
EndChar

StartChar: h
Encoding: 104 104 34
Width: 641
Flags: W
LayerCount: 2
Fore
SplineSet
25 1374 m 1,0,-1
 231 1374 l 1,1,-1
 231 850 l 1,2,3
 267 910 267 910 306.5 944.5 c 128,-1,4
 346 979 346 979 397 979 c 0,5,6
 471 979 471 979 503 914 c 128,-1,7
 535 849 535 849 535 729 c 2,8,-1
 535 113 l 1,9,-1
 616 113 l 1,10,-1
 616 0 l 1,11,-1
 348 0 l 1,12,-1
 348 113 l 1,13,-1
 410 113 l 1,14,-1
 410 690 l 2,15,16
 410 745 410 745 407.5 779 c 128,-1,17
 405 813 405 813 399 832.5 c 128,-1,18
 393 852 393 852 384 859 c 128,-1,19
 375 866 375 866 362 866 c 0,20,21
 343 866 343 866 322.5 846.5 c 128,-1,22
 302 827 302 827 284 796 c 128,-1,23
 266 765 266 765 251.5 726.5 c 128,-1,24
 237 688 237 688 231 649 c 1,25,-1
 231 113 l 1,26,-1
 293 113 l 1,27,-1
 293 0 l 1,28,-1
 25 0 l 1,29,-1
 25 113 l 1,30,-1
 106 113 l 1,31,-1
 106 1262 l 1,32,-1
 25 1262 l 1,33,-1
 25 1374 l 1,0,-1
EndSplineSet
EndChar

StartChar: i
Encoding: 105 105 35
Width: 350
Flags: W
LayerCount: 2
Fore
SplineSet
31 952 m 1,0,-1
 238 952 l 1,1,-1
 238 113 l 1,2,-1
 338 113 l 1,3,-1
 338 0 l 1,4,-1
 31 0 l 1,5,-1
 31 113 l 1,6,-1
 113 113 l 1,7,-1
 113 840 l 1,8,-1
 31 840 l 1,9,-1
 31 952 l 1,0,-1
66 1221 m 0,10,11
 66 1261 66 1261 92.5 1289 c 128,-1,12
 119 1317 119 1317 160 1317 c 0,13,14
 200 1317 200 1317 228 1289 c 128,-1,15
 256 1261 256 1261 256 1221 c 0,16,17
 256 1180 256 1180 228 1153 c 128,-1,18
 200 1126 200 1126 160 1126 c 0,19,20
 119 1126 119 1126 92.5 1153 c 128,-1,21
 66 1180 66 1180 66 1221 c 0,10,11
EndSplineSet
EndChar

StartChar: j
Encoding: 106 106 36
Width: 317
Flags: W
LayerCount: 2
Fore
SplineSet
47 1221 m 0,0,1
 47 1261 47 1261 74 1289 c 128,-1,2
 101 1317 101 1317 141 1317 c 0,3,4
 182 1317 182 1317 210 1289 c 128,-1,5
 238 1261 238 1261 238 1221 c 0,6,7
 238 1180 238 1180 210 1153 c 128,-1,8
 182 1126 182 1126 141 1126 c 0,9,10
 101 1126 101 1126 74 1153 c 128,-1,11
 47 1180 47 1180 47 1221 c 0,0,1
-74 -250 m 1,12,13
 -55 -267 -55 -267 -34.5 -281 c 128,-1,14
 -14 -295 -14 -295 14 -295 c 0,15,16
 35 -295 35 -295 52 -286 c 128,-1,17
 69 -277 69 -277 81 -255.5 c 128,-1,18
 93 -234 93 -234 99.5 -199 c 128,-1,19
 106 -164 106 -164 106 -113 c 2,20,-1
 106 840 l 1,21,-1
 12 840 l 1,22,-1
 12 952 l 1,23,-1
 231 952 l 1,24,-1
 231 -109 l 2,25,26
 231 -196 231 -196 215 -254.5 c 128,-1,27
 199 -313 199 -313 172 -348.5 c 128,-1,28
 145 -384 145 -384 109 -399 c 128,-1,29
 73 -414 73 -414 33 -414 c 0,30,31
 4 -414 4 -414 -20.5 -407 c 128,-1,32
 -45 -400 -45 -400 -65.5 -390 c 128,-1,33
 -86 -380 -86 -380 -102 -368 c 128,-1,34
 -118 -356 -118 -356 -129 -346 c 1,35,-1
 -74 -250 l 1,12,13
EndSplineSet
EndChar

StartChar: k
Encoding: 107 107 37
Width: 627
Flags: W
LayerCount: 2
Fore
SplineSet
25 1374 m 1,0,-1
 231 1374 l 1,1,-1
 231 600 l 1,2,-1
 416 883 l 1,3,4
 442 925 442 925 473.5 947 c 128,-1,5
 505 969 505 969 547 969 c 0,6,7
 567 969 567 969 586 963 c 128,-1,8
 605 957 605 957 621 946 c 1,9,-1
 584 848 l 1,10,11
 567 856 567 856 553 856 c 0,12,13
 533 856 533 856 516.5 836.5 c 128,-1,14
 500 817 500 817 471 772 c 2,15,-1
 367 612 l 1,16,-1
 553 113 l 1,17,-1
 635 113 l 1,18,-1
 635 0 l 1,19,-1
 358 0 l 1,20,-1
 358 113 l 1,21,-1
 424 113 l 1,22,-1
 285 494 l 1,23,-1
 231 414 l 1,24,-1
 231 113 l 1,25,-1
 313 113 l 1,26,-1
 313 0 l 1,27,-1
 25 0 l 1,28,-1
 25 113 l 1,29,-1
 106 113 l 1,30,-1
 106 1262 l 1,31,-1
 25 1262 l 1,32,-1
 25 1374 l 1,0,-1
EndSplineSet
EndChar

StartChar: l
Encoding: 108 108 38
Width: 344
Flags: W
LayerCount: 2
Fore
SplineSet
4 1374 m 1,0,-1
 211 1374 l 1,1,-1
 211 221 l 2,2,3
 211 183 211 183 217 161.5 c 128,-1,4
 223 140 223 140 235 129.5 c 128,-1,5
 247 119 247 119 265.5 116 c 128,-1,6
 284 113 284 113 309 113 c 2,7,-1
 336 113 l 1,8,-1
 336 0 l 1,9,-1
 311 0 l 2,10,11
 254 0 254 0 212 10 c 128,-1,12
 170 20 170 20 142 46.5 c 128,-1,13
 114 73 114 73 100 118 c 128,-1,14
 86 163 86 163 86 233 c 2,15,-1
 86 1262 l 1,16,-1
 4 1262 l 1,17,-1
 4 1374 l 1,0,-1
EndSplineSet
EndChar

StartChar: m
Encoding: 109 109 39
Width: 934
Flags: W
LayerCount: 2
Fore
SplineSet
641 113 m 1,0,-1
 702 113 l 1,1,-1
 702 688 l 2,2,3
 702 716 702 716 701 747.5 c 128,-1,4
 700 779 700 779 695 805.5 c 128,-1,5
 690 832 690 832 680.5 849 c 128,-1,6
 671 866 671 866 653 866 c 0,7,8
 639 866 639 866 624.5 854 c 128,-1,9
 610 842 610 842 596.5 823.5 c 128,-1,10
 583 805 583 805 571 781 c 128,-1,11
 559 757 559 757 550.5 733.5 c 128,-1,12
 542 710 542 710 537 688 c 128,-1,13
 532 666 532 666 532 651 c 2,14,-1
 532 113 l 1,15,-1
 594 113 l 1,16,-1
 594 0 l 1,17,-1
 346 0 l 1,18,-1
 346 113 l 1,19,-1
 408 113 l 1,20,-1
 408 688 l 2,21,22
 408 776 408 776 398.5 821 c 128,-1,23
 389 866 389 866 360 866 c 0,24,25
 343 866 343 866 324.5 847.5 c 128,-1,26
 306 829 306 829 289.5 798.5 c 128,-1,27
 273 768 273 768 259 729.5 c 128,-1,28
 245 691 245 691 238 651 c 1,29,-1
 238 113 l 1,30,-1
 299 113 l 1,31,-1
 299 0 l 1,32,-1
 31 0 l 1,33,-1
 31 113 l 1,34,-1
 113 113 l 1,35,-1
 113 840 l 1,36,-1
 31 840 l 1,37,-1
 31 952 l 1,38,-1
 238 952 l 1,39,-1
 238 846 l 1,40,41
 251 874 251 874 269.5 898 c 128,-1,42
 288 922 288 922 309.5 940 c 128,-1,43
 331 958 331 958 354 968.5 c 128,-1,44
 377 979 377 979 401 979 c 0,45,46
 455 979 455 979 478.5 937 c 128,-1,47
 502 895 502 895 510 823 c 1,48,49
 552 904 552 904 598.5 941.5 c 128,-1,50
 645 979 645 979 694 979 c 0,51,52
 731 979 731 979 756.5 959.5 c 128,-1,53
 782 940 782 940 797.5 906 c 128,-1,54
 813 872 813 872 820 826 c 128,-1,55
 827 780 827 780 827 727 c 2,56,-1
 827 113 l 1,57,-1
 909 113 l 1,58,-1
 909 0 l 1,59,-1
 641 0 l 1,60,-1
 641 113 l 1,0,-1
EndSplineSet
EndChar

StartChar: n
Encoding: 110 110 40
Width: 647
Flags: W
LayerCount: 2
Fore
SplineSet
31 952 m 1,0,-1
 238 952 l 1,1,-1
 238 846 l 1,2,3
 273 906 273 906 312.5 942.5 c 128,-1,4
 352 979 352 979 403 979 c 0,5,6
 477 979 477 979 509 914 c 128,-1,7
 541 849 541 849 541 729 c 2,8,-1
 541 113 l 1,9,-1
 623 113 l 1,10,-1
 623 0 l 1,11,-1
 354 0 l 1,12,-1
 354 113 l 1,13,-1
 416 113 l 1,14,-1
 416 690 l 2,15,16
 416 745 416 745 413.5 779 c 128,-1,17
 411 813 411 813 405.5 832.5 c 128,-1,18
 400 852 400 852 391 859 c 128,-1,19
 382 866 382 866 369 866 c 0,20,21
 349 866 349 866 328.5 846.5 c 128,-1,22
 308 827 308 827 290 796 c 128,-1,23
 272 765 272 765 258 726.5 c 128,-1,24
 244 688 244 688 238 649 c 1,25,-1
 238 113 l 1,26,-1
 299 113 l 1,27,-1
 299 0 l 1,28,-1
 31 0 l 1,29,-1
 31 113 l 1,30,-1
 113 113 l 1,31,-1
 113 840 l 1,32,-1
 31 840 l 1,33,-1
 31 952 l 1,0,-1
EndSplineSet
EndChar

StartChar: o
Encoding: 111 111 41
Width: 575
Flags: W
LayerCount: 2
Fore
SplineSet
532 475 m 256,0,1
 532 344 532 344 513.5 249.5 c 128,-1,2
 495 155 495 155 462 93.5 c 128,-1,3
 429 32 429 32 384.5 2.5 c 128,-1,4
 340 -27 340 -27 289 -27 c 0,5,6
 237 -27 237 -27 192 2.5 c 128,-1,7
 147 32 147 32 114 93.5 c 128,-1,8
 81 155 81 155 62 249.5 c 128,-1,9
 43 344 43 344 43 475 c 0,10,11
 43 605 43 605 62 700.5 c 128,-1,12
 81 796 81 796 114.5 857.5 c 128,-1,13
 148 919 148 919 193 949 c 128,-1,14
 238 979 238 979 289 979 c 256,15,16
 340 979 340 979 384.5 949.5 c 128,-1,17
 429 920 429 920 462 858.5 c 128,-1,18
 495 797 495 797 513.5 701.5 c 128,-1,19
 532 606 532 606 532 475 c 256,0,1
410 475 m 0,20,21
 410 670 410 670 379.5 771 c 128,-1,22
 349 872 349 872 289 872 c 0,23,24
 227 872 227 872 196.5 770 c 128,-1,25
 166 668 166 668 166 475 c 256,26,27
 166 282 166 282 196.5 181 c 128,-1,28
 227 80 227 80 289 80 c 0,29,30
 349 80 349 80 379.5 181 c 128,-1,31
 410 282 410 282 410 475 c 0,20,21
EndSplineSet
Substitution2: "Single Substitution lookup 5 subtable" ordmasculine
Substitution2: "'aalt' Access All Alternates in Latin lookup 0 subtable" ordmasculine
EndChar

StartChar: p
Encoding: 112 112 42
Width: 610
Flags: W
LayerCount: 2
Fore
SplineSet
25 952 m 1,0,-1
 231 952 l 1,1,-1
 231 877 l 1,2,3
 260 934 260 934 292.5 956.5 c 128,-1,4
 325 979 325 979 367 979 c 0,5,6
 401 979 401 979 436.5 953.5 c 128,-1,7
 472 928 472 928 500.5 869 c 128,-1,8
 529 810 529 810 547 713.5 c 128,-1,9
 565 617 565 617 565 475 c 0,10,11
 565 344 565 344 548.5 249.5 c 128,-1,12
 532 155 532 155 503.5 93.5 c 128,-1,13
 475 32 475 32 437.5 2.5 c 128,-1,14
 400 -27 400 -27 358 -27 c 0,15,16
 324 -27 324 -27 292 -10.5 c 128,-1,17
 260 6 260 6 231 51 c 1,18,-1
 231 -281 l 1,19,-1
 334 -281 l 1,20,-1
 334 -393 l 1,21,-1
 25 -393 l 1,22,-1
 25 -281 l 1,23,-1
 106 -281 l 1,24,-1
 106 840 l 1,25,-1
 25 840 l 1,26,-1
 25 952 l 1,0,-1
231 188 m 1,27,28
 248 142 248 142 272 111 c 128,-1,29
 296 80 296 80 328 80 c 0,30,31
 376 80 376 80 409 181 c 128,-1,32
 442 282 442 282 442 475 c 0,33,34
 442 670 442 670 417.5 771 c 128,-1,35
 393 872 393 872 340 872 c 0,36,37
 323 872 323 872 306 855.5 c 128,-1,38
 289 839 289 839 274 812.5 c 128,-1,39
 259 786 259 786 248 753 c 128,-1,40
 237 720 237 720 231 686 c 1,41,-1
 231 188 l 1,27,28
EndSplineSet
EndChar

StartChar: q
Encoding: 113 113 43
Width: 610
Flags: W
LayerCount: 2
Fore
SplineSet
586 840 m 1,0,-1
 504 840 l 1,1,-1
 504 -281 l 1,2,-1
 586 -281 l 1,3,-1
 586 -393 l 1,4,-1
 297 -393 l 1,5,-1
 297 -281 l 1,6,-1
 379 -281 l 1,7,-1
 379 68 l 1,8,9
 350 17 350 17 320 -5 c 128,-1,10
 290 -27 290 -27 246 -27 c 256,11,12
 202 -27 202 -27 165 3.5 c 128,-1,13
 128 34 128 34 101.5 97 c 128,-1,14
 75 160 75 160 60 256 c 128,-1,15
 45 352 45 352 45 483 c 0,16,17
 45 609 45 609 61.5 702 c 128,-1,18
 78 795 78 795 106.5 856.5 c 128,-1,19
 135 918 135 918 173 948.5 c 128,-1,20
 211 979 211 979 254 979 c 0,21,22
 332 979 332 979 379 877 c 1,23,-1
 379 952 l 1,24,-1
 586 952 l 1,25,-1
 586 840 l 1,0,-1
274 80 m 0,26,27
 308 80 308 80 335 122.5 c 128,-1,28
 362 165 362 165 379 231 c 1,29,-1
 379 705 l 1,30,31
 374 737 374 737 363 767 c 128,-1,32
 352 797 352 797 338 820.5 c 128,-1,33
 324 844 324 844 308 858 c 128,-1,34
 292 872 292 872 276 872 c 0,35,36
 227 872 227 872 197.5 771 c 128,-1,37
 168 670 168 670 168 483 c 0,38,39
 168 288 168 288 195 184 c 128,-1,40
 222 80 222 80 274 80 c 0,26,27
EndSplineSet
EndChar

StartChar: r
Encoding: 114 114 44
Width: 479
Flags: W
LayerCount: 2
Fore
SplineSet
31 952 m 1,0,-1
 238 952 l 1,1,-1
 238 862 l 1,2,3
 276 925 276 925 314.5 952 c 128,-1,4
 353 979 353 979 393 979 c 0,5,6
 413 979 413 979 430.5 973.5 c 128,-1,7
 448 968 448 968 462 961.5 c 128,-1,8
 476 955 476 955 486 948 c 128,-1,9
 496 941 496 941 500 938 c 1,10,-1
 455 825 l 1,11,12
 452 828 452 828 445.5 835 c 128,-1,13
 439 842 439 842 430 849 c 128,-1,14
 421 856 421 856 409.5 861 c 128,-1,15
 398 866 398 866 383 866 c 0,16,17
 358 866 358 866 335.5 850.5 c 128,-1,18
 313 835 313 835 294 808.5 c 128,-1,19
 275 782 275 782 260.5 747.5 c 128,-1,20
 246 713 246 713 238 676 c 1,21,-1
 238 113 l 1,22,-1
 340 113 l 1,23,-1
 340 0 l 1,24,-1
 31 0 l 1,25,-1
 31 113 l 1,26,-1
 113 113 l 1,27,-1
 113 840 l 1,28,-1
 31 840 l 1,29,-1
 31 952 l 1,0,-1
EndSplineSet
EndChar

StartChar: s
Encoding: 115 115 45
Width: 502
Flags: W
LayerCount: 2
Fore
SplineSet
49 0 m 1,0,-1
 49 350 l 1,1,-1
 156 350 l 1,2,-1
 156 266 l 2,3,4
 156 214 156 214 164.5 180 c 128,-1,5
 173 146 173 146 186 126 c 128,-1,6
 199 106 199 106 215.5 98 c 128,-1,7
 232 90 232 90 248 90 c 0,8,9
 263 90 263 90 278 96 c 128,-1,10
 293 102 293 102 305 118 c 128,-1,11
 317 134 317 134 324.5 161.5 c 128,-1,12
 332 189 332 189 332 233 c 0,13,14
 332 292 332 292 311.5 333 c 128,-1,15
 291 374 291 374 260 407 c 128,-1,16
 229 440 229 440 193.5 470 c 128,-1,17
 158 500 158 500 127 538 c 128,-1,18
 96 576 96 576 75.5 627 c 128,-1,19
 55 678 55 678 55 752 c 0,20,21
 55 805 55 805 68.5 846.5 c 128,-1,22
 82 888 82 888 104.5 916.5 c 128,-1,23
 127 945 127 945 156 960 c 128,-1,24
 185 975 185 975 215 975 c 0,25,26
 249 975 249 975 277 955 c 128,-1,27
 305 935 305 935 322 897 c 1,28,-1
 322 952 l 1,29,-1
 422 952 l 1,30,-1
 422 631 l 1,31,-1
 315 631 l 1,32,-1
 315 711 l 2,33,34
 315 755 315 755 309.5 785 c 128,-1,35
 304 815 304 815 295 833.5 c 128,-1,36
 286 852 286 852 273.5 860 c 128,-1,37
 261 868 261 868 246 868 c 0,38,39
 233 868 233 868 220.5 862.5 c 128,-1,40
 208 857 208 857 198 844 c 128,-1,41
 188 831 188 831 182 809.5 c 128,-1,42
 176 788 176 788 176 756 c 0,43,44
 176 695 176 695 196.5 655 c 128,-1,45
 217 615 217 615 248 583 c 128,-1,46
 279 551 279 551 314.5 521.5 c 128,-1,47
 350 492 350 492 381 453.5 c 128,-1,48
 412 415 412 415 432.5 361 c 128,-1,49
 453 307 453 307 453 227 c 0,50,51
 453 159 453 159 436 112.5 c 128,-1,52
 419 66 419 66 393.5 37.5 c 128,-1,53
 368 9 368 9 338 -3.5 c 128,-1,54
 308 -16 308 -16 283 -16 c 0,55,56
 235 -16 235 -16 204 5.5 c 128,-1,57
 173 27 173 27 150 66 c 1,58,-1
 150 0 l 1,59,-1
 49 0 l 1,0,-1
EndSplineSet
EndChar

StartChar: t
Encoding: 116 116 46
Width: 420
Flags: W
LayerCount: 2
Fore
SplineSet
295 94 m 0,0,1
 324 94 324 94 345 108 c 128,-1,2
 366 122 366 122 385 139 c 1,3,-1
 440 43 l 1,4,5
 429 33 429 33 413.5 21 c 128,-1,6
 398 9 398 9 377.5 -1 c 128,-1,7
 357 -11 357 -11 332 -18 c 128,-1,8
 307 -25 307 -25 279 -25 c 0,9,10
 197 -25 197 -25 149.5 30.5 c 128,-1,11
 102 86 102 86 102 199 c 2,12,-1
 102 840 l 1,13,-1
 -12 840 l 1,14,-1
 -12 952 l 1,15,-1
 102 952 l 1,16,-1
 102 1241 l 1,17,-1
 227 1241 l 1,18,-1
 227 952 l 1,19,-1
 393 952 l 1,20,-1
 393 840 l 1,21,-1
 227 840 l 1,22,-1
 227 199 l 2,23,24
 227 145 227 145 244 119.5 c 128,-1,25
 261 94 261 94 295 94 c 0,0,1
EndSplineSet
EndChar

StartChar: u
Encoding: 117 117 47
Width: 637
Flags: W
LayerCount: 2
Fore
SplineSet
612 0 m 1,0,-1
 406 0 l 1,1,-1
 406 109 l 1,2,3
 391 67 391 67 373.5 40.5 c 128,-1,4
 356 14 356 14 336.5 -1 c 128,-1,5
 317 -16 317 -16 295.5 -21.5 c 128,-1,6
 274 -27 274 -27 252 -27 c 0,7,8
 223 -27 223 -27 196 -16 c 128,-1,9
 169 -5 169 -5 148 22 c 128,-1,10
 127 49 127 49 114.5 94.5 c 128,-1,11
 102 140 102 140 102 209 c 2,12,-1
 102 840 l 1,13,-1
 20 840 l 1,14,-1
 20 952 l 1,15,-1
 227 952 l 1,16,-1
 227 272 l 2,17,18
 227 215 227 215 231 179 c 128,-1,19
 235 143 235 143 242.5 122.5 c 128,-1,20
 250 102 250 102 261 94 c 128,-1,21
 272 86 272 86 285 86 c 0,22,23
 307 86 307 86 327 108 c 128,-1,24
 347 130 347 130 363.5 164.5 c 128,-1,25
 380 199 380 199 391 242.5 c 128,-1,26
 402 286 402 286 406 328 c 1,27,-1
 406 840 l 1,28,-1
 303 840 l 1,29,-1
 303 952 l 1,30,-1
 530 952 l 1,31,-1
 530 113 l 1,32,-1
 612 113 l 1,33,-1
 612 0 l 1,0,-1
EndSplineSet
EndChar

StartChar: v
Encoding: 118 118 48
Width: 586
Flags: W
LayerCount: 2
Fore
SplineSet
0 952 m 1,0,-1
 258 952 l 1,1,-1
 258 840 l 1,2,-1
 193 840 l 1,3,-1
 293 182 l 1,4,-1
 393 840 l 1,5,-1
 328 840 l 1,6,-1
 328 952 l 1,7,-1
 586 952 l 1,8,-1
 586 840 l 1,9,-1
 520 840 l 1,10,-1
 358 0 l 1,11,-1
 225 0 l 1,12,-1
 66 840 l 1,13,-1
 0 840 l 1,14,-1
 0 952 l 1,0,-1
EndSplineSet
EndChar

StartChar: w
Encoding: 119 119 49
Width: 885
Flags: W
LayerCount: 2
Fore
SplineSet
342 0 m 1,0,-1
 215 0 l 1,1,-1
 70 840 l 1,2,-1
 4 840 l 1,3,-1
 4 952 l 1,4,-1
 260 952 l 1,5,-1
 260 840 l 1,6,-1
 195 840 l 1,7,-1
 283 225 l 1,8,-1
 397 952 l 1,9,-1
 492 952 l 1,10,-1
 606 225 l 1,11,-1
 694 840 l 1,12,-1
 629 840 l 1,13,-1
 629 952 l 1,14,-1
 885 952 l 1,15,-1
 885 840 l 1,16,-1
 819 840 l 1,17,-1
 674 0 l 1,18,-1
 547 0 l 1,19,-1
 444 653 l 1,20,-1
 342 0 l 1,0,-1
EndSplineSet
EndChar

StartChar: x
Encoding: 120 120 50
Width: 524
Flags: W
LayerCount: 2
Fore
SplineSet
319 487 m 1,0,-1
 451 113 l 1,1,-1
 512 113 l 1,2,-1
 512 0 l 1,3,-1
 285 0 l 1,4,-1
 285 113 l 1,5,-1
 336 113 l 1,6,-1
 262 344 l 1,7,-1
 188 113 l 1,8,-1
 240 113 l 1,9,-1
 240 0 l 1,10,-1
 12 0 l 1,11,-1
 12 113 l 1,12,-1
 74 113 l 1,13,-1
 205 487 l 1,14,-1
 82 840 l 1,15,-1
 20 840 l 1,16,-1
 20 952 l 1,17,-1
 244 952 l 1,18,-1
 244 840 l 1,19,-1
 197 840 l 1,20,-1
 262 631 l 1,21,-1
 328 840 l 1,22,-1
 281 840 l 1,23,-1
 281 952 l 1,24,-1
 504 952 l 1,25,-1
 504 840 l 1,26,-1
 442 840 l 1,27,-1
 319 487 l 1,0,-1
EndSplineSet
EndChar

StartChar: y
Encoding: 121 121 51
Width: 586
Flags: W
LayerCount: 2
Fore
SplineSet
96 -414 m 0,0,1
 67 -414 67 -414 43.5 -407 c 128,-1,2
 20 -400 20 -400 1.5 -390 c 128,-1,3
 -17 -380 -17 -380 -32 -368 c 128,-1,4
 -47 -356 -47 -356 -57 -346 c 1,5,-1
 -2 -250 l 1,6,7
 17 -267 17 -267 37.5 -283 c 128,-1,8
 58 -299 58 -299 86 -299 c 0,9,10
 117 -299 117 -299 138.5 -280.5 c 128,-1,11
 160 -262 160 -262 176.5 -223 c 128,-1,12
 193 -184 193 -184 206.5 -124 c 128,-1,13
 220 -64 220 -64 236 18 c 1,14,-1
 66 840 l 1,15,-1
 0 840 l 1,16,-1
 0 952 l 1,17,-1
 258 952 l 1,18,-1
 258 840 l 1,19,-1
 193 840 l 1,20,-1
 295 246 l 1,21,-1
 393 840 l 1,22,-1
 328 840 l 1,23,-1
 328 952 l 1,24,-1
 586 952 l 1,25,-1
 586 840 l 1,26,-1
 520 840 l 1,27,-1
 362 70 l 2,28,29
 343 -23 343 -23 323 -110.5 c 128,-1,30
 303 -198 303 -198 274 -265.5 c 128,-1,31
 245 -333 245 -333 202.5 -373.5 c 128,-1,32
 160 -414 160 -414 96 -414 c 0,0,1
EndSplineSet
EndChar

StartChar: z
Encoding: 122 122 52
Width: 516
Flags: W
LayerCount: 2
Fore
SplineSet
55 952 m 1,0,-1
 461 952 l 1,1,-1
 461 854 l 1,2,-1
 176 117 l 1,3,-1
 360 117 l 1,4,-1
 360 330 l 1,5,-1
 467 330 l 1,6,-1
 467 0 l 1,7,-1
 45 0 l 1,8,-1
 45 102 l 1,9,-1
 328 836 l 1,10,-1
 162 836 l 1,11,-1
 162 651 l 1,12,-1
 55 651 l 1,13,-1
 55 952 l 1,0,-1
EndSplineSet
EndChar

StartChar: fi
Encoding: 64257 64257 53
Width: 713
Flags: W
LayerCount: 2
Fore
SplineSet
238 113 m 1,0,-1
 348 113 l 1,1,-1
 348 0 l 1,2,-1
 31 0 l 1,3,-1
 31 113 l 1,4,-1
 113 113 l 1,5,-1
 113 840 l 1,6,-1
 31 840 l 1,7,-1
 31 952 l 1,8,-1
 113 952 l 1,9,-1
 113 1061 l 2,10,11
 113 1142 113 1142 134 1204 c 128,-1,12
 155 1266 155 1266 191 1308.5 c 128,-1,13
 227 1351 227 1351 276 1373 c 128,-1,14
 325 1395 325 1395 381 1395 c 0,15,16
 415 1395 415 1395 442.5 1387 c 128,-1,17
 470 1379 470 1379 492 1367.5 c 128,-1,18
 514 1356 514 1356 530.5 1343 c 128,-1,19
 547 1330 547 1330 559 1319 c 1,20,-1
 514 1221 l 1,21,22
 494 1244 494 1244 464 1265 c 128,-1,23
 434 1286 434 1286 397 1286 c 0,24,25
 363 1286 363 1286 334 1272 c 128,-1,26
 305 1258 305 1258 283.5 1230 c 128,-1,27
 262 1202 262 1202 250 1160.5 c 128,-1,28
 238 1119 238 1119 238 1065 c 2,29,-1
 238 952 l 1,30,-1
 600 952 l 1,31,-1
 600 113 l 1,32,-1
 700 113 l 1,33,-1
 700 0 l 1,34,-1
 393 0 l 1,35,-1
 393 113 l 1,36,-1
 475 113 l 1,37,-1
 475 840 l 1,38,-1
 238 840 l 1,39,-1
 238 113 l 1,0,-1
EndSplineSet
Ligature2: "'liga' Standard Ligatures in Latin lookup 2 subtable" f i
EndChar

StartChar: fl
Encoding: 64258 64258 54
Width: 733
Flags: W
LayerCount: 2
Fore
SplineSet
31 952 m 1,0,-1
 113 952 l 1,1,-1
 113 1061 l 2,2,3
 113 1142 113 1142 133 1204 c 128,-1,4
 153 1266 153 1266 188.5 1308.5 c 128,-1,5
 224 1351 224 1351 272.5 1373 c 128,-1,6
 321 1395 321 1395 377 1395 c 0,7,8
 405 1395 405 1395 430.5 1389 c 128,-1,9
 456 1383 456 1383 477 1374 c 1,10,-1
 600 1374 l 1,11,-1
 600 221 l 2,12,13
 600 183 600 183 606 161.5 c 128,-1,14
 612 140 612 140 624 129.5 c 128,-1,15
 636 119 636 119 654.5 116 c 128,-1,16
 673 113 673 113 698 113 c 2,17,-1
 725 113 l 1,18,-1
 725 0 l 1,19,-1
 700 0 l 2,20,21
 643 0 643 0 601 10 c 128,-1,22
 559 20 559 20 531 46.5 c 128,-1,23
 503 73 503 73 489 118 c 128,-1,24
 475 163 475 163 475 233 c 2,25,-1
 475 1257 l 1,26,27
 460 1268 460 1268 441 1277 c 128,-1,28
 422 1286 422 1286 397 1286 c 0,29,30
 363 1286 363 1286 334 1272 c 128,-1,31
 305 1258 305 1258 283.5 1230 c 128,-1,32
 262 1202 262 1202 250 1160.5 c 128,-1,33
 238 1119 238 1119 238 1065 c 2,34,-1
 238 952 l 1,35,-1
 387 952 l 1,36,-1
 387 840 l 1,37,-1
 238 840 l 1,38,-1
 238 113 l 1,39,-1
 360 113 l 1,40,-1
 360 0 l 1,41,-1
 31 0 l 1,42,-1
 31 113 l 1,43,-1
 113 113 l 1,44,-1
 113 840 l 1,45,-1
 31 840 l 1,46,-1
 31 952 l 1,0,-1
EndSplineSet
Ligature2: "'liga' Standard Ligatures in Latin lookup 2 subtable" f l
EndChar

StartChar: germandbls
Encoding: 223 223 55
Width: 625
Flags: W
LayerCount: 2
Fore
SplineSet
113 1069 m 2,0,1
 113 1233 113 1233 169 1314 c 128,-1,2
 225 1395 225 1395 332 1395 c 0,3,4
 368 1395 368 1395 404.5 1377.5 c 128,-1,5
 441 1360 441 1360 470.5 1323.5 c 128,-1,6
 500 1287 500 1287 518.5 1230 c 128,-1,7
 537 1173 537 1173 537 1094 c 0,8,9
 537 1043 537 1043 530 996.5 c 128,-1,10
 523 950 523 950 506.5 911.5 c 128,-1,11
 490 873 490 873 463 843.5 c 128,-1,12
 436 814 436 814 395 797 c 1,13,14
 483 777 483 777 531.5 675.5 c 128,-1,15
 580 574 580 574 580 397 c 0,16,17
 580 285 580 285 565 204.5 c 128,-1,18
 550 124 550 124 524 72.5 c 128,-1,19
 498 21 498 21 463 -3 c 128,-1,20
 428 -27 428 -27 387 -27 c 0,21,22
 352 -27 352 -27 322.5 -16 c 128,-1,23
 293 -5 293 -5 262 12 c 1,24,-1
 303 109 l 1,25,26
 314 101 314 101 330 90.5 c 128,-1,27
 346 80 346 80 369 80 c 0,28,29
 390 80 390 80 406 98 c 128,-1,30
 422 116 422 116 433 154 c 128,-1,31
 444 192 444 192 449.5 252.5 c 128,-1,32
 455 313 455 313 455 397 c 0,33,34
 455 466 455 466 447.5 525.5 c 128,-1,35
 440 585 440 585 421 629 c 128,-1,36
 402 673 402 673 369 699 c 128,-1,37
 336 725 336 725 285 727 c 1,38,-1
 285 834 l 1,39,40
 324 834 324 834 349 852 c 128,-1,41
 374 870 374 870 388.5 904 c 128,-1,42
 403 938 403 938 408.5 986 c 128,-1,43
 414 1034 414 1034 414 1094 c 0,44,45
 414 1135 414 1135 409 1170.5 c 128,-1,46
 404 1206 404 1206 393.5 1231.5 c 128,-1,47
 383 1257 383 1257 367 1271.5 c 128,-1,48
 351 1286 351 1286 328 1286 c 0,49,50
 283 1286 283 1286 260.5 1236.5 c 128,-1,51
 238 1187 238 1187 238 1067 c 2,52,-1
 238 0 l 1,53,-1
 31 0 l 1,54,-1
 31 113 l 1,55,-1
 113 113 l 1,56,-1
 113 1069 l 2,0,1
EndSplineSet
EndChar

StartChar: AE
Encoding: 198 198 68
Width: 1061
Flags: W
LayerCount: 2
Fore
SplineSet
879 963 m 1,0,-1
 879 1262 l 1,1,-1
 641 1262 l 1,2,-1
 641 782 l 1,3,-1
 862 782 l 1,4,-1
 862 670 l 1,5,-1
 641 670 l 1,6,-1
 641 113 l 1,7,-1
 893 113 l 1,8,-1
 893 432 l 1,9,-1
 1001 432 l 1,10,-1
 1001 0 l 1,11,-1
 383 0 l 1,12,-1
 383 113 l 1,13,-1
 506 113 l 1,14,-1
 506 467 l 1,15,-1
 293 467 l 1,16,-1
 217 113 l 1,17,-1
 319 113 l 1,18,-1
 319 0 l 1,19,-1
 20 0 l 1,20,-1
 20 113 l 1,21,-1
 94 113 l 1,22,-1
 344 1262 l 1,23,-1
 225 1262 l 1,24,-1
 225 1374 l 1,25,-1
 987 1374 l 1,26,-1
 987 963 l 1,27,-1
 879 963 l 1,0,-1
461 1262 m 1,28,-1
 315 573 l 1,29,-1
 506 573 l 1,30,-1
 506 1262 l 1,31,-1
 461 1262 l 1,28,-1
EndSplineSet
EndChar

StartChar: ae
Encoding: 230 230 69
Width: 819
Flags: W
LayerCount: 2
Fore
SplineSet
569 82 m 0,0,1
 598 82 598 82 617 100.5 c 128,-1,2
 636 119 636 119 648.5 146.5 c 128,-1,3
 661 174 661 174 668 205.5 c 128,-1,4
 675 237 675 237 680 264 c 1,5,-1
 778 264 l 1,6,7
 770 202 770 202 753.5 148.5 c 128,-1,8
 737 95 737 95 710 56 c 128,-1,9
 683 17 683 17 646.5 -5 c 128,-1,10
 610 -27 610 -27 563 -27 c 0,11,12
 445 -27 445 -27 383 119 c 1,13,14
 360 77 360 77 337.5 48.5 c 128,-1,15
 315 20 315 20 292.5 3.5 c 128,-1,16
 270 -13 270 -13 247.5 -20 c 128,-1,17
 225 -27 225 -27 201 -27 c 0,18,19
 167 -27 167 -27 137.5 -9 c 128,-1,20
 108 9 108 9 86 44.5 c 128,-1,21
 64 80 64 80 51.5 132.5 c 128,-1,22
 39 185 39 185 39 254 c 0,23,24
 39 352 39 352 61.5 414.5 c 128,-1,25
 84 477 84 477 124 514.5 c 128,-1,26
 164 552 164 552 217 569.5 c 128,-1,27
 270 587 270 587 332 596 c 1,28,-1
 332 688 l 2,29,30
 332 748 332 748 326 784 c 128,-1,31
 320 820 320 820 310.5 839.5 c 128,-1,32
 301 859 301 859 288.5 865.5 c 128,-1,33
 276 872 276 872 264 872 c 0,34,35
 232 872 232 872 211.5 836.5 c 128,-1,36
 191 801 191 801 186 723 c 1,37,-1
 74 743 l 1,38,39
 80 815 80 815 100.5 860.5 c 128,-1,40
 121 906 121 906 148 932.5 c 128,-1,41
 175 959 175 959 205.5 969 c 128,-1,42
 236 979 236 979 262 979 c 0,43,44
 313 979 313 979 350 948 c 128,-1,45
 387 917 387 917 412 864 c 1,46,47
 436 917 436 917 476.5 945 c 128,-1,48
 517 973 517 973 555 973 c 0,49,50
 660 973 660 973 718 836 c 128,-1,51
 776 699 776 699 776 438 c 2,52,-1
 776 416 l 1,53,-1
 457 416 l 1,54,55
 460 252 460 252 484.5 167 c 128,-1,56
 509 82 509 82 569 82 c 0,0,1
229 80 m 0,57,58
 245 80 245 80 262 96 c 128,-1,59
 279 112 279 112 295 137.5 c 128,-1,60
 311 163 311 163 323.5 194 c 128,-1,61
 336 225 336 225 344 256 c 1,62,63
 340 278 340 278 337.5 302 c 128,-1,64
 335 326 335 326 333 355 c 128,-1,65
 331 384 331 384 330 419.5 c 128,-1,66
 329 455 329 455 328 500 c 1,67,68
 275 495 275 495 242.5 478.5 c 128,-1,69
 210 462 210 462 192 432.5 c 128,-1,70
 174 403 174 403 168 360 c 128,-1,71
 162 317 162 317 162 260 c 0,72,73
 162 172 162 172 180 126 c 128,-1,74
 198 80 198 80 229 80 c 0,57,58
647 520 m 1,75,76
 646 587 646 587 640.5 649 c 128,-1,77
 635 711 635 711 623.5 758.5 c 128,-1,78
 612 806 612 806 594.5 834 c 128,-1,79
 577 862 577 862 553 862 c 0,80,81
 530 862 530 862 513 834 c 128,-1,82
 496 806 496 806 484 758.5 c 128,-1,83
 472 711 472 711 465 649 c 128,-1,84
 458 587 458 587 457 520 c 1,85,-1
 647 520 l 1,75,76
EndSplineSet
EndChar

StartChar: Aogonek
Encoding: 260 260 76
Width: 776
Flags: W
LayerCount: 2
Fore
SplineSet
487 467 m 1,0,-1
 285 467 l 1,1,-1
 236 113 l 1,2,-1
 344 113 l 1,3,-1
 344 0 l 1,4,-1
 20 0 l 1,5,-1
 20 113 l 1,6,-1
 115 113 l 1,7,-1
 299 1262 l 1,8,-1
 164 1262 l 1,9,-1
 164 1374 l 1,10,-1
 457 1374 l 1,11,-1
 664 113 l 1,12,-1
 756 113 l 1,13,-1
 756 0 l 1,14,-1
 670 0 l 1,15,16
 635 -43 635 -43 610.5 -91 c 128,-1,17
 586 -139 586 -139 586 -201 c 0,18,19
 586 -233 586 -233 601 -249.5 c 128,-1,20
 616 -266 616 -266 641 -266 c 0,21,22
 660 -266 660 -266 674 -258 c 128,-1,23
 688 -250 688 -250 700 -238 c 1,24,-1
 733 -319 l 1,25,26
 707 -335 707 -335 676 -345.5 c 128,-1,27
 645 -356 645 -356 610 -356 c 0,28,29
 545 -356 545 -356 511 -321.5 c 128,-1,30
 477 -287 477 -287 477 -219 c 0,31,32
 477 -192 477 -192 484.5 -163.5 c 128,-1,33
 492 -135 492 -135 504.5 -106.5 c 128,-1,34
 517 -78 517 -78 534.5 -51 c 128,-1,35
 552 -24 552 -24 573 0 c 1,36,-1
 432 0 l 1,37,-1
 432 113 l 1,38,-1
 541 113 l 1,39,-1
 487 467 l 1,0,-1
299 573 m 1,40,-1
 471 573 l 1,41,-1
 383 1171 l 1,42,-1
 299 573 l 1,40,-1
EndSplineSet
EndChar

StartChar: aogonek
Encoding: 261 261 77
Width: 555
Flags: W
LayerCount: 2
Fore
SplineSet
74 743 m 1,0,1
 80 815 80 815 98 860.5 c 128,-1,2
 116 906 116 906 141.5 932.5 c 128,-1,3
 167 959 167 959 199 969 c 128,-1,4
 231 979 231 979 266 979 c 0,5,6
 305 979 305 979 339 966.5 c 128,-1,7
 373 954 373 954 398.5 921.5 c 128,-1,8
 424 889 424 889 438.5 832 c 128,-1,9
 453 775 453 775 453 686 c 2,10,-1
 453 113 l 1,11,-1
 535 113 l 1,12,-1
 535 0 l 1,13,14
 493 -28 493 -28 465.5 -54 c 128,-1,15
 438 -80 438 -80 421.5 -104.5 c 128,-1,16
 405 -129 405 -129 398 -153 c 128,-1,17
 391 -177 391 -177 391 -201 c 0,18,19
 391 -233 391 -233 406.5 -249.5 c 128,-1,20
 422 -266 422 -266 446 -266 c 0,21,22
 465 -266 465 -266 479 -258 c 128,-1,23
 493 -250 493 -250 506 -238 c 1,24,-1
 539 -319 l 1,25,26
 513 -335 513 -335 482 -344.5 c 128,-1,27
 451 -354 451 -354 416 -354 c 0,28,29
 391 -354 391 -354 367 -346 c 128,-1,30
 343 -338 343 -338 324.5 -321.5 c 128,-1,31
 306 -305 306 -305 294.5 -279 c 128,-1,32
 283 -253 283 -253 283 -217 c 0,33,34
 283 -190 283 -190 292.5 -160.5 c 128,-1,35
 302 -131 302 -131 319.5 -102.5 c 128,-1,36
 337 -74 337 -74 362 -47.5 c 128,-1,37
 387 -21 387 -21 418 0 c 1,38,-1
 328 0 l 1,39,-1
 328 66 l 1,40,41
 299 19 299 19 269 -4 c 128,-1,42
 239 -27 239 -27 190 -27 c 0,43,44
 160 -27 160 -27 133 -9 c 128,-1,45
 106 9 106 9 85 44.5 c 128,-1,46
 64 80 64 80 51.5 132.5 c 128,-1,47
 39 185 39 185 39 254 c 0,48,49
 39 352 39 352 61 414.5 c 128,-1,50
 83 477 83 477 122 514.5 c 128,-1,51
 161 552 161 552 213.5 569.5 c 128,-1,52
 266 587 266 587 328 596 c 1,53,-1
 328 688 l 2,54,55
 328 748 328 748 322.5 784 c 128,-1,56
 317 820 317 820 308 839.5 c 128,-1,57
 299 859 299 859 287.5 865.5 c 128,-1,58
 276 872 276 872 264 872 c 0,59,60
 232 872 232 872 215 836.5 c 128,-1,61
 198 801 198 801 193 723 c 1,62,-1
 74 743 l 1,0,1
328 500 m 1,63,64
 275 495 275 495 242.5 478.5 c 128,-1,65
 210 462 210 462 192 432.5 c 128,-1,66
 174 403 174 403 168 360 c 128,-1,67
 162 317 162 317 162 260 c 0,68,69
 162 172 162 172 180 126 c 128,-1,70
 198 80 198 80 229 80 c 0,71,72
 242 80 242 80 256.5 90 c 128,-1,73
 271 100 271 100 284.5 117 c 128,-1,74
 298 134 298 134 309.5 157.5 c 128,-1,75
 321 181 321 181 328 207 c 1,76,-1
 328 500 l 1,63,64
EndSplineSet
EndChar

StartChar: Ccedilla
Encoding: 199 199 78
Width: 745
Flags: W
LayerCount: 2
Fore
SplineSet
731 352 m 1,0,1
 696 184 696 184 623.5 86 c 128,-1,2
 551 -12 551 -12 438 -25 c 1,3,-1
 422 -98 l 1,4,5
 443 -98 443 -98 468 -105 c 128,-1,6
 493 -112 493 -112 515 -128.5 c 128,-1,7
 537 -145 537 -145 552 -172.5 c 128,-1,8
 567 -200 567 -200 567 -242 c 0,9,10
 567 -287 567 -287 550.5 -317.5 c 128,-1,11
 534 -348 534 -348 507.5 -366.5 c 128,-1,12
 481 -385 481 -385 448.5 -393 c 128,-1,13
 416 -401 416 -401 385 -401 c 0,14,15
 322 -401 322 -401 277 -384.5 c 128,-1,16
 232 -368 232 -368 207 -354 c 1,17,-1
 256 -266 l 1,18,19
 279 -285 279 -285 309 -298 c 128,-1,20
 339 -311 339 -311 373 -311 c 0,21,22
 416 -311 416 -311 440.5 -292 c 128,-1,23
 465 -273 465 -273 465 -242 c 0,24,25
 465 -223 465 -223 457 -210 c 128,-1,26
 449 -197 449 -197 435.5 -189.5 c 128,-1,27
 422 -182 422 -182 405.5 -179 c 128,-1,28
 389 -176 389 -176 371 -176 c 0,29,30
 341 -176 341 -176 313 -182 c 1,31,-1
 352 -20 l 1,32,33
 284 -7 284 -7 229.5 42.5 c 128,-1,34
 175 92 175 92 136 179 c 128,-1,35
 97 266 97 266 76 392.5 c 128,-1,36
 55 519 55 519 55 686 c 0,37,38
 55 863 55 863 83 997 c 128,-1,39
 111 1131 111 1131 158 1220 c 128,-1,40
 205 1309 205 1309 267 1354 c 128,-1,41
 329 1399 329 1399 397 1399 c 0,42,43
 462 1399 462 1399 504.5 1370.5 c 128,-1,44
 547 1342 547 1342 578 1300 c 1,45,-1
 578 1374 l 1,46,-1
 686 1374 l 1,47,-1
 686 901 l 1,48,-1
 578 901 l 1,49,-1
 578 1038 l 2,50,51
 578 1098 578 1098 564.5 1144 c 128,-1,52
 551 1190 551 1190 528 1221.5 c 128,-1,53
 505 1253 505 1253 474.5 1269.5 c 128,-1,54
 444 1286 444 1286 410 1286 c 0,55,56
 353 1286 353 1286 312 1244 c 128,-1,57
 271 1202 271 1202 244.5 1124 c 128,-1,58
 218 1046 218 1046 205.5 935 c 128,-1,59
 193 824 193 824 193 686 c 256,60,61
 193 548 193 548 203.5 437.5 c 128,-1,62
 214 327 214 327 240.5 249.5 c 128,-1,63
 267 172 267 172 310.5 130 c 128,-1,64
 354 88 354 88 420 88 c 0,65,66
 465 88 465 88 497 114 c 128,-1,67
 529 140 529 140 552 179.5 c 128,-1,68
 575 219 575 219 590 265 c 128,-1,69
 605 311 605 311 616 352 c 1,70,-1
 731 352 l 1,71,-1
 731 352 l 1,0,1
EndSplineSet
EndChar

StartChar: ccedilla
Encoding: 231 231 79
Width: 543
Flags: W
LayerCount: 2
Fore
SplineSet
387 604 m 1,0,-1
 387 676 l 2,1,2
 387 737 387 737 377.5 775.5 c 128,-1,3
 368 814 368 814 354 835.5 c 128,-1,4
 340 857 340 857 323.5 864.5 c 128,-1,5
 307 872 307 872 293 872 c 0,6,7
 262 872 262 872 239.5 844.5 c 128,-1,8
 217 817 217 817 202.5 765.5 c 128,-1,9
 188 714 188 714 181 641 c 128,-1,10
 174 568 174 568 174 477 c 0,11,12
 174 385 174 385 180 312 c 128,-1,13
 186 239 186 239 200.5 188 c 128,-1,14
 215 137 215 137 237.5 109.5 c 128,-1,15
 260 82 260 82 293 82 c 0,16,17
 322 82 322 82 342 100.5 c 128,-1,18
 362 119 362 119 375 146.5 c 128,-1,19
 388 174 388 174 396 205.5 c 128,-1,20
 404 237 404 237 410 264 c 1,21,-1
 508 264 l 1,22,23
 501 208 501 208 486 159.5 c 128,-1,24
 471 111 471 111 448 73.5 c 128,-1,25
 425 36 425 36 394.5 11 c 128,-1,26
 364 -14 364 -14 326 -23 c 1,27,-1
 307 -98 l 1,28,29
 328 -98 328 -98 353 -105 c 128,-1,30
 378 -112 378 -112 400.5 -128.5 c 128,-1,31
 423 -145 423 -145 438 -172.5 c 128,-1,32
 453 -200 453 -200 453 -242 c 0,33,34
 453 -287 453 -287 436 -317.5 c 128,-1,35
 419 -348 419 -348 393 -366.5 c 128,-1,36
 367 -385 367 -385 334 -393 c 128,-1,37
 301 -401 301 -401 270 -401 c 0,38,39
 207 -401 207 -401 162 -384.5 c 128,-1,40
 117 -368 117 -368 92 -354 c 1,41,-1
 141 -266 l 1,42,43
 164 -285 164 -285 194 -298 c 128,-1,44
 224 -311 224 -311 258 -311 c 0,45,46
 301 -311 301 -311 325.5 -292 c 128,-1,47
 350 -273 350 -273 350 -242 c 0,48,49
 350 -223 350 -223 342 -210 c 128,-1,50
 334 -197 334 -197 320.5 -189.5 c 128,-1,51
 307 -182 307 -182 290.5 -179 c 128,-1,52
 274 -176 274 -176 256 -176 c 0,53,54
 226 -176 226 -176 199 -182 c 1,55,-1
 238 -18 l 1,56,57
 147 9 147 9 95 133 c 128,-1,58
 43 257 43 257 43 475 c 0,59,60
 43 597 43 597 62 691 c 128,-1,61
 81 785 81 785 113.5 848.5 c 128,-1,62
 146 912 146 912 188.5 944.5 c 128,-1,63
 231 977 231 977 279 977 c 0,64,65
 300 977 300 977 317 970 c 128,-1,66
 334 963 334 963 347.5 952 c 128,-1,67
 361 941 361 941 371 927 c 128,-1,68
 381 913 381 913 387 899 c 1,69,-1
 387 952 l 1,70,-1
 492 952 l 1,71,-1
 492 604 l 1,72,-1
 387 604 l 1,0,-1
EndSplineSet
EndChar

StartChar: Eth
Encoding: 208 208 90
Width: 803
Flags: W
LayerCount: 2
Fore
SplineSet
25 1374 m 1,0,-1
 410 1374 l 2,1,2
 485 1374 485 1374 547 1341 c 128,-1,3
 609 1308 609 1308 654 1228.5 c 128,-1,4
 699 1149 699 1149 723.5 1017 c 128,-1,5
 748 885 748 885 748 688 c 0,6,7
 748 490 748 490 723.5 357.5 c 128,-1,8
 699 225 699 225 654.5 145.5 c 128,-1,9
 610 66 610 66 548 33 c 128,-1,10
 486 0 486 0 410 0 c 2,11,-1
 25 0 l 1,12,-1
 25 113 l 1,13,-1
 147 113 l 1,14,-1
 147 643 l 1,15,-1
 25 643 l 1,16,-1
 25 752 l 1,17,-1
 147 752 l 1,18,-1
 147 1262 l 1,19,-1
 25 1262 l 1,20,-1
 25 1374 l 1,0,-1
272 643 m 1,21,-1
 272 113 l 1,22,-1
 414 113 l 2,23,24
 462 113 462 113 500 140 c 128,-1,25
 538 167 538 167 564.5 232.5 c 128,-1,26
 591 298 591 298 604.5 409 c 128,-1,27
 618 520 618 520 618 688 c 256,28,29
 618 856 618 856 604.5 967 c 128,-1,30
 591 1078 591 1078 564.5 1143.5 c 128,-1,31
 538 1209 538 1209 500 1235.5 c 128,-1,32
 462 1262 462 1262 414 1262 c 2,33,-1
 272 1262 l 1,34,-1
 272 752 l 1,35,-1
 451 752 l 1,36,-1
 451 643 l 1,37,-1
 272 643 l 1,21,-1
EndSplineSet
EndChar

StartChar: eth
Encoding: 240 240 91
Width: 575
Flags: W
LayerCount: 2
Fore
SplineSet
391 1223 m 1,0,1
 460 1098 460 1098 496 917.5 c 128,-1,2
 532 737 532 737 532 496 c 0,3,4
 532 358 532 358 513.5 259 c 128,-1,5
 495 160 495 160 462 96.5 c 128,-1,6
 429 33 429 33 384.5 3 c 128,-1,7
 340 -27 340 -27 289 -27 c 0,8,9
 237 -27 237 -27 192 0 c 128,-1,10
 147 27 147 27 114 85.5 c 128,-1,11
 81 144 81 144 62 236 c 128,-1,12
 43 328 43 328 43 459 c 0,13,14
 43 589 43 589 62 682.5 c 128,-1,15
 81 776 81 776 114.5 836 c 128,-1,16
 148 896 148 896 193 924 c 128,-1,17
 238 952 238 952 289 952 c 0,18,19
 329 952 329 952 367 934 c 1,20,21
 351 1000 351 1000 333 1056.5 c 128,-1,22
 315 1113 315 1113 293 1159 c 1,23,-1
 174 1083 l 1,24,-1
 121 1169 l 1,25,-1
 244 1247 l 1,26,27
 209 1298 209 1298 176 1329 c 1,28,-1
 238 1407 l 1,29,30
 264 1385 264 1385 289 1361.5 c 128,-1,31
 314 1338 314 1338 336 1309 c 1,32,-1
 465 1391 l 1,33,-1
 520 1307 l 1,34,-1
 391 1223 l 1,0,1
410 496 m 0,35,36
 410 573 410 573 405.5 642 c 128,-1,37
 401 711 401 711 393 774 c 1,38,39
 373 806 373 806 342.5 826 c 128,-1,40
 312 846 312 846 289 846 c 0,41,42
 227 846 227 846 196.5 749 c 128,-1,43
 166 652 166 652 166 459 c 256,44,45
 166 266 166 266 196.5 173 c 128,-1,46
 227 80 227 80 289 80 c 0,47,48
 410 80 410 80 410 496 c 0,35,36
EndSplineSet
EndChar

StartChar: Dcroat
Encoding: 272 272 92
Width: 803
Flags: W
LayerCount: 2
Fore
SplineSet
25 1374 m 1,0,-1
 410 1374 l 2,1,2
 485 1374 485 1374 547 1341 c 128,-1,3
 609 1308 609 1308 654 1228.5 c 128,-1,4
 699 1149 699 1149 723.5 1017 c 128,-1,5
 748 885 748 885 748 688 c 0,6,7
 748 490 748 490 723.5 357.5 c 128,-1,8
 699 225 699 225 654.5 145.5 c 128,-1,9
 610 66 610 66 548 33 c 128,-1,10
 486 0 486 0 410 0 c 2,11,-1
 25 0 l 1,12,-1
 25 113 l 1,13,-1
 147 113 l 1,14,-1
 147 643 l 1,15,-1
 25 643 l 1,16,-1
 25 752 l 1,17,-1
 147 752 l 1,18,-1
 147 1262 l 1,19,-1
 25 1262 l 1,20,-1
 25 1374 l 1,0,-1
272 643 m 1,21,-1
 272 113 l 1,22,-1
 414 113 l 2,23,24
 462 113 462 113 500 140 c 128,-1,25
 538 167 538 167 564.5 232.5 c 128,-1,26
 591 298 591 298 604.5 409 c 128,-1,27
 618 520 618 520 618 688 c 256,28,29
 618 856 618 856 604.5 967 c 128,-1,30
 591 1078 591 1078 564.5 1143.5 c 128,-1,31
 538 1209 538 1209 500 1235.5 c 128,-1,32
 462 1262 462 1262 414 1262 c 2,33,-1
 272 1262 l 1,34,-1
 272 752 l 1,35,-1
 451 752 l 1,36,-1
 451 643 l 1,37,-1
 272 643 l 1,21,-1
EndSplineSet
EndChar

StartChar: dcroat
Encoding: 273 273 93
Width: 602
Flags: W
LayerCount: 2
Fore
SplineSet
584 0 m 1,0,-1
 377 0 l 1,1,-1
 377 63 l 1,2,3
 348 20 348 20 317 -3.5 c 128,-1,4
 286 -27 286 -27 242 -27 c 0,5,6
 201 -27 201 -27 165 -3 c 128,-1,7
 129 21 129 21 102 79.5 c 128,-1,8
 75 138 75 138 59 236.5 c 128,-1,9
 43 335 43 335 43 483 c 0,10,11
 43 609 43 609 59 702 c 128,-1,12
 75 795 75 795 102.5 856.5 c 128,-1,13
 130 918 130 918 167.5 948.5 c 128,-1,14
 205 979 205 979 248 979 c 0,15,16
 288 979 288 979 319.5 957 c 128,-1,17
 351 935 351 935 377 881 c 1,18,-1
 377 1067 l 1,19,-1
 223 1067 l 1,20,-1
 223 1176 l 1,21,-1
 377 1176 l 1,22,-1
 377 1262 l 1,23,-1
 289 1262 l 1,24,-1
 289 1374 l 1,25,-1
 502 1374 l 1,26,-1
 502 1176 l 1,27,-1
 588 1176 l 1,28,-1
 588 1067 l 1,29,-1
 502 1067 l 1,30,-1
 502 113 l 1,31,-1
 584 113 l 1,32,-1
 584 0 l 1,0,-1
272 80 m 0,33,34
 306 80 306 80 333 117.5 c 128,-1,35
 360 155 360 155 377 221 c 1,36,-1
 377 688 l 1,37,38
 371 718 371 718 360.5 750.5 c 128,-1,39
 350 783 350 783 337 810 c 128,-1,40
 324 837 324 837 308 854.5 c 128,-1,41
 292 872 292 872 274 872 c 0,42,43
 251 872 251 872 231.5 846 c 128,-1,44
 212 820 212 820 197.5 770.5 c 128,-1,45
 183 721 183 721 174.5 648.5 c 128,-1,46
 166 576 166 576 166 483 c 0,47,48
 166 288 166 288 193 184 c 128,-1,49
 220 80 220 80 272 80 c 0,33,34
EndSplineSet
EndChar

StartChar: Eogonek
Encoding: 280 280 108
Width: 702
Flags: W
LayerCount: 2
Fore
SplineSet
520 963 m 1,0,-1
 520 1262 l 1,1,-1
 283 1262 l 1,2,-1
 283 782 l 1,3,-1
 504 782 l 1,4,-1
 504 670 l 1,5,-1
 283 670 l 1,6,-1
 283 113 l 1,7,-1
 535 113 l 1,8,-1
 535 432 l 1,9,-1
 643 432 l 1,10,-1
 643 0 l 1,11,12
 566 -42 566 -42 531 -90.5 c 128,-1,13
 496 -139 496 -139 496 -201 c 0,14,15
 496 -233 496 -233 511 -249.5 c 128,-1,16
 526 -266 526 -266 551 -266 c 0,17,18
 569 -266 569 -266 583.5 -258 c 128,-1,19
 598 -250 598 -250 610 -238 c 1,20,-1
 643 -319 l 1,21,22
 617 -336 617 -336 585 -346 c 128,-1,23
 553 -356 553 -356 522 -356 c 0,24,25
 453 -356 453 -356 420 -318.5 c 128,-1,26
 387 -281 387 -281 387 -219 c 0,27,28
 387 -188 387 -188 397 -156.5 c 128,-1,29
 407 -125 407 -125 424.5 -96 c 128,-1,30
 442 -67 442 -67 465.5 -42.5 c 128,-1,31
 489 -18 489 -18 516 0 c 1,32,-1
 25 0 l 1,33,-1
 25 113 l 1,34,-1
 147 113 l 1,35,-1
 147 1262 l 1,36,-1
 25 1262 l 1,37,-1
 25 1374 l 1,38,-1
 629 1374 l 1,39,-1
 629 963 l 1,40,-1
 520 963 l 1,0,-1
EndSplineSet
EndChar

StartChar: eogonek
Encoding: 281 281 109
Width: 535
Flags: W
LayerCount: 2
Fore
SplineSet
285 82 m 0,0,1
 314 82 314 82 333 100.5 c 128,-1,2
 352 119 352 119 364 146.5 c 128,-1,3
 376 174 376 174 383 205.5 c 128,-1,4
 390 237 390 237 395 264 c 1,5,-1
 494 264 l 1,6,7
 488 224 488 224 480.5 190.5 c 128,-1,8
 473 157 473 157 461.5 128 c 128,-1,9
 450 99 450 99 434.5 73 c 128,-1,10
 419 47 419 47 397 23 c 1,11,12
 366 -13 366 -13 348 -61 c 128,-1,13
 330 -109 330 -109 330 -160 c 0,14,15
 330 -192 330 -192 345 -208.5 c 128,-1,16
 360 -225 360 -225 385 -225 c 0,17,18
 404 -225 404 -225 418 -217 c 128,-1,19
 432 -209 432 -209 444 -197 c 1,20,-1
 477 -279 l 1,21,22
 451 -294 451 -294 420 -304.5 c 128,-1,23
 389 -315 389 -315 354 -315 c 0,24,25
 289 -315 289 -315 255 -278 c 128,-1,26
 221 -241 221 -241 221 -178 c 0,27,28
 221 -133 221 -133 239 -96 c 128,-1,29
 257 -59 257 -59 279 -27 c 1,30,31
 223 -27 223 -27 179.5 6 c 128,-1,32
 136 39 136 39 105.5 102.5 c 128,-1,33
 75 166 75 166 59 258.5 c 128,-1,34
 43 351 43 351 43 471 c 0,35,36
 43 586 43 586 59.5 679 c 128,-1,37
 76 772 76 772 106 837 c 128,-1,38
 136 902 136 902 177.5 937.5 c 128,-1,39
 219 973 219 973 270 973 c 0,40,41
 376 973 376 973 434 836 c 128,-1,42
 492 699 492 699 492 438 c 2,43,-1
 492 416 l 1,44,-1
 172 416 l 1,45,46
 175 252 175 252 200 167 c 128,-1,47
 225 82 225 82 285 82 c 0,0,1
362 520 m 1,48,49
 361 587 361 587 355.5 649 c 128,-1,50
 350 711 350 711 339 758.5 c 128,-1,51
 328 806 328 806 310.5 834 c 128,-1,52
 293 862 293 862 268 862 c 0,53,54
 245 862 245 862 228 834 c 128,-1,55
 211 806 211 806 199 758.5 c 128,-1,56
 187 711 187 711 180 649 c 128,-1,57
 173 587 173 587 172 520 c 1,58,-1
 362 520 l 1,48,49
EndSplineSet
EndChar

StartChar: gcommaaccent
Encoding: 291 291 119
Width: 604
Flags: W
LayerCount: 2
Fore
SplineSet
502 10 m 2,0,1
 502 -80 502 -80 490 -157.5 c 128,-1,2
 478 -235 478 -235 449.5 -292 c 128,-1,3
 421 -349 421 -349 372 -381.5 c 128,-1,4
 323 -414 323 -414 250 -414 c 0,5,6
 216 -414 216 -414 188 -406 c 128,-1,7
 160 -398 160 -398 137 -385.5 c 128,-1,8
 114 -373 114 -373 95 -358 c 128,-1,9
 76 -343 76 -343 61 -328 c 1,10,-1
 121 -233 l 1,11,12
 131 -243 131 -243 143.5 -255.5 c 128,-1,13
 156 -268 156 -268 171.5 -278.5 c 128,-1,14
 187 -289 187 -289 205 -296 c 128,-1,15
 223 -303 223 -303 244 -303 c 0,16,17
 285 -303 285 -303 311 -282 c 128,-1,18
 337 -261 337 -261 351.5 -221 c 128,-1,19
 366 -181 366 -181 371.5 -123.5 c 128,-1,20
 377 -66 377 -66 377 8 c 2,21,-1
 377 66 l 1,22,23
 354 24 354 24 326.5 -1.5 c 128,-1,24
 299 -27 299 -27 252 -27 c 0,25,26
 210 -27 210 -27 172.5 -3 c 128,-1,27
 135 21 135 21 106 79.5 c 128,-1,28
 77 138 77 138 60 236.5 c 128,-1,29
 43 335 43 335 43 483 c 0,30,31
 43 609 43 609 58 702 c 128,-1,32
 73 795 73 795 100 856.5 c 128,-1,33
 127 918 127 918 165 948.5 c 128,-1,34
 203 979 203 979 248 979 c 0,35,36
 288 979 288 979 321 951 c 128,-1,37
 354 923 354 923 377 881 c 1,38,-1
 377 952 l 1,39,-1
 584 952 l 1,40,-1
 584 840 l 1,41,-1
 502 840 l 1,42,-1
 502 10 l 2,0,1
272 80 m 0,43,44
 306 80 306 80 333 118.5 c 128,-1,45
 360 157 360 157 377 223 c 1,46,-1
 377 688 l 1,47,48
 369 723 369 723 358.5 756.5 c 128,-1,49
 348 790 348 790 335 815.5 c 128,-1,50
 322 841 322 841 307 856.5 c 128,-1,51
 292 872 292 872 276 872 c 0,52,53
 227 872 227 872 196.5 770.5 c 128,-1,54
 166 669 166 669 166 483 c 0,55,56
 166 288 166 288 193 184 c 128,-1,57
 220 80 220 80 272 80 c 0,43,44
367 1161 m 0,58,59
 367 1129 367 1129 344 1108 c 128,-1,60
 321 1087 321 1087 289 1087 c 0,61,62
 252 1087 252 1087 228.5 1112 c 128,-1,63
 205 1137 205 1137 205 1176 c 0,64,65
 205 1234 205 1234 228 1275.5 c 128,-1,66
 251 1317 251 1317 293 1354 c 1,67,-1
 338 1323 l 1,68,69
 326 1311 326 1311 318 1302 c 128,-1,70
 310 1293 310 1293 304 1284 c 128,-1,71
 298 1275 298 1275 293.5 1264 c 128,-1,72
 289 1253 289 1253 285 1235 c 1,73,74
 308 1235 308 1235 323.5 1228.5 c 128,-1,75
 339 1222 339 1222 349 1211.5 c 128,-1,76
 359 1201 359 1201 363 1188 c 128,-1,77
 367 1175 367 1175 367 1161 c 0,58,59
EndSplineSet
EndChar

StartChar: Hbar
Encoding: 294 294 122
Width: 887
Flags: W
LayerCount: 2
Fore
SplineSet
739 971 m 1,0,-1
 739 113 l 1,1,-1
 862 113 l 1,2,-1
 862 0 l 1,3,-1
 492 0 l 1,4,-1
 492 113 l 1,5,-1
 614 113 l 1,6,-1
 614 666 l 1,7,-1
 272 666 l 1,8,-1
 272 113 l 1,9,-1
 395 113 l 1,10,-1
 395 0 l 1,11,-1
 25 0 l 1,12,-1
 25 113 l 1,13,-1
 147 113 l 1,14,-1
 147 971 l 1,15,-1
 25 971 l 1,16,-1
 25 1075 l 1,17,-1
 147 1075 l 1,18,-1
 147 1262 l 1,19,-1
 25 1262 l 1,20,-1
 25 1374 l 1,21,-1
 395 1374 l 1,22,-1
 395 1262 l 1,23,-1
 272 1262 l 1,24,-1
 272 1075 l 1,25,-1
 614 1075 l 1,26,-1
 614 1262 l 1,27,-1
 492 1262 l 1,28,-1
 492 1374 l 1,29,-1
 862 1374 l 1,30,-1
 862 1262 l 1,31,-1
 739 1262 l 1,32,-1
 739 1075 l 1,33,-1
 862 1075 l 1,34,-1
 862 971 l 1,35,-1
 739 971 l 1,0,-1
614 782 m 1,36,-1
 614 971 l 1,37,-1
 272 971 l 1,38,-1
 272 782 l 1,39,-1
 614 782 l 1,36,-1
EndSplineSet
EndChar

StartChar: hbar
Encoding: 295 295 123
Width: 641
Flags: W
LayerCount: 2
Fore
SplineSet
231 1075 m 1,0,-1
 231 850 l 1,1,2
 267 910 267 910 306.5 944.5 c 128,-1,3
 346 979 346 979 397 979 c 0,4,5
 471 979 471 979 503 914 c 128,-1,6
 535 849 535 849 535 729 c 2,7,-1
 535 113 l 1,8,-1
 616 113 l 1,9,-1
 616 0 l 1,10,-1
 348 0 l 1,11,-1
 348 113 l 1,12,-1
 410 113 l 1,13,-1
 410 690 l 2,14,15
 410 745 410 745 407.5 779 c 128,-1,16
 405 813 405 813 399 832.5 c 128,-1,17
 393 852 393 852 384 859 c 128,-1,18
 375 866 375 866 362 866 c 0,19,20
 343 866 343 866 322.5 846.5 c 128,-1,21
 302 827 302 827 284 796 c 128,-1,22
 266 765 266 765 251.5 726.5 c 128,-1,23
 237 688 237 688 231 649 c 1,24,-1
 231 113 l 1,25,-1
 293 113 l 1,26,-1
 293 0 l 1,27,-1
 25 0 l 1,28,-1
 25 113 l 1,29,-1
 106 113 l 1,30,-1
 106 1075 l 1,31,-1
 25 1075 l 1,32,-1
 25 1180 l 1,33,-1
 106 1180 l 1,34,-1
 106 1262 l 1,35,-1
 25 1262 l 1,36,-1
 25 1374 l 1,37,-1
 231 1374 l 1,38,-1
 231 1180 l 1,39,-1
 369 1180 l 1,40,-1
 369 1075 l 1,41,-1
 231 1075 l 1,0,-1
EndSplineSet
EndChar

StartChar: Iogonek
Encoding: 302 302 138
Width: 420
Flags: W
LayerCount: 2
Fore
SplineSet
25 1374 m 1,0,-1
 395 1374 l 1,1,-1
 395 1262 l 1,2,-1
 272 1262 l 1,3,-1
 272 113 l 1,4,-1
 395 113 l 1,5,-1
 395 0 l 1,6,-1
 270 0 l 1,7,8
 235 -43 235 -43 210.5 -91 c 128,-1,9
 186 -139 186 -139 186 -201 c 0,10,11
 186 -233 186 -233 201.5 -249.5 c 128,-1,12
 217 -266 217 -266 242 -266 c 0,13,14
 260 -266 260 -266 274.5 -258 c 128,-1,15
 289 -250 289 -250 301 -238 c 1,16,-1
 334 -319 l 1,17,18
 308 -335 308 -335 277 -345.5 c 128,-1,19
 246 -356 246 -356 211 -356 c 0,20,21
 146 -356 146 -356 112 -320.5 c 128,-1,22
 78 -285 78 -285 78 -219 c 0,23,24
 78 -192 78 -192 85.5 -163.5 c 128,-1,25
 93 -135 93 -135 105.5 -106.5 c 128,-1,26
 118 -78 118 -78 135.5 -51 c 128,-1,27
 153 -24 153 -24 174 0 c 1,28,-1
 25 0 l 1,29,-1
 25 113 l 1,30,-1
 147 113 l 1,31,-1
 147 1262 l 1,32,-1
 25 1262 l 1,33,-1
 25 1374 l 1,0,-1
EndSplineSet
EndChar

StartChar: iogonek
Encoding: 303 303 139
Width: 350
Flags: W
LayerCount: 2
Fore
SplineSet
31 952 m 1,0,-1
 238 952 l 1,1,-1
 238 113 l 1,2,-1
 338 113 l 1,3,-1
 338 0 l 1,4,-1
 240 0 l 1,5,6
 205 -43 205 -43 180.5 -91 c 128,-1,7
 156 -139 156 -139 156 -201 c 0,8,9
 156 -233 156 -233 171 -249.5 c 128,-1,10
 186 -266 186 -266 211 -266 c 0,11,12
 230 -266 230 -266 244 -258 c 128,-1,13
 258 -250 258 -250 270 -238 c 1,14,-1
 303 -319 l 1,15,16
 277 -335 277 -335 246 -345.5 c 128,-1,17
 215 -356 215 -356 180 -356 c 0,18,19
 115 -356 115 -356 81 -320.5 c 128,-1,20
 47 -285 47 -285 47 -219 c 0,21,22
 47 -192 47 -192 54.5 -163.5 c 128,-1,23
 62 -135 62 -135 74.5 -106.5 c 128,-1,24
 87 -78 87 -78 104.5 -51 c 128,-1,25
 122 -24 122 -24 143 0 c 1,26,-1
 31 0 l 1,27,-1
 31 113 l 1,28,-1
 113 113 l 1,29,-1
 113 840 l 1,30,-1
 31 840 l 1,31,-1
 31 952 l 1,0,-1
66 1221 m 0,32,33
 66 1261 66 1261 92.5 1289 c 128,-1,34
 119 1317 119 1317 160 1317 c 0,35,36
 200 1317 200 1317 228 1289 c 128,-1,37
 256 1261 256 1261 256 1221 c 0,38,39
 256 1180 256 1180 228 1153 c 128,-1,40
 200 1126 200 1126 160 1126 c 0,41,42
 119 1126 119 1126 92.5 1153 c 128,-1,43
 66 1180 66 1180 66 1221 c 0,32,33
EndSplineSet
EndChar

StartChar: dotlessi
Encoding: 305 305 141
Width: 350
Flags: W
LayerCount: 2
Fore
SplineSet
31 952 m 1,0,-1
 238 952 l 1,1,-1
 238 113 l 1,2,-1
 338 113 l 1,3,-1
 338 0 l 1,4,-1
 31 0 l 1,5,-1
 31 113 l 1,6,-1
 113 113 l 1,7,-1
 113 840 l 1,8,-1
 31 840 l 1,9,-1
 31 952 l 1,0,-1
EndSplineSet
EndChar

StartChar: dotlessj
Encoding: 567 567 146
Width: 317
Flags: W
LayerCount: 2
Fore
SplineSet
-74 -250 m 1,0,1
 -55 -267 -55 -267 -34.5 -281 c 128,-1,2
 -14 -295 -14 -295 14 -295 c 0,3,4
 35 -295 35 -295 52 -286 c 128,-1,5
 69 -277 69 -277 81 -255.5 c 128,-1,6
 93 -234 93 -234 99.5 -199 c 128,-1,7
 106 -164 106 -164 106 -113 c 2,8,-1
 106 840 l 1,9,-1
 12 840 l 1,10,-1
 12 952 l 1,11,-1
 231 952 l 1,12,-1
 231 -109 l 2,13,14
 231 -196 231 -196 215 -254.5 c 128,-1,15
 199 -313 199 -313 172 -348.5 c 128,-1,16
 145 -384 145 -384 109 -399 c 128,-1,17
 73 -414 73 -414 33 -414 c 0,18,19
 4 -414 4 -414 -20.5 -407 c 128,-1,20
 -45 -400 -45 -400 -65.5 -390 c 128,-1,21
 -86 -380 -86 -380 -102 -368 c 128,-1,22
 -118 -356 -118 -356 -129 -346 c 1,23,-1
 -74 -250 l 1,24,-1
 -74 -250 l 1,0,1
EndSplineSet
EndChar

StartChar: kgreenlandic
Encoding: 312 312 149
Width: 627
Flags: W
LayerCount: 2
Fore
SplineSet
25 952 m 1,0,-1
 313 952 l 1,1,-1
 313 840 l 1,2,-1
 231 840 l 1,3,-1
 231 600 l 1,4,-1
 416 883 l 1,5,6
 442 925 442 925 473.5 947 c 128,-1,7
 505 969 505 969 547 969 c 0,8,9
 567 969 567 969 586 963 c 128,-1,10
 605 957 605 957 621 946 c 1,11,-1
 584 848 l 1,12,13
 567 856 567 856 553 856 c 0,14,15
 533 856 533 856 516.5 836.5 c 128,-1,16
 500 817 500 817 471 772 c 2,17,-1
 367 612 l 1,18,-1
 553 113 l 1,19,-1
 635 113 l 1,20,-1
 635 0 l 1,21,-1
 358 0 l 1,22,-1
 358 113 l 1,23,-1
 424 113 l 1,24,-1
 285 494 l 1,25,-1
 231 414 l 1,26,-1
 231 113 l 1,27,-1
 313 113 l 1,28,-1
 313 0 l 1,29,-1
 25 0 l 1,30,-1
 25 113 l 1,31,-1
 106 113 l 1,32,-1
 106 840 l 1,33,-1
 25 840 l 1,34,-1
 25 952 l 1,0,-1
EndSplineSet
EndChar

StartChar: Lslash
Encoding: 321 321 158
Width: 674
Flags: W
LayerCount: 2
Fore
SplineSet
272 582 m 1,0,-1
 272 113 l 1,1,-1
 532 113 l 1,2,-1
 532 432 l 1,3,-1
 641 432 l 1,4,-1
 641 0 l 1,5,-1
 25 0 l 1,6,-1
 25 113 l 1,7,-1
 147 113 l 1,8,-1
 147 508 l 1,9,-1
 43 446 l 1,10,-1
 -12 543 l 1,11,-1
 147 637 l 1,12,-1
 147 1262 l 1,13,-1
 25 1262 l 1,14,-1
 25 1374 l 1,15,-1
 403 1374 l 1,16,-1
 403 1262 l 1,17,-1
 272 1262 l 1,18,-1
 272 711 l 1,19,-1
 420 797 l 1,20,-1
 475 700 l 1,21,-1
 272 582 l 1,0,-1
EndSplineSet
EndChar

StartChar: lslash
Encoding: 322 322 159
Width: 344
Flags: W
LayerCount: 2
Fore
SplineSet
211 682 m 1,0,-1
 211 221 l 2,1,2
 211 183 211 183 217 161.5 c 128,-1,3
 223 140 223 140 235 129.5 c 128,-1,4
 247 119 247 119 265.5 116 c 128,-1,5
 284 113 284 113 309 113 c 2,6,-1
 336 113 l 1,7,-1
 336 0 l 1,8,-1
 311 0 l 2,9,10
 254 0 254 0 212 10 c 128,-1,11
 170 20 170 20 142 46.5 c 128,-1,12
 114 73 114 73 100 118 c 128,-1,13
 86 163 86 163 86 233 c 2,14,-1
 86 606 l 1,15,-1
 12 563 l 1,16,-1
 -43 659 l 1,17,-1
 86 735 l 1,18,-1
 86 1262 l 1,19,-1
 4 1262 l 1,20,-1
 4 1374 l 1,21,-1
 211 1374 l 1,22,-1
 211 811 l 1,23,-1
 303 866 l 1,24,-1
 358 770 l 1,25,-1
 211 682 l 1,0,-1
EndSplineSet
EndChar

StartChar: Eng
Encoding: 330 330 169
Width: 868
Flags: W
LayerCount: 2
Fore
SplineSet
606 25 m 1,0,-1
 272 1016 l 1,1,-1
 272 113 l 1,2,-1
 395 113 l 1,3,-1
 395 0 l 1,4,-1
 25 0 l 1,5,-1
 25 113 l 1,6,-1
 147 113 l 1,7,-1
 147 1262 l 1,8,-1
 25 1262 l 1,9,-1
 25 1374 l 1,10,-1
 264 1374 l 1,11,-1
 606 358 l 1,12,-1
 606 1262 l 1,13,-1
 481 1262 l 1,14,-1
 481 1374 l 1,15,-1
 852 1374 l 1,16,-1
 852 1262 l 1,17,-1
 729 1262 l 1,18,-1
 729 -14 l 2,19,20
 729 -122 729 -122 712.5 -196.5 c 128,-1,21
 696 -271 696 -271 665.5 -317.5 c 128,-1,22
 635 -364 635 -364 591.5 -385 c 128,-1,23
 548 -406 548 -406 494 -406 c 0,24,25
 449 -406 449 -406 408.5 -390 c 128,-1,26
 368 -374 368 -374 334 -336 c 1,27,-1
 418 -250 l 1,28,29
 433 -270 433 -270 449.5 -280.5 c 128,-1,30
 466 -291 466 -291 494 -291 c 0,31,32
 529 -291 529 -291 551 -273 c 128,-1,33
 573 -255 573 -255 585 -219 c 128,-1,34
 597 -183 597 -183 601.5 -130 c 128,-1,35
 606 -77 606 -77 606 -8 c 2,36,-1
 606 25 l 1,0,-1
EndSplineSet
EndChar

StartChar: eng
Encoding: 331 331 170
Width: 627
Flags: W
LayerCount: 2
Fore
SplineSet
416 690 m 2,0,1
 416 745 416 745 413.5 779 c 128,-1,2
 411 813 411 813 405.5 832.5 c 128,-1,3
 400 852 400 852 391 859 c 128,-1,4
 382 866 382 866 369 866 c 0,5,6
 349 866 349 866 328.5 846.5 c 128,-1,7
 308 827 308 827 290 796 c 128,-1,8
 272 765 272 765 258 726.5 c 128,-1,9
 244 688 244 688 238 649 c 1,10,-1
 238 113 l 1,11,-1
 299 113 l 1,12,-1
 299 0 l 1,13,-1
 31 0 l 1,14,-1
 31 113 l 1,15,-1
 113 113 l 1,16,-1
 113 840 l 1,17,-1
 31 840 l 1,18,-1
 31 952 l 1,19,-1
 233 952 l 1,20,-1
 233 846 l 1,21,22
 269 906 269 906 310.5 942.5 c 128,-1,23
 352 979 352 979 403 979 c 0,24,25
 477 979 477 979 509 914 c 128,-1,26
 541 849 541 849 541 729 c 2,27,-1
 541 -88 l 2,28,29
 541 -175 541 -175 525 -233.5 c 128,-1,30
 509 -292 509 -292 481.5 -327.5 c 128,-1,31
 454 -363 454 -363 418 -378 c 128,-1,32
 382 -393 382 -393 342 -393 c 0,33,34
 313 -393 313 -393 288.5 -386 c 128,-1,35
 264 -379 264 -379 243.5 -369 c 128,-1,36
 223 -359 223 -359 207 -347.5 c 128,-1,37
 191 -336 191 -336 180 -326 c 1,38,-1
 236 -229 l 1,39,40
 254 -246 254 -246 275 -260 c 128,-1,41
 296 -274 296 -274 324 -274 c 0,42,43
 345 -274 345 -274 362 -265 c 128,-1,44
 379 -256 379 -256 391 -234.5 c 128,-1,45
 403 -213 403 -213 409.5 -178 c 128,-1,46
 416 -143 416 -143 416 -92 c 2,47,-1
 416 690 l 2,0,1
EndSplineSet
EndChar

StartChar: OE
Encoding: 338 338 191
Width: 1092
Flags: W
LayerCount: 2
Fore
SplineSet
537 113 m 1,0,-1
 537 1262 l 1,1,-1
 455 1262 l 2,2,3
 402 1262 402 1262 354.5 1226 c 128,-1,4
 307 1190 307 1190 271 1118 c 128,-1,5
 235 1046 235 1046 214 938 c 128,-1,6
 193 830 193 830 193 686 c 0,7,8
 193 540 193 540 214 432.5 c 128,-1,9
 235 325 235 325 271 254 c 128,-1,10
 307 183 307 183 354.5 148 c 128,-1,11
 402 113 402 113 455 113 c 2,12,-1
 537 113 l 1,0,-1
455 0 m 2,13,14
 380 0 380 0 308.5 38 c 128,-1,15
 237 76 237 76 180.5 158.5 c 128,-1,16
 124 241 124 241 89.5 371 c 128,-1,17
 55 501 55 501 55 686 c 0,18,19
 55 870 55 870 90 1001 c 128,-1,20
 125 1132 125 1132 181.5 1214.5 c 128,-1,21
 238 1297 238 1297 309.5 1335.5 c 128,-1,22
 381 1374 381 1374 455 1374 c 2,23,-1
 1018 1374 l 1,24,-1
 1018 963 l 1,25,-1
 909 963 l 1,26,-1
 909 1262 l 1,27,-1
 672 1262 l 1,28,-1
 672 782 l 1,29,-1
 893 782 l 1,30,-1
 893 670 l 1,31,-1
 672 670 l 1,32,-1
 672 113 l 1,33,-1
 924 113 l 1,34,-1
 924 432 l 1,35,-1
 1032 432 l 1,36,-1
 1032 0 l 1,37,-1
 455 0 l 2,13,14
EndSplineSet
EndChar

StartChar: oe
Encoding: 339 339 192
Width: 895
Flags: W
LayerCount: 2
Fore
SplineSet
645 82 m 0,0,1
 674 82 674 82 693 100.5 c 128,-1,2
 712 119 712 119 724 146.5 c 128,-1,3
 736 174 736 174 743 205.5 c 128,-1,4
 750 237 750 237 756 264 c 1,5,-1
 854 264 l 1,6,7
 846 202 846 202 829.5 148.5 c 128,-1,8
 813 95 813 95 786 56 c 128,-1,9
 759 17 759 17 722.5 -5 c 128,-1,10
 686 -27 686 -27 639 -27 c 0,11,12
 526 -27 526 -27 467 111 c 1,13,14
 435 39 435 39 389.5 6 c 128,-1,15
 344 -27 344 -27 289 -27 c 0,16,17
 237 -27 237 -27 192 2.5 c 128,-1,18
 147 32 147 32 114 93.5 c 128,-1,19
 81 155 81 155 62 249.5 c 128,-1,20
 43 344 43 344 43 475 c 0,21,22
 43 605 43 605 62 700.5 c 128,-1,23
 81 796 81 796 114.5 857.5 c 128,-1,24
 148 919 148 919 193 949 c 128,-1,25
 238 979 238 979 289 979 c 0,26,27
 344 979 344 979 391.5 943.5 c 128,-1,28
 439 908 439 908 471 834 c 1,29,30
 499 900 499 900 538.5 936.5 c 128,-1,31
 578 973 578 973 631 973 c 0,32,33
 736 973 736 973 794 836 c 128,-1,34
 852 699 852 699 852 438 c 2,35,-1
 852 416 l 1,36,-1
 532 416 l 1,37,38
 536 252 536 252 560.5 167 c 128,-1,39
 585 82 585 82 645 82 c 0,0,1
410 475 m 0,40,41
 410 670 410 670 379.5 771 c 128,-1,42
 349 872 349 872 289 872 c 0,43,44
 227 872 227 872 196.5 770 c 128,-1,45
 166 668 166 668 166 475 c 256,46,47
 166 282 166 282 196.5 181 c 128,-1,48
 227 80 227 80 289 80 c 0,49,50
 349 80 349 80 379.5 181 c 128,-1,51
 410 282 410 282 410 475 c 0,40,41
723 520 m 1,52,53
 722 587 722 587 716.5 649 c 128,-1,54
 711 711 711 711 699.5 758.5 c 128,-1,55
 688 806 688 806 670.5 834 c 128,-1,56
 653 862 653 862 629 862 c 0,57,58
 606 862 606 862 588.5 834 c 128,-1,59
 571 806 571 806 559 758.5 c 128,-1,60
 547 711 547 711 540.5 649 c 128,-1,61
 534 587 534 587 532 520 c 1,62,-1
 723 520 l 1,52,53
EndSplineSet
EndChar

StartChar: Thorn
Encoding: 222 222 193
Width: 725
Flags: W
LayerCount: 2
Fore
SplineSet
147 1262 m 1,0,-1
 25 1262 l 1,1,-1
 25 1374 l 1,2,-1
 395 1374 l 1,3,-1
 395 1262 l 1,4,-1
 272 1262 l 1,5,-1
 272 1130 l 1,6,-1
 424 1130 l 2,7,8
 552 1130 552 1130 618 1023 c 128,-1,9
 684 916 684 916 684 709 c 0,10,11
 684 501 684 501 618 393 c 128,-1,12
 552 285 552 285 424 285 c 2,13,-1
 272 285 l 1,14,-1
 272 113 l 1,15,-1
 395 113 l 1,16,-1
 395 0 l 1,17,-1
 25 0 l 1,18,-1
 25 113 l 1,19,-1
 147 113 l 1,20,-1
 147 1262 l 1,0,-1
547 709 m 0,21,22
 547 807 547 807 536 867.5 c 128,-1,23
 525 928 525 928 504 961.5 c 128,-1,24
 483 995 483 995 454 1006.5 c 128,-1,25
 425 1018 425 1018 389 1018 c 2,26,-1
 272 1018 l 1,27,-1
 272 397 l 1,28,-1
 389 397 l 2,29,30
 403 397 403 397 420 397 c 128,-1,31
 437 397 437 397 454.5 403.5 c 128,-1,32
 472 410 472 410 488.5 427.5 c 128,-1,33
 505 445 505 445 518 479.5 c 128,-1,34
 531 514 531 514 539 569.5 c 128,-1,35
 547 625 547 625 547 709 c 0,21,22
EndSplineSet
EndChar

StartChar: thorn
Encoding: 254 254 194
Width: 590
Flags: W
LayerCount: 2
Fore
SplineSet
211 188 m 1,0,1
 228 142 228 142 251.5 111 c 128,-1,2
 275 80 275 80 307 80 c 0,3,4
 355 80 355 80 388.5 181.5 c 128,-1,5
 422 283 422 283 422 475 c 0,6,7
 422 670 422 670 397 771 c 128,-1,8
 372 872 372 872 319 872 c 0,9,10
 302 872 302 872 285 855.5 c 128,-1,11
 268 839 268 839 253.5 812.5 c 128,-1,12
 239 786 239 786 227.5 753 c 128,-1,13
 216 720 216 720 211 686 c 1,14,-1
 211 188 l 1,0,1
211 877 m 1,15,16
 240 934 240 934 272 956.5 c 128,-1,17
 304 979 304 979 346 979 c 0,18,19
 380 979 380 979 415.5 953.5 c 128,-1,20
 451 928 451 928 480 869 c 128,-1,21
 509 810 509 810 527 713.5 c 128,-1,22
 545 617 545 617 545 475 c 0,23,24
 545 344 545 344 528.5 249.5 c 128,-1,25
 512 155 512 155 483.5 93.5 c 128,-1,26
 455 32 455 32 417.5 2.5 c 128,-1,27
 380 -27 380 -27 338 -27 c 0,28,29
 304 -27 304 -27 272 -10.5 c 128,-1,30
 240 6 240 6 211 51 c 1,31,-1
 211 -281 l 1,32,-1
 313 -281 l 1,33,-1
 313 -393 l 1,34,-1
 4 -393 l 1,35,-1
 4 -281 l 1,36,-1
 86 -281 l 1,37,-1
 86 1262 l 1,38,-1
 4 1262 l 1,39,-1
 4 1374 l 1,40,-1
 211 1374 l 1,41,-1
 211 877 l 1,15,16
EndSplineSet
EndChar

StartChar: Scedilla
Encoding: 350 350 205
Width: 666
Flags: W
LayerCount: 2
Fore
SplineSet
49 0 m 1,0,-1
 49 453 l 1,1,-1
 158 453 l 1,2,-1
 158 291 l 2,3,4
 158 230 158 230 173.5 190 c 128,-1,5
 189 150 189 150 212.5 126 c 128,-1,6
 236 102 236 102 263.5 92 c 128,-1,7
 291 82 291 82 315 82 c 0,8,9
 349 82 349 82 380 96 c 128,-1,10
 411 110 411 110 435 140.5 c 128,-1,11
 459 171 459 171 473 220 c 128,-1,12
 487 269 487 269 487 340 c 0,13,14
 487 408 487 408 469 457.5 c 128,-1,15
 451 507 451 507 421 544.5 c 128,-1,16
 391 582 391 582 353 611 c 128,-1,17
 315 640 315 640 275 669.5 c 128,-1,18
 235 699 235 699 197 731 c 128,-1,19
 159 763 159 763 129 806.5 c 128,-1,20
 99 850 99 850 81 908.5 c 128,-1,21
 63 967 63 967 63 1047 c 0,22,23
 63 1144 63 1144 86 1211 c 128,-1,24
 109 1278 109 1278 145 1320 c 128,-1,25
 181 1362 181 1362 224.5 1380.5 c 128,-1,26
 268 1399 268 1399 309 1399 c 0,27,28
 330 1399 330 1399 352.5 1394 c 128,-1,29
 375 1389 375 1389 396.5 1379 c 128,-1,30
 418 1369 418 1369 437 1353.5 c 128,-1,31
 456 1338 456 1338 471 1317 c 1,32,-1
 471 1374 l 1,33,-1
 580 1374 l 1,34,-1
 580 963 l 1,35,-1
 471 963 l 1,36,-1
 471 1116 l 2,37,38
 471 1167 471 1167 457.5 1200.5 c 128,-1,39
 444 1234 444 1234 424.5 1254 c 128,-1,40
 405 1274 405 1274 383 1282 c 128,-1,41
 361 1290 361 1290 344 1290 c 0,42,43
 313 1290 313 1290 285.5 1276 c 128,-1,44
 258 1262 258 1262 237.5 1232.5 c 128,-1,45
 217 1203 217 1203 205 1158 c 128,-1,46
 193 1113 193 1113 193 1051 c 256,47,48
 193 989 193 989 211.5 943.5 c 128,-1,49
 230 898 230 898 259.5 862.5 c 128,-1,50
 289 827 289 827 327.5 797 c 128,-1,51
 366 767 366 767 405.5 737 c 128,-1,52
 445 707 445 707 483.5 672.5 c 128,-1,53
 522 638 522 638 551.5 593 c 128,-1,54
 581 548 581 548 599.5 488.5 c 128,-1,55
 618 429 618 429 618 348 c 0,56,57
 618 276 618 276 607.5 221 c 128,-1,58
 597 166 597 166 578.5 125 c 128,-1,59
 560 84 560 84 536 56.5 c 128,-1,60
 512 29 512 29 485 11.5 c 128,-1,61
 458 -6 458 -6 429.5 -14.5 c 128,-1,62
 401 -23 401 -23 375 -25 c 1,63,-1
 358 -98 l 1,64,65
 379 -98 379 -98 404.5 -105 c 128,-1,66
 430 -112 430 -112 452 -128.5 c 128,-1,67
 474 -145 474 -145 489 -172.5 c 128,-1,68
 504 -200 504 -200 504 -242 c 0,69,70
 504 -287 504 -287 487.5 -317.5 c 128,-1,71
 471 -348 471 -348 444.5 -366.5 c 128,-1,72
 418 -385 418 -385 385.5 -393 c 128,-1,73
 353 -401 353 -401 322 -401 c 0,74,75
 259 -401 259 -401 213.5 -384.5 c 128,-1,76
 168 -368 168 -368 143 -354 c 1,77,-1
 193 -266 l 1,78,79
 216 -285 216 -285 245.5 -298 c 128,-1,80
 275 -311 275 -311 309 -311 c 0,81,82
 353 -311 353 -311 377 -292 c 128,-1,83
 401 -273 401 -273 401 -242 c 0,84,85
 401 -223 401 -223 393 -210 c 128,-1,86
 385 -197 385 -197 371.5 -189.5 c 128,-1,87
 358 -182 358 -182 341.5 -179 c 128,-1,88
 325 -176 325 -176 307 -176 c 0,89,90
 277 -176 277 -176 250 -182 c 1,91,-1
 289 -18 l 1,92,93
 210 0 210 0 158 70 c 1,94,-1
 158 0 l 1,95,-1
 49 0 l 1,0,-1
EndSplineSet
EndChar

StartChar: scedilla
Encoding: 351 351 206
Width: 502
Flags: W
LayerCount: 2
Fore
SplineSet
49 0 m 1,0,-1
 49 350 l 1,1,-1
 156 350 l 1,2,-1
 156 266 l 2,3,4
 156 214 156 214 164.5 180 c 128,-1,5
 173 146 173 146 186 126 c 128,-1,6
 199 106 199 106 215.5 98 c 128,-1,7
 232 90 232 90 248 90 c 0,8,9
 263 90 263 90 278 96 c 128,-1,10
 293 102 293 102 305 118 c 128,-1,11
 317 134 317 134 324.5 161.5 c 128,-1,12
 332 189 332 189 332 233 c 0,13,14
 332 292 332 292 311.5 333 c 128,-1,15
 291 374 291 374 260 407 c 128,-1,16
 229 440 229 440 193.5 470 c 128,-1,17
 158 500 158 500 127 538 c 128,-1,18
 96 576 96 576 75.5 627 c 128,-1,19
 55 678 55 678 55 752 c 0,20,21
 55 805 55 805 68.5 846.5 c 128,-1,22
 82 888 82 888 104.5 916.5 c 128,-1,23
 127 945 127 945 156 960 c 128,-1,24
 185 975 185 975 215 975 c 0,25,26
 249 975 249 975 277 955 c 128,-1,27
 305 935 305 935 322 897 c 1,28,-1
 322 952 l 1,29,-1
 422 952 l 1,30,-1
 422 631 l 1,31,-1
 315 631 l 1,32,-1
 315 711 l 2,33,34
 315 755 315 755 309.5 785 c 128,-1,35
 304 815 304 815 295 833.5 c 128,-1,36
 286 852 286 852 273.5 860 c 128,-1,37
 261 868 261 868 246 868 c 0,38,39
 233 868 233 868 220.5 862.5 c 128,-1,40
 208 857 208 857 198 844 c 128,-1,41
 188 831 188 831 182 809.5 c 128,-1,42
 176 788 176 788 176 756 c 0,43,44
 176 695 176 695 196.5 655 c 128,-1,45
 217 615 217 615 248 583 c 128,-1,46
 279 551 279 551 314.5 521.5 c 128,-1,47
 350 492 350 492 381 453.5 c 128,-1,48
 412 415 412 415 432.5 361 c 128,-1,49
 453 307 453 307 453 227 c 0,50,51
 453 162 453 162 437 116.5 c 128,-1,52
 421 71 421 71 397 42.5 c 128,-1,53
 373 14 373 14 344.5 0 c 128,-1,54
 316 -14 316 -14 291 -16 c 1,55,-1
 272 -98 l 1,56,57
 293 -98 293 -98 318.5 -105 c 128,-1,58
 344 -112 344 -112 366 -128.5 c 128,-1,59
 388 -145 388 -145 403 -172.5 c 128,-1,60
 418 -200 418 -200 418 -242 c 0,61,62
 418 -287 418 -287 401 -317.5 c 128,-1,63
 384 -348 384 -348 358 -366.5 c 128,-1,64
 332 -385 332 -385 299.5 -393 c 128,-1,65
 267 -401 267 -401 236 -401 c 0,66,67
 173 -401 173 -401 127.5 -384.5 c 128,-1,68
 82 -368 82 -368 57 -354 c 1,69,-1
 106 -266 l 1,70,71
 129 -285 129 -285 159 -298 c 128,-1,72
 189 -311 189 -311 223 -311 c 0,73,74
 267 -311 267 -311 291 -292 c 128,-1,75
 315 -273 315 -273 315 -242 c 0,76,77
 315 -223 315 -223 307 -210 c 128,-1,78
 299 -197 299 -197 285.5 -189.5 c 128,-1,79
 272 -182 272 -182 255.5 -179 c 128,-1,80
 239 -176 239 -176 221 -176 c 0,81,82
 191 -176 191 -176 164 -182 c 1,83,-1
 209 2 l 1,84,85
 190 13 190 13 176 28.5 c 128,-1,86
 162 44 162 44 150 66 c 1,87,-1
 150 0 l 1,88,-1
 49 0 l 1,0,-1
EndSplineSet
EndChar

StartChar: Tbar
Encoding: 358 358 213
Width: 756
Flags: W
LayerCount: 2
Fore
SplineSet
440 686 m 1,0,-1
 440 113 l 1,1,-1
 584 113 l 1,2,-1
 584 0 l 1,3,-1
 172 0 l 1,4,-1
 172 113 l 1,5,-1
 315 113 l 1,6,-1
 315 686 l 1,7,-1
 117 686 l 1,8,-1
 117 791 l 1,9,-1
 315 791 l 1,10,-1
 315 1264 l 1,11,-1
 150 1264 l 1,12,-1
 150 942 l 1,13,-1
 41 942 l 1,14,-1
 41 1374 l 1,15,-1
 715 1374 l 1,16,-1
 715 942 l 1,17,-1
 606 942 l 1,18,-1
 606 1264 l 1,19,-1
 440 1264 l 1,20,-1
 440 791 l 1,21,-1
 637 791 l 1,22,-1
 637 686 l 1,23,-1
 440 686 l 1,0,-1
EndSplineSet
EndChar

StartChar: tbar
Encoding: 359 359 214
Width: 420
Flags: W
LayerCount: 2
Fore
SplineSet
227 557 m 1,0,-1
 227 199 l 2,1,2
 227 145 227 145 244 119.5 c 128,-1,3
 261 94 261 94 295 94 c 0,4,5
 324 94 324 94 345 108 c 128,-1,6
 366 122 366 122 385 139 c 1,7,-1
 440 43 l 1,8,9
 429 33 429 33 413.5 21 c 128,-1,10
 398 9 398 9 377.5 -1 c 128,-1,11
 357 -11 357 -11 332 -18 c 128,-1,12
 307 -25 307 -25 279 -25 c 0,13,14
 197 -25 197 -25 149.5 30.5 c 128,-1,15
 102 86 102 86 102 199 c 2,16,-1
 102 557 l 1,17,-1
 8 557 l 1,18,-1
 8 662 l 1,19,-1
 102 662 l 1,20,-1
 102 840 l 1,21,-1
 -12 840 l 1,22,-1
 -12 952 l 1,23,-1
 102 952 l 1,24,-1
 102 1241 l 1,25,-1
 227 1241 l 1,26,-1
 227 952 l 1,27,-1
 393 952 l 1,28,-1
 393 840 l 1,29,-1
 227 840 l 1,30,-1
 227 662 l 1,31,-1
 381 662 l 1,32,-1
 381 557 l 1,33,-1
 227 557 l 1,0,-1
EndSplineSet
EndChar

StartChar: Uogonek
Encoding: 370 370 233
Width: 821
Flags: W
LayerCount: 2
Fore
SplineSet
10 1374 m 1,0,-1
 381 1374 l 1,1,-1
 381 1262 l 1,2,-1
 258 1262 l 1,3,-1
 258 381 l 2,4,5
 258 312 258 312 262 257 c 128,-1,6
 266 202 266 202 281 163.5 c 128,-1,7
 296 125 296 125 327 104.5 c 128,-1,8
 358 84 358 84 412 84 c 256,9,10
 466 84 466 84 496 104.5 c 128,-1,11
 526 125 526 125 541 163.5 c 128,-1,12
 556 202 556 202 559.5 257 c 128,-1,13
 563 312 563 312 563 381 c 2,14,-1
 563 1262 l 1,15,-1
 440 1262 l 1,16,-1
 440 1374 l 1,17,-1
 811 1374 l 1,18,-1
 811 1262 l 1,19,-1
 688 1262 l 1,20,-1
 688 365 l 2,21,22
 688 266 688 266 676 195 c 128,-1,23
 664 124 664 124 636.5 77 c 128,-1,24
 609 30 609 30 565 5.5 c 128,-1,25
 521 -19 521 -19 457 -25 c 1,26,27
 428 -63 428 -63 409.5 -105.5 c 128,-1,28
 391 -148 391 -148 391 -201 c 0,29,30
 391 -233 391 -233 406.5 -249.5 c 128,-1,31
 422 -266 422 -266 446 -266 c 0,32,33
 465 -266 465 -266 479 -258 c 128,-1,34
 493 -250 493 -250 506 -238 c 1,35,-1
 539 -319 l 1,36,37
 513 -335 513 -335 482 -345.5 c 128,-1,38
 451 -356 451 -356 416 -356 c 0,39,40
 351 -356 351 -356 317 -321.5 c 128,-1,41
 283 -287 283 -287 283 -219 c 0,42,43
 283 -171 283 -171 304.5 -121 c 128,-1,44
 326 -71 326 -71 360 -25 c 1,45,46
 298 -18 298 -18 255 7 c 128,-1,47
 212 32 212 32 185 78.5 c 128,-1,48
 158 125 158 125 145.5 195.5 c 128,-1,49
 133 266 133 266 133 365 c 2,50,-1
 133 1262 l 1,51,-1
 10 1262 l 1,52,-1
 10 1374 l 1,0,-1
EndSplineSet
EndChar

StartChar: uogonek
Encoding: 371 371 234
Width: 637
Flags: W
LayerCount: 2
Fore
SplineSet
612 0 m 1,0,1
 584 -23 584 -23 558.5 -46 c 128,-1,2
 533 -69 533 -69 513.5 -94 c 128,-1,3
 494 -119 494 -119 482.5 -145.5 c 128,-1,4
 471 -172 471 -172 471 -201 c 0,5,6
 471 -233 471 -233 486.5 -249.5 c 128,-1,7
 502 -266 502 -266 526 -266 c 0,8,9
 545 -266 545 -266 559 -258 c 128,-1,10
 573 -250 573 -250 586 -238 c 1,11,-1
 618 -319 l 1,12,13
 592 -335 592 -335 561.5 -345.5 c 128,-1,14
 531 -356 531 -356 496 -356 c 0,15,16
 431 -356 431 -356 396.5 -321.5 c 128,-1,17
 362 -287 362 -287 362 -219 c 0,18,19
 362 -191 362 -191 373 -160.5 c 128,-1,20
 384 -130 384 -130 403.5 -101 c 128,-1,21
 423 -72 423 -72 450.5 -45.5 c 128,-1,22
 478 -19 478 -19 510 0 c 1,23,-1
 406 0 l 1,24,-1
 406 109 l 1,25,26
 391 67 391 67 373.5 40.5 c 128,-1,27
 356 14 356 14 336.5 -1 c 128,-1,28
 317 -16 317 -16 295.5 -21.5 c 128,-1,29
 274 -27 274 -27 252 -27 c 0,30,31
 223 -27 223 -27 196 -16 c 128,-1,32
 169 -5 169 -5 148 22 c 128,-1,33
 127 49 127 49 114.5 94.5 c 128,-1,34
 102 140 102 140 102 209 c 2,35,-1
 102 840 l 1,36,-1
 20 840 l 1,37,-1
 20 952 l 1,38,-1
 227 952 l 1,39,-1
 227 272 l 2,40,41
 227 215 227 215 231 179 c 128,-1,42
 235 143 235 143 242.5 122.5 c 128,-1,43
 250 102 250 102 261 94 c 128,-1,44
 272 86 272 86 285 86 c 0,45,46
 307 86 307 86 327 108 c 128,-1,47
 347 130 347 130 363.5 164.5 c 128,-1,48
 380 199 380 199 391 242.5 c 128,-1,49
 402 286 402 286 406 328 c 1,50,-1
 406 840 l 1,51,-1
 303 840 l 1,52,-1
 303 952 l 1,53,-1
 530 952 l 1,54,-1
 530 113 l 1,55,-1
 612 113 l 1,56,-1
 612 0 l 1,0,1
EndSplineSet
EndChar

StartChar: zero
Encoding: 48 48 257
Width: 682
Flags: W
LayerCount: 2
Fore
SplineSet
633 686 m 0,0,1
 633 498 633 498 611 363 c 128,-1,2
 589 228 589 228 550 141.5 c 128,-1,3
 511 55 511 55 457.5 14 c 128,-1,4
 404 -27 404 -27 342 -27 c 0,5,6
 279 -27 279 -27 225.5 14 c 128,-1,7
 172 55 172 55 132.5 141.5 c 128,-1,8
 93 228 93 228 71 363 c 128,-1,9
 49 498 49 498 49 686 c 0,10,11
 49 873 49 873 71 1008 c 128,-1,12
 93 1143 93 1143 132.5 1230 c 128,-1,13
 172 1317 172 1317 225.5 1358 c 128,-1,14
 279 1399 279 1399 342 1399 c 0,15,16
 404 1399 404 1399 457.5 1358 c 128,-1,17
 511 1317 511 1317 550 1230 c 128,-1,18
 589 1143 589 1143 611 1008 c 128,-1,19
 633 873 633 873 633 686 c 0,0,1
506 686 m 256,20,21
 506 847 506 847 493.5 961.5 c 128,-1,22
 481 1076 481 1076 459 1149 c 128,-1,23
 437 1222 437 1222 407 1256 c 128,-1,24
 377 1290 377 1290 342 1290 c 256,25,26
 307 1290 307 1290 276.5 1256 c 128,-1,27
 246 1222 246 1222 223.5 1149 c 128,-1,28
 201 1076 201 1076 188.5 961.5 c 128,-1,29
 176 847 176 847 176 686 c 256,30,31
 176 525 176 525 188.5 410.5 c 128,-1,32
 201 296 201 296 223.5 223 c 128,-1,33
 246 150 246 150 276.5 116 c 128,-1,34
 307 82 307 82 342 82 c 256,35,36
 377 82 377 82 407 116 c 128,-1,37
 437 150 437 150 459 223.5 c 128,-1,38
 481 297 481 297 493.5 411 c 128,-1,39
 506 525 506 525 506 686 c 256,20,21
EndSplineSet
EndChar

StartChar: one
Encoding: 49 49 258
Width: 467
Flags: W
LayerCount: 2
Fore
SplineSet
47 113 m 1,0,-1
 180 113 l 1,1,-1
 180 1264 l 1,2,-1
 16 1161 l 1,3,-1
 16 1272 l 1,4,-1
 180 1374 l 1,5,-1
 303 1374 l 1,6,-1
 303 113 l 1,7,-1
 436 113 l 1,8,-1
 436 0 l 1,9,-1
 47 0 l 1,10,-1
 47 113 l 1,0,-1
EndSplineSet
Substitution2: "'sups' Superscript in Latin lookup 1 subtable" onesuperior
Substitution2: "'aalt' Access All Alternates in Latin lookup 0 subtable" onesuperior
EndChar

StartChar: two
Encoding: 50 50 259
Width: 602
Flags: W
LayerCount: 2
Fore
SplineSet
20 0 m 1,0,-1
 20 84 l 1,1,2
 110 211 110 211 181.5 327.5 c 128,-1,3
 253 444 253 444 303 558 c 128,-1,4
 353 672 353 672 379.5 789 c 128,-1,5
 406 906 406 906 406 1034 c 0,6,7
 406 1084 406 1084 399.5 1130 c 128,-1,8
 393 1176 393 1176 379 1211.5 c 128,-1,9
 365 1247 365 1247 341 1268.5 c 128,-1,10
 317 1290 317 1290 283 1290 c 0,11,12
 220 1290 220 1290 188 1202 c 128,-1,13
 156 1114 156 1114 156 924 c 1,14,-1
 29 924 l 1,15,16
 29 1054 29 1054 50 1144.5 c 128,-1,17
 71 1235 71 1235 105.5 1291.5 c 128,-1,18
 140 1348 140 1348 185.5 1373.5 c 128,-1,19
 231 1399 231 1399 279 1399 c 0,20,21
 341 1399 341 1399 388 1371 c 128,-1,22
 435 1343 435 1343 467 1293 c 128,-1,23
 499 1243 499 1243 515.5 1174 c 128,-1,24
 532 1105 532 1105 532 1024 c 0,25,26
 532 832 532 832 443.5 604.5 c 128,-1,27
 355 377 355 377 174 115 c 1,28,-1
 440 115 l 1,29,-1
 440 389 l 1,30,-1
 549 389 l 1,31,-1
 549 0 l 1,32,-1
 20 0 l 1,0,-1
EndSplineSet
Substitution2: "'sups' Superscript in Latin lookup 1 subtable" twosuperior
Substitution2: "'aalt' Access All Alternates in Latin lookup 0 subtable" twosuperior
EndChar

StartChar: three
Encoding: 51 51 260
Width: 616
Flags: W
LayerCount: 2
Fore
SplineSet
328 854 m 1,0,1
 408 834 408 834 455.5 785.5 c 128,-1,2
 503 737 503 737 527.5 675.5 c 128,-1,3
 552 614 552 614 559.5 547.5 c 128,-1,4
 567 481 567 481 567 426 c 0,5,6
 567 318 567 318 548 233.5 c 128,-1,7
 529 149 529 149 493 91 c 128,-1,8
 457 33 457 33 406.5 3 c 128,-1,9
 356 -27 356 -27 293 -27 c 0,10,11
 240 -27 240 -27 193.5 -1.5 c 128,-1,12
 147 24 147 24 112 81 c 128,-1,13
 77 138 77 138 57 228.5 c 128,-1,14
 37 319 37 319 37 449 c 1,15,-1
 160 449 l 1,16,17
 160 258 160 258 194 170 c 128,-1,18
 228 82 228 82 299 82 c 0,19,20
 338 82 338 82 365 109.5 c 128,-1,21
 392 137 392 137 408.5 184 c 128,-1,22
 425 231 425 231 432.5 293 c 128,-1,23
 440 355 440 355 440 424 c 0,24,25
 440 499 440 499 428 560.5 c 128,-1,26
 416 622 416 622 389.5 666 c 128,-1,27
 363 710 363 710 320 734.5 c 128,-1,28
 277 759 277 759 215 760 c 1,29,-1
 215 868 l 1,30,-1
 420 1260 l 1,31,-1
 172 1260 l 1,32,-1
 172 1044 l 1,33,-1
 63 1044 l 1,34,-1
 63 1374 l 1,35,-1
 561 1374 l 1,36,-1
 561 1288 l 1,37,-1
 328 854 l 1,0,1
EndSplineSet
Substitution2: "'sups' Superscript in Latin lookup 1 subtable" threesuperior
Substitution2: "'aalt' Access All Alternates in Latin lookup 0 subtable" threesuperior
EndChar

StartChar: four
Encoding: 52 52 261
Width: 651
Flags: W
LayerCount: 2
Fore
SplineSet
240 113 m 1,0,-1
 362 113 l 1,1,-1
 362 358 l 1,2,-1
 25 358 l 1,3,-1
 25 463 l 1,4,-1
 324 1374 l 1,5,-1
 483 1374 l 1,6,-1
 483 465 l 1,7,-1
 625 465 l 1,8,-1
 625 358 l 1,9,-1
 483 358 l 1,10,-1
 483 113 l 1,11,-1
 606 113 l 1,12,-1
 606 0 l 1,13,-1
 240 0 l 1,14,-1
 240 113 l 1,0,-1
362 1178 m 1,15,-1
 131 465 l 1,16,-1
 362 465 l 1,17,-1
 362 1178 l 1,15,-1
EndSplineSet
EndChar

StartChar: five
Encoding: 53 53 262
Width: 618
Flags: W
LayerCount: 2
Fore
SplineSet
182 834 m 1,0,1
 214 871 214 871 249.5 883 c 128,-1,2
 285 895 285 895 324 895 c 0,3,4
 381 895 381 895 426.5 860 c 128,-1,5
 472 825 472 825 503.5 762.5 c 128,-1,6
 535 700 535 700 552 614 c 128,-1,7
 569 528 569 528 569 426 c 0,8,9
 569 332 569 332 554 249.5 c 128,-1,10
 539 167 539 167 507.5 105.5 c 128,-1,11
 476 44 476 44 426 8.5 c 128,-1,12
 376 -27 376 -27 307 -27 c 1,13,14
 256 -29 256 -29 208.5 -4 c 128,-1,15
 161 21 161 21 123.5 75.5 c 128,-1,16
 86 130 86 130 63.5 217 c 128,-1,17
 41 304 41 304 41 426 c 1,18,-1
 166 426 l 1,19,20
 166 251 166 251 206.5 165.5 c 128,-1,21
 247 80 247 80 307 80 c 0,22,23
 341 80 341 80 366 105.5 c 128,-1,24
 391 131 391 131 408 177 c 128,-1,25
 425 223 425 223 433.5 286.5 c 128,-1,26
 442 350 442 350 442 426 c 0,27,28
 442 602 442 602 407 695 c 128,-1,29
 372 788 372 788 295 788 c 0,30,31
 250 788 250 788 217.5 758.5 c 128,-1,32
 185 729 185 729 168 670 c 1,33,-1
 66 670 l 1,34,-1
 90 1374 l 1,35,-1
 524 1374 l 1,36,-1
 524 1260 l 1,37,-1
 199 1260 l 1,38,-1
 182 834 l 1,0,1
EndSplineSet
EndChar

StartChar: six
Encoding: 54 54 263
Width: 641
Flags: W
LayerCount: 2
Fore
SplineSet
178 713 m 1,0,1
 185 731 185 731 198.5 759 c 128,-1,2
 212 787 212 787 234.5 813.5 c 128,-1,3
 257 840 257 840 289 858.5 c 128,-1,4
 321 877 321 877 365 877 c 0,5,6
 414 877 414 877 457 849 c 128,-1,7
 500 821 500 821 531.5 765 c 128,-1,8
 563 709 563 709 581.5 624.5 c 128,-1,9
 600 540 600 540 600 426 c 0,10,11
 600 332 600 332 582.5 249.5 c 128,-1,12
 565 167 565 167 532 105.5 c 128,-1,13
 499 44 499 44 451 8.5 c 128,-1,14
 403 -27 403 -27 342 -27 c 256,15,16
 281 -27 281 -27 228.5 14.5 c 128,-1,17
 176 56 176 56 137 139.5 c 128,-1,18
 98 223 98 223 75.5 349 c 128,-1,19
 53 475 53 475 53 645 c 0,20,21
 53 819 53 819 70 958.5 c 128,-1,22
 87 1098 87 1098 122.5 1196 c 128,-1,23
 158 1294 158 1294 212.5 1346.5 c 128,-1,24
 267 1399 267 1399 342 1399 c 0,25,26
 390 1399 390 1399 433 1372.5 c 128,-1,27
 476 1346 476 1346 508.5 1294 c 128,-1,28
 541 1242 541 1242 559.5 1164.5 c 128,-1,29
 578 1087 578 1087 578 985 c 1,30,-1
 455 985 l 1,31,32
 455 1134 455 1134 425.5 1212 c 128,-1,33
 396 1290 396 1290 336 1290 c 0,34,35
 294 1290 294 1290 264 1243.5 c 128,-1,36
 234 1197 234 1197 215 1118 c 128,-1,37
 196 1039 196 1039 187 934.5 c 128,-1,38
 178 830 178 830 178 713 c 1,0,1
340 768 m 0,39,40
 309 768 309 768 284 739 c 128,-1,41
 259 710 259 710 239.5 668 c 128,-1,42
 220 626 220 626 207 578 c 128,-1,43
 194 530 194 530 188 492 c 1,44,45
 186 417 186 417 196.5 344 c 128,-1,46
 207 271 207 271 227.5 212.5 c 128,-1,47
 248 154 248 154 277.5 118 c 128,-1,48
 307 82 307 82 342 82 c 0,49,50
 374 82 374 82 399 106.5 c 128,-1,51
 424 131 424 131 441 176 c 128,-1,52
 458 221 458 221 466.5 284.5 c 128,-1,53
 475 348 475 348 475 426 c 0,54,55
 475 506 475 506 467 569.5 c 128,-1,56
 459 633 459 633 442.5 677 c 128,-1,57
 426 721 426 721 400.5 744.5 c 128,-1,58
 375 768 375 768 340 768 c 0,39,40
EndSplineSet
EndChar

StartChar: seven
Encoding: 55 55 264
Width: 539
Flags: W
LayerCount: 2
Fore
SplineSet
25 1004 m 1,0,-1
 25 1374 l 1,1,-1
 555 1374 l 1,2,-1
 555 1305 l 1,3,4
 430 1045 430 1045 360.5 722 c 128,-1,5
 291 399 291 399 291 0 c 1,6,-1
 160 0 l 1,7,8
 160 243 160 243 187.5 439.5 c 128,-1,9
 215 636 215 636 254 790.5 c 128,-1,10
 293 945 293 945 336.5 1061 c 128,-1,11
 380 1177 380 1177 412 1260 c 1,12,-1
 133 1260 l 1,13,-1
 133 1004 l 1,14,-1
 25 1004 l 1,0,-1
EndSplineSet
EndChar

StartChar: eight
Encoding: 56 56 265
Width: 659
Flags: W
LayerCount: 2
Fore
SplineSet
428 750 m 1,0,1
 519 716 519 716 564.5 618 c 128,-1,2
 610 520 610 520 610 375 c 0,3,4
 610 286 610 286 591 212 c 128,-1,5
 572 138 572 138 536 85 c 128,-1,6
 500 32 500 32 448 2.5 c 128,-1,7
 396 -27 396 -27 330 -27 c 256,8,9
 264 -27 264 -27 212 2.5 c 128,-1,10
 160 32 160 32 123.5 85 c 128,-1,11
 87 138 87 138 68 212 c 128,-1,12
 49 286 49 286 49 375 c 0,13,14
 49 447 49 447 61 509 c 128,-1,15
 73 571 73 571 96 619.5 c 128,-1,16
 119 668 119 668 153 702.5 c 128,-1,17
 187 737 187 737 231 754 c 1,18,19
 195 775 195 775 168.5 808.5 c 128,-1,20
 142 842 142 842 124.5 881.5 c 128,-1,21
 107 921 107 921 98.5 965 c 128,-1,22
 90 1009 90 1009 90 1051 c 0,23,24
 90 1128 90 1128 107 1192 c 128,-1,25
 124 1256 124 1256 155.5 1302 c 128,-1,26
 187 1348 187 1348 231 1373.5 c 128,-1,27
 275 1399 275 1399 328 1399 c 256,28,29
 381 1399 381 1399 425 1373.5 c 128,-1,30
 469 1348 469 1348 501 1302 c 128,-1,31
 533 1256 533 1256 551 1192 c 128,-1,32
 569 1128 569 1128 569 1051 c 0,33,34
 569 1009 569 1009 560.5 964.5 c 128,-1,35
 552 920 552 920 534.5 879.5 c 128,-1,36
 517 839 517 839 490.5 805 c 128,-1,37
 464 771 464 771 428 750 c 1,0,1
446 1044 m 256,38,39
 446 1093 446 1093 439.5 1138 c 128,-1,40
 433 1183 433 1183 419.5 1217.5 c 128,-1,41
 406 1252 406 1252 383.5 1272 c 128,-1,42
 361 1292 361 1292 330 1292 c 0,43,44
 298 1292 298 1292 275.5 1272 c 128,-1,45
 253 1252 253 1252 239 1217.5 c 128,-1,46
 225 1183 225 1183 219 1138 c 128,-1,47
 213 1093 213 1093 213 1044 c 256,48,49
 213 995 213 995 220 950 c 128,-1,50
 227 905 227 905 241.5 871 c 128,-1,51
 256 837 256 837 278 817 c 128,-1,52
 300 797 300 797 330 797 c 256,53,54
 360 797 360 797 382 817 c 128,-1,55
 404 837 404 837 418 871 c 128,-1,56
 432 905 432 905 439 950 c 128,-1,57
 446 995 446 995 446 1044 c 256,38,39
330 696 m 0,58,59
 257 696 257 696 216.5 615 c 128,-1,60
 176 534 176 534 176 389 c 0,61,62
 176 245 176 245 215 162.5 c 128,-1,63
 254 80 254 80 330 80 c 0,64,65
 405 80 405 80 444 162.5 c 128,-1,66
 483 245 483 245 483 389 c 0,67,68
 483 461 483 461 472.5 518 c 128,-1,69
 462 575 462 575 442 614.5 c 128,-1,70
 422 654 422 654 393.5 675 c 128,-1,71
 365 696 365 696 330 696 c 0,58,59
EndSplineSet
EndChar

StartChar: nine
Encoding: 57 57 266
Width: 641
Flags: W
LayerCount: 2
Fore
SplineSet
463 659 m 1,0,1
 456 641 456 641 442.5 613 c 128,-1,2
 429 585 429 585 406.5 559 c 128,-1,3
 384 533 384 533 352 514.5 c 128,-1,4
 320 496 320 496 276 496 c 0,5,6
 227 496 227 496 184 523.5 c 128,-1,7
 141 551 141 551 109.5 607 c 128,-1,8
 78 663 78 663 59.5 747.5 c 128,-1,9
 41 832 41 832 41 946 c 0,10,11
 41 1040 41 1040 58 1122.5 c 128,-1,12
 75 1205 75 1205 108 1266.5 c 128,-1,13
 141 1328 141 1328 189 1363.5 c 128,-1,14
 237 1399 237 1399 299 1399 c 0,15,16
 360 1399 360 1399 412.5 1357.5 c 128,-1,17
 465 1316 465 1316 504 1232.5 c 128,-1,18
 543 1149 543 1149 565.5 1023 c 128,-1,19
 588 897 588 897 588 727 c 0,20,21
 588 553 588 553 571 413.5 c 128,-1,22
 554 274 554 274 518.5 176 c 128,-1,23
 483 78 483 78 428.5 25.5 c 128,-1,24
 374 -27 374 -27 299 -27 c 0,25,26
 251 -27 251 -27 208 -0.5 c 128,-1,27
 165 26 165 26 132.5 78 c 128,-1,28
 100 130 100 130 81.5 207.5 c 128,-1,29
 63 285 63 285 63 387 c 1,30,-1
 186 387 l 1,31,32
 186 238 186 238 215.5 160 c 128,-1,33
 245 82 245 82 305 82 c 0,34,35
 347 82 347 82 377 128.5 c 128,-1,36
 407 175 407 175 426 254 c 128,-1,37
 445 333 445 333 454 437.5 c 128,-1,38
 463 542 463 542 463 659 c 1,0,1
301 604 m 0,39,40
 332 604 332 604 357 633 c 128,-1,41
 382 662 382 662 401.5 704 c 128,-1,42
 421 746 421 746 434 794 c 128,-1,43
 447 842 447 842 453 881 c 1,44,45
 455 955 455 955 444.5 1028.5 c 128,-1,46
 434 1102 434 1102 413.5 1160 c 128,-1,47
 393 1218 393 1218 363.5 1254 c 128,-1,48
 334 1290 334 1290 299 1290 c 0,49,50
 267 1290 267 1290 242 1265.5 c 128,-1,51
 217 1241 217 1241 200 1196 c 128,-1,52
 183 1151 183 1151 174.5 1087.5 c 128,-1,53
 166 1024 166 1024 166 946 c 0,54,55
 166 866 166 866 174 802.5 c 128,-1,56
 182 739 182 739 198.5 695 c 128,-1,57
 215 651 215 651 240.5 627.5 c 128,-1,58
 266 604 266 604 301 604 c 0,39,40
EndSplineSet
EndChar

StartChar: dollar
Encoding: 36 36 267
Width: 645
Flags: W
LayerCount: 2
Fore
SplineSet
49 0 m 1,0,-1
 49 418 l 1,1,-1
 156 418 l 1,2,-1
 156 317 l 2,3,4
 156 266 156 266 166.5 228.5 c 128,-1,5
 177 191 177 191 194.5 165.5 c 128,-1,6
 212 140 212 140 233.5 126 c 128,-1,7
 255 112 255 112 276 106 c 1,8,-1
 276 668 l 1,9,10
 236 696 236 696 198 727.5 c 128,-1,11
 160 759 160 759 130 801 c 128,-1,12
 100 843 100 843 81.5 900 c 128,-1,13
 63 957 63 957 63 1036 c 0,14,15
 63 1122 63 1122 82 1183.5 c 128,-1,16
 101 1245 101 1245 132 1285.5 c 128,-1,17
 163 1326 163 1326 200.5 1346.5 c 128,-1,18
 238 1367 238 1367 276 1372 c 1,19,-1
 276 1483 l 1,20,-1
 367 1483 l 1,21,-1
 367 1362 l 1,22,23
 417 1343 417 1343 453 1292 c 1,24,-1
 453 1374 l 1,25,-1
 559 1374 l 1,26,-1
 559 999 l 1,27,-1
 453 999 l 1,28,-1
 453 1092 l 2,29,30
 453 1130 453 1130 445.5 1159 c 128,-1,31
 438 1188 438 1188 425.5 1208.5 c 128,-1,32
 413 1229 413 1229 397.5 1242 c 128,-1,33
 382 1255 382 1255 367 1262 c 1,34,-1
 367 752 l 1,35,36
 408 721 408 721 449 687 c 128,-1,37
 490 653 490 653 522.5 608 c 128,-1,38
 555 563 555 563 575.5 503 c 128,-1,39
 596 443 596 443 596 360 c 0,40,41
 596 262 596 262 574.5 195.5 c 128,-1,42
 553 129 553 129 519 87 c 128,-1,43
 485 45 485 45 444.5 24.5 c 128,-1,44
 404 4 404 4 367 0 c 1,45,-1
 367 -109 l 1,46,-1
 276 -109 l 1,47,-1
 276 8 l 1,48,49
 204 26 204 26 156 96 c 1,50,-1
 156 0 l 1,51,-1
 49 0 l 1,0,-1
475 356 m 0,52,53
 475 400 475 400 466.5 435.5 c 128,-1,54
 458 471 458 471 443.5 500 c 128,-1,55
 429 529 429 529 409.5 553 c 128,-1,56
 390 577 390 577 367 598 c 1,57,-1
 367 117 l 1,58,59
 389 127 389 127 408.5 146.5 c 128,-1,60
 428 166 428 166 443 195.5 c 128,-1,61
 458 225 458 225 466.5 265 c 128,-1,62
 475 305 475 305 475 356 c 0,52,53
182 1036 m 0,63,64
 182 962 182 962 208.5 911.5 c 128,-1,65
 235 861 235 861 276 823 c 1,66,-1
 276 1255 l 1,67,68
 236 1234 236 1234 209 1180 c 128,-1,69
 182 1126 182 1126 182 1036 c 0,63,64
EndSplineSet
EndChar

StartChar: cent
Encoding: 162 162 268
Width: 553
Flags: W
LayerCount: 2
Fore
SplineSet
399 860 m 1,0,-1
 399 891 l 2,1,2
 399 973 399 973 381.5 1015.5 c 128,-1,3
 364 1058 364 1058 342 1073 c 1,4,-1
 342 301 l 1,5,6
 371 310 371 310 396 337.5 c 128,-1,7
 421 365 421 365 442 406 c 1,8,-1
 512 340 l 1,9,10
 475 278 475 278 435 241 c 128,-1,11
 395 204 395 204 342 193 c 1,12,-1
 342 10 l 1,13,-1
 260 10 l 1,14,-1
 260 193 l 1,15,16
 157 214 157 214 104 340.5 c 128,-1,17
 51 467 51 467 51 690 c 0,18,19
 51 804 51 804 67 892.5 c 128,-1,20
 83 981 83 981 111.5 1044 c 128,-1,21
 140 1107 140 1107 178 1143 c 128,-1,22
 216 1179 216 1179 260 1188 c 1,23,-1
 260 1364 l 1,24,-1
 342 1364 l 1,25,-1
 342 1178 l 1,26,27
 362 1165 362 1165 376.5 1148 c 128,-1,28
 391 1131 391 1131 399 1114 c 1,29,-1
 399 1167 l 1,30,-1
 500 1167 l 1,31,-1
 500 860 l 1,32,-1
 399 860 l 1,0,-1
178 692 m 0,33,34
 178 618 178 618 181.5 556 c 128,-1,35
 185 494 185 494 194.5 445.5 c 128,-1,36
 204 397 204 397 220 363.5 c 128,-1,37
 236 330 236 330 260 313 c 1,38,-1
 260 1071 l 1,39,40
 218 1037 218 1037 198 939 c 128,-1,41
 178 841 178 841 178 692 c 0,33,34
EndSplineSet
EndChar

StartChar: sterling
Encoding: 163 163 269
Width: 686
Flags: W
LayerCount: 2
Fore
SplineSet
322 621 m 1,0,1
 337 573 337 573 347.5 525 c 128,-1,2
 358 477 358 477 358 420 c 0,3,4
 358 323 358 323 330.5 252 c 128,-1,5
 303 181 303 181 258 131 c 1,6,7
 297 131 297 131 328 123 c 128,-1,8
 359 115 359 115 385 105.5 c 128,-1,9
 411 96 411 96 433.5 88 c 128,-1,10
 456 80 456 80 479 80 c 0,11,12
 501 80 501 80 517.5 94 c 128,-1,13
 534 108 534 108 545.5 132 c 128,-1,14
 557 156 557 156 564 188 c 128,-1,15
 571 220 571 220 575 256 c 1,16,-1
 684 256 l 1,17,18
 679 208 679 208 667 157 c 128,-1,19
 655 106 655 106 632 65 c 128,-1,20
 609 24 609 24 574.5 -2.5 c 128,-1,21
 540 -29 540 -29 492 -29 c 0,22,23
 458 -29 458 -29 427 -20 c 128,-1,24
 396 -11 396 -11 364.5 0 c 128,-1,25
 333 11 333 11 300 20 c 128,-1,26
 267 29 267 29 229 29 c 0,27,28
 203 29 203 29 182.5 24.5 c 128,-1,29
 162 20 162 20 145 13.5 c 128,-1,30
 128 7 128 7 113.5 -0.5 c 128,-1,31
 99 -8 99 -8 86 -14 c 1,32,-1
 47 84 l 1,33,34
 99 102 99 102 135.5 133 c 128,-1,35
 172 164 172 164 195.5 206 c 128,-1,36
 219 248 219 248 229.5 299 c 128,-1,37
 240 350 240 350 240 408 c 0,38,39
 240 460 240 460 225 511 c 128,-1,40
 210 562 210 562 190 621 c 1,41,-1
 41 621 l 1,42,-1
 41 721 l 1,43,-1
 162 721 l 1,44,45
 146 777 146 777 136.5 842.5 c 128,-1,46
 127 908 127 908 127 989 c 0,47,48
 127 1107 127 1107 146.5 1185.5 c 128,-1,49
 166 1264 166 1264 196 1311.5 c 128,-1,50
 226 1359 226 1359 262.5 1379 c 128,-1,51
 299 1399 299 1399 334 1399 c 0,52,53
 357 1399 357 1399 387.5 1382 c 128,-1,54
 418 1365 418 1365 442 1323 c 1,55,-1
 442 1380 l 1,56,-1
 555 1380 l 1,57,-1
 555 963 l 1,58,-1
 442 963 l 1,59,-1
 442 1079 l 2,60,61
 442 1139 442 1139 433 1179.5 c 128,-1,62
 424 1220 424 1220 411 1244.5 c 128,-1,63
 398 1269 398 1269 383 1279.5 c 128,-1,64
 368 1290 368 1290 356 1290 c 0,65,66
 335 1290 335 1290 316 1274 c 128,-1,67
 297 1258 297 1258 282.5 1223 c 128,-1,68
 268 1188 268 1188 260 1131 c 128,-1,69
 252 1074 252 1074 252 993 c 0,70,71
 252 906 252 906 262.5 840.5 c 128,-1,72
 273 775 273 775 289 721 c 1,73,-1
 504 721 l 1,74,-1
 504 621 l 1,75,-1
 322 621 l 1,0,1
EndSplineSet
EndChar

StartChar: yen
Encoding: 165 165 270
Width: 776
Flags: W
LayerCount: 2
Fore
SplineSet
451 373 m 1,0,-1
 451 113 l 1,1,-1
 573 113 l 1,2,-1
 573 0 l 1,3,-1
 203 0 l 1,4,-1
 203 113 l 1,5,-1
 326 113 l 1,6,-1
 326 373 l 1,7,-1
 82 373 l 1,8,-1
 82 481 l 1,9,-1
 326 481 l 1,10,-1
 326 582 l 1,11,-1
 313 618 l 1,12,-1
 82 618 l 1,13,-1
 82 727 l 1,14,-1
 283 727 l 1,15,-1
 125 1262 l 1,16,-1
 20 1262 l 1,17,-1
 20 1374 l 1,18,-1
 350 1374 l 1,19,-1
 350 1262 l 1,20,-1
 254 1262 l 1,21,-1
 389 737 l 1,22,-1
 522 1262 l 1,23,-1
 426 1262 l 1,24,-1
 426 1374 l 1,25,-1
 756 1374 l 1,26,-1
 756 1262 l 1,27,-1
 651 1262 l 1,28,-1
 494 727 l 1,29,-1
 694 727 l 1,30,-1
 694 618 l 1,31,-1
 461 618 l 1,32,-1
 451 582 l 1,33,-1
 451 481 l 1,34,-1
 694 481 l 1,35,-1
 694 373 l 1,36,-1
 451 373 l 1,0,-1
EndSplineSet
EndChar

StartChar: florin
Encoding: 402 402 271
Width: 702
Flags: W
LayerCount: 2
Fore
SplineSet
307 831 m 1,0,-1
 197 831 l 1,1,-1
 197 938 l 1,2,-1
 317 938 l 1,3,-1
 330 1061 l 1,4,5
 344 1223 344 1223 403.5 1309 c 128,-1,6
 463 1395 463 1395 569 1395 c 0,7,8
 614 1395 614 1395 647.5 1377 c 128,-1,9
 681 1359 681 1359 702 1339 c 1,10,-1
 647 1241 l 1,11,12
 630 1261 630 1261 612.5 1273.5 c 128,-1,13
 595 1286 595 1286 573 1286 c 0,14,15
 522 1286 522 1286 492.5 1230 c 128,-1,16
 463 1174 463 1174 455 1065 c 1,17,-1
 442 938 l 1,18,-1
 565 938 l 1,19,-1
 565 831 l 1,20,-1
 432 831 l 1,21,-1
 371 264 l 1,22,23
 357 102 357 102 296.5 16 c 128,-1,24
 236 -70 236 -70 131 -70 c 0,25,26
 86 -70 86 -70 54 -52 c 128,-1,27
 22 -34 22 -34 0 -14 c 1,28,-1
 55 84 l 1,29,30
 72 64 72 64 87 51.5 c 128,-1,31
 102 39 102 39 133 39 c 0,32,33
 181 39 181 39 208.5 95.5 c 128,-1,34
 236 152 236 152 246 264 c 1,35,-1
 307 831 l 1,0,-1
EndSplineSet
EndChar

StartChar: Euro
Encoding: 8364 8364 272
Width: 741
Flags: W
LayerCount: 2
Fore
SplineSet
123 618 m 1,0,-1
 123 686 l 1,1,-1
 123 764 l 1,2,-1
 8 764 l 1,3,-1
 35 864 l 1,4,-1
 129 864 l 1,5,6
 141 997 141 997 169 1097.5 c 128,-1,7
 197 1198 197 1198 236 1265 c 128,-1,8
 275 1332 275 1332 323.5 1365.5 c 128,-1,9
 372 1399 372 1399 424 1399 c 0,10,11
 481 1399 481 1399 517.5 1370.5 c 128,-1,12
 554 1342 554 1342 582 1300 c 1,13,-1
 582 1374 l 1,14,-1
 690 1374 l 1,15,-1
 690 983 l 1,16,-1
 582 983 l 1,17,-1
 582 1038 l 2,18,19
 582 1098 582 1098 570.5 1144 c 128,-1,20
 559 1190 559 1190 539.5 1221.5 c 128,-1,21
 520 1253 520 1253 495 1269.5 c 128,-1,22
 470 1286 470 1286 442 1286 c 0,23,24
 403 1286 403 1286 372.5 1257 c 128,-1,25
 342 1228 342 1228 320 1173.5 c 128,-1,26
 298 1119 298 1119 284 1040.5 c 128,-1,27
 270 962 270 962 264 864 c 1,28,-1
 561 864 l 1,29,-1
 535 764 l 1,30,-1
 260 764 l 1,31,-1
 260 686 l 1,32,-1
 260 618 l 1,33,-1
 508 618 l 1,34,-1
 481 518 l 1,35,-1
 264 518 l 1,36,37
 270 417 270 417 283 337.5 c 128,-1,38
 296 258 296 258 318 202.5 c 128,-1,39
 340 147 340 147 370 117.5 c 128,-1,40
 400 88 400 88 440 88 c 0,41,42
 476 88 476 88 502.5 114 c 128,-1,43
 529 140 529 140 548.5 179.5 c 128,-1,44
 568 219 568 219 581.5 265 c 128,-1,45
 595 311 595 311 606 352 c 1,46,-1
 721 352 l 1,47,48
 703 263 703 263 675.5 192.5 c 128,-1,49
 648 122 648 122 612 73.5 c 128,-1,50
 576 25 576 25 531 -1 c 128,-1,51
 486 -27 486 -27 432 -27 c 0,52,53
 309 -27 309 -27 229 109.5 c 128,-1,54
 149 246 149 246 129 518 c 1,55,-1
 8 518 l 1,56,-1
 35 618 l 1,57,-1
 123 618 l 1,0,-1
EndSplineSet
EndChar

StartChar: currency
Encoding: 164 164 273
Width: 748
Flags: W
LayerCount: 2
Fore
SplineSet
598 877 m 1,0,1
 623 841 623 841 633 803 c 128,-1,2
 643 765 643 765 643 723 c 0,3,4
 643 680 643 680 633.5 642 c 128,-1,5
 624 604 624 604 598 569 c 1,6,-1
 707 461 l 1,7,-1
 637 389 l 1,8,-1
 526 500 l 1,9,10
 492 478 492 478 451 465.5 c 128,-1,11
 410 453 410 453 373 453 c 0,12,13
 331 453 331 453 293 464 c 128,-1,14
 255 475 255 475 221 500 c 1,15,-1
 111 389 l 1,16,-1
 41 461 l 1,17,-1
 152 571 l 1,18,19
 127 605 127 605 115.5 643 c 128,-1,20
 104 681 104 681 104 723 c 0,21,22
 104 766 104 766 115 803.5 c 128,-1,23
 126 841 126 841 152 877 c 1,24,-1
 41 987 l 1,25,-1
 111 1057 l 1,26,-1
 221 946 l 1,27,28
 255 969 255 969 296 981 c 128,-1,29
 337 993 337 993 377 993 c 0,30,31
 419 993 419 993 456.5 983 c 128,-1,32
 494 973 494 973 528 948 c 1,33,34
 554 974 554 974 582.5 1003 c 128,-1,35
 611 1032 611 1032 637 1057 c 1,36,-1
 707 987 l 1,37,-1
 598 877 l 1,0,1
250 598 m 0,38,39
 275 573 275 573 307 562 c 128,-1,40
 339 551 339 551 373 551 c 0,41,42
 406 551 406 551 437.5 562.5 c 128,-1,43
 469 574 469 574 494 595.5 c 128,-1,44
 519 617 519 617 534 649 c 128,-1,45
 549 681 549 681 549 723 c 0,46,47
 549 758 549 758 535 789.5 c 128,-1,48
 521 821 521 821 497 845 c 128,-1,49
 473 869 473 869 441 883 c 128,-1,50
 409 897 409 897 373 897 c 0,51,52
 336 897 336 897 304.5 882.5 c 128,-1,53
 273 868 273 868 250 844 c 128,-1,54
 227 820 227 820 214 788.5 c 128,-1,55
 201 757 201 757 201 723 c 0,56,57
 201 688 201 688 212.5 656 c 128,-1,58
 224 624 224 624 250 598 c 0,38,39
EndSplineSet
EndChar

StartChar: percent
Encoding: 37 37 274
Width: 881
Flags: W
LayerCount: 2
Fore
SplineSet
270 0 m 1,0,-1
 172 0 l 1,1,-1
 612 1374 l 1,2,-1
 709 1374 l 1,3,-1
 270 0 l 1,0,-1
401 1049 m 0,4,5
 401 968 401 968 388 903.5 c 128,-1,6
 375 839 375 839 351.5 793 c 128,-1,7
 328 747 328 747 296 722.5 c 128,-1,8
 264 698 264 698 225 698 c 0,9,10
 187 698 187 698 154.5 722.5 c 128,-1,11
 122 747 122 747 98.5 793 c 128,-1,12
 75 839 75 839 62 903.5 c 128,-1,13
 49 968 49 968 49 1049 c 0,14,15
 49 1131 49 1131 62 1196 c 128,-1,16
 75 1261 75 1261 98.5 1306 c 128,-1,17
 122 1351 122 1351 154.5 1375 c 128,-1,18
 187 1399 187 1399 225 1399 c 0,19,20
 264 1399 264 1399 296 1375 c 128,-1,21
 328 1351 328 1351 351.5 1306 c 128,-1,22
 375 1261 375 1261 388 1196 c 128,-1,23
 401 1131 401 1131 401 1049 c 0,4,5
295 1049 m 256,24,25
 295 1102 295 1102 291 1150 c 128,-1,26
 287 1198 287 1198 278.5 1234 c 128,-1,27
 270 1270 270 1270 256.5 1291.5 c 128,-1,28
 243 1313 243 1313 225 1313 c 0,29,30
 206 1313 206 1313 193 1291.5 c 128,-1,31
 180 1270 180 1270 171.5 1234 c 128,-1,32
 163 1198 163 1198 159.5 1150 c 128,-1,33
 156 1102 156 1102 156 1049 c 256,34,35
 156 996 156 996 159.5 948.5 c 128,-1,36
 163 901 163 901 171.5 864 c 128,-1,37
 180 827 180 827 193 805.5 c 128,-1,38
 206 784 206 784 225 784 c 0,39,40
 243 784 243 784 256.5 805.5 c 128,-1,41
 270 827 270 827 278.5 864 c 128,-1,42
 287 901 287 901 291 948.5 c 128,-1,43
 295 996 295 996 295 1049 c 256,24,25
831 324 m 0,44,45
 831 243 831 243 818 178.5 c 128,-1,46
 805 114 805 114 781.5 68 c 128,-1,47
 758 22 758 22 726 -2.5 c 128,-1,48
 694 -27 694 -27 655 -27 c 0,49,50
 617 -27 617 -27 584.5 -2.5 c 128,-1,51
 552 22 552 22 528.5 68 c 128,-1,52
 505 114 505 114 492 178.5 c 128,-1,53
 479 243 479 243 479 324 c 0,54,55
 479 406 479 406 492 471 c 128,-1,56
 505 536 505 536 528.5 581 c 128,-1,57
 552 626 552 626 584.5 650 c 128,-1,58
 617 674 617 674 655 674 c 0,59,60
 694 674 694 674 726 650 c 128,-1,61
 758 626 758 626 781.5 581 c 128,-1,62
 805 536 805 536 818 471 c 128,-1,63
 831 406 831 406 831 324 c 0,44,45
725 324 m 256,64,65
 725 377 725 377 721 425 c 128,-1,66
 717 473 717 473 708.5 509 c 128,-1,67
 700 545 700 545 687 566.5 c 128,-1,68
 674 588 674 588 655 588 c 256,69,70
 636 588 636 588 623 566.5 c 128,-1,71
 610 545 610 545 601.5 509 c 128,-1,72
 593 473 593 473 589.5 425 c 128,-1,73
 586 377 586 377 586 324 c 256,74,75
 586 271 586 271 589.5 223.5 c 128,-1,76
 593 176 593 176 601.5 139 c 128,-1,77
 610 102 610 102 623 80.5 c 128,-1,78
 636 59 636 59 655 59 c 256,79,80
 674 59 674 59 687 80.5 c 128,-1,81
 700 102 700 102 708.5 139 c 128,-1,82
 717 176 717 176 721 223.5 c 128,-1,83
 725 271 725 271 725 324 c 256,64,65
EndSplineSet
Ligature2: "Ligature Substitution lookup 7 subtable" zero slash zero
Ligature2: "Ligature Substitution lookup 7 subtable" zero fraction zero
EndChar

StartChar: perthousand
Encoding: 8240 8240 275
Width: 1290
Flags: W
LayerCount: 2
Fore
SplineSet
1241 324 m 0,0,1
 1241 243 1241 243 1228 178.5 c 128,-1,2
 1215 114 1215 114 1191.5 68 c 128,-1,3
 1168 22 1168 22 1135.5 -2.5 c 128,-1,4
 1103 -27 1103 -27 1065 -27 c 256,5,6
 1027 -27 1027 -27 994.5 -2.5 c 128,-1,7
 962 22 962 22 938.5 68 c 128,-1,8
 915 114 915 114 902 178.5 c 128,-1,9
 889 243 889 243 889 324 c 0,10,11
 889 406 889 406 902 471 c 128,-1,12
 915 536 915 536 938.5 581 c 128,-1,13
 962 626 962 626 994.5 650 c 128,-1,14
 1027 674 1027 674 1065 674 c 256,15,16
 1103 674 1103 674 1135.5 650 c 128,-1,17
 1168 626 1168 626 1191.5 581 c 128,-1,18
 1215 536 1215 536 1228 471 c 128,-1,19
 1241 406 1241 406 1241 324 c 0,0,1
1135 324 m 256,20,21
 1135 377 1135 377 1131 425 c 128,-1,22
 1127 473 1127 473 1118.5 509 c 128,-1,23
 1110 545 1110 545 1096.5 566.5 c 128,-1,24
 1083 588 1083 588 1065 588 c 0,25,26
 1046 588 1046 588 1032.5 566.5 c 128,-1,27
 1019 545 1019 545 1011 509 c 128,-1,28
 1003 473 1003 473 999 425 c 128,-1,29
 995 377 995 377 995 324 c 256,30,31
 995 271 995 271 999 223.5 c 128,-1,32
 1003 176 1003 176 1011 139 c 128,-1,33
 1019 102 1019 102 1032.5 80.5 c 128,-1,34
 1046 59 1046 59 1065 59 c 0,35,36
 1083 59 1083 59 1096.5 80.5 c 128,-1,37
 1110 102 1110 102 1118.5 139 c 128,-1,38
 1127 176 1127 176 1131 223.5 c 128,-1,39
 1135 271 1135 271 1135 324 c 256,20,21
270 0 m 1,40,-1
 172 0 l 1,41,-1
 612 1374 l 1,42,-1
 709 1374 l 1,43,-1
 270 0 l 1,40,-1
401 1049 m 0,44,45
 401 968 401 968 388 903.5 c 128,-1,46
 375 839 375 839 351.5 793 c 128,-1,47
 328 747 328 747 296 722.5 c 128,-1,48
 264 698 264 698 225 698 c 0,49,50
 187 698 187 698 154.5 722.5 c 128,-1,51
 122 747 122 747 98.5 793 c 128,-1,52
 75 839 75 839 62 903.5 c 128,-1,53
 49 968 49 968 49 1049 c 0,54,55
 49 1131 49 1131 62 1196 c 128,-1,56
 75 1261 75 1261 98.5 1306 c 128,-1,57
 122 1351 122 1351 154.5 1375 c 128,-1,58
 187 1399 187 1399 225 1399 c 0,59,60
 264 1399 264 1399 296 1375 c 128,-1,61
 328 1351 328 1351 351.5 1306 c 128,-1,62
 375 1261 375 1261 388 1196 c 128,-1,63
 401 1131 401 1131 401 1049 c 0,44,45
295 1049 m 256,64,65
 295 1102 295 1102 291 1150 c 128,-1,66
 287 1198 287 1198 278.5 1234 c 128,-1,67
 270 1270 270 1270 256.5 1291.5 c 128,-1,68
 243 1313 243 1313 225 1313 c 0,69,70
 206 1313 206 1313 193 1291.5 c 128,-1,71
 180 1270 180 1270 171.5 1234 c 128,-1,72
 163 1198 163 1198 159.5 1150 c 128,-1,73
 156 1102 156 1102 156 1049 c 256,74,75
 156 996 156 996 159.5 948.5 c 128,-1,76
 163 901 163 901 171.5 864 c 128,-1,77
 180 827 180 827 193 805.5 c 128,-1,78
 206 784 206 784 225 784 c 0,79,80
 243 784 243 784 256.5 805.5 c 128,-1,81
 270 827 270 827 278.5 864 c 128,-1,82
 287 901 287 901 291 948.5 c 128,-1,83
 295 996 295 996 295 1049 c 256,64,65
831 324 m 0,84,85
 831 243 831 243 818 178.5 c 128,-1,86
 805 114 805 114 781.5 68 c 128,-1,87
 758 22 758 22 726 -2.5 c 128,-1,88
 694 -27 694 -27 655 -27 c 0,89,90
 617 -27 617 -27 584.5 -2.5 c 128,-1,91
 552 22 552 22 528.5 68 c 128,-1,92
 505 114 505 114 492 178.5 c 128,-1,93
 479 243 479 243 479 324 c 0,94,95
 479 406 479 406 492 471 c 128,-1,96
 505 536 505 536 528.5 581 c 128,-1,97
 552 626 552 626 584.5 650 c 128,-1,98
 617 674 617 674 655 674 c 0,99,100
 694 674 694 674 726 650 c 128,-1,101
 758 626 758 626 781.5 581 c 128,-1,102
 805 536 805 536 818 471 c 128,-1,103
 831 406 831 406 831 324 c 0,84,85
725 324 m 256,104,105
 725 377 725 377 721 425 c 128,-1,106
 717 473 717 473 708.5 509 c 128,-1,107
 700 545 700 545 687 566.5 c 128,-1,108
 674 588 674 588 655 588 c 256,109,110
 636 588 636 588 623 566.5 c 128,-1,111
 610 545 610 545 601.5 509 c 128,-1,112
 593 473 593 473 589.5 425 c 128,-1,113
 586 377 586 377 586 324 c 256,114,115
 586 271 586 271 589.5 223.5 c 128,-1,116
 593 176 593 176 601.5 139 c 128,-1,117
 610 102 610 102 623 80.5 c 128,-1,118
 636 59 636 59 655 59 c 256,119,120
 674 59 674 59 687 80.5 c 128,-1,121
 700 102 700 102 708.5 139 c 128,-1,122
 717 176 717 176 721 223.5 c 128,-1,123
 725 271 725 271 725 324 c 256,104,105
EndSplineSet
Ligature2: "Ligature Substitution lookup 6 subtable" zero slash zero zero
Ligature2: "Ligature Substitution lookup 6 subtable" zero fraction zero zero
EndChar

StartChar: numbersign
Encoding: 35 35 276
Width: 743
Flags: W
LayerCount: 2
Fore
SplineSet
551 891 m 1,0,-1
 516 485 l 1,1,-1
 639 485 l 1,2,-1
 639 393 l 1,3,-1
 508 393 l 1,4,-1
 473 0 l 1,5,-1
 373 0 l 1,6,-1
 408 393 l 1,7,-1
 285 393 l 1,8,-1
 250 0 l 1,9,-1
 150 0 l 1,10,-1
 184 393 l 1,11,-1
 61 393 l 1,12,-1
 61 485 l 1,13,-1
 190 485 l 1,14,-1
 227 891 l 1,15,-1
 104 891 l 1,16,-1
 104 983 l 1,17,-1
 236 983 l 1,18,-1
 270 1374 l 1,19,-1
 371 1374 l 1,20,-1
 336 983 l 1,21,-1
 459 983 l 1,22,-1
 494 1374 l 1,23,-1
 594 1374 l 1,24,-1
 559 983 l 1,25,-1
 682 983 l 1,26,-1
 682 891 l 1,27,-1
 551 891 l 1,0,-1
328 891 m 1,28,-1
 291 485 l 1,29,-1
 416 485 l 1,30,-1
 451 891 l 1,31,-1
 328 891 l 1,28,-1
EndSplineSet
EndChar

StartChar: twosuperior
Encoding: 178 178 278
Width: 432
Flags: W
LayerCount: 2
Fore
SplineSet
31 508 m 1,0,-1
 31 571 l 1,1,2
 92 651 92 651 137.5 722.5 c 128,-1,3
 183 794 183 794 213.5 864 c 128,-1,4
 244 934 244 934 259 1006 c 128,-1,5
 274 1078 274 1078 274 1159 c 0,6,7
 274 1185 274 1185 271.5 1211.5 c 128,-1,8
 269 1238 269 1238 262 1259 c 128,-1,9
 255 1280 255 1280 241.5 1293.5 c 128,-1,10
 228 1307 228 1307 207 1307 c 0,11,12
 139 1307 139 1307 139 1090 c 1,13,-1
 37 1090 l 1,14,15
 37 1171 37 1171 51 1228 c 128,-1,16
 65 1285 65 1285 88 1321 c 128,-1,17
 111 1357 111 1357 141.5 1373 c 128,-1,18
 172 1389 172 1389 205 1389 c 0,19,20
 247 1389 247 1389 279 1371.5 c 128,-1,21
 311 1354 311 1354 333 1322.5 c 128,-1,22
 355 1291 355 1291 366 1247.5 c 128,-1,23
 377 1204 377 1204 377 1153 c 0,24,25
 377 1092 377 1092 365 1028.5 c 128,-1,26
 353 965 353 965 327 896 c 128,-1,27
 301 827 301 827 258.5 752 c 128,-1,28
 216 677 216 677 156 594 c 1,29,-1
 301 594 l 1,30,-1
 301 733 l 1,31,-1
 387 733 l 1,32,-1
 387 508 l 1,33,-1
 31 508 l 1,0,-1
EndSplineSet
EndChar

StartChar: threesuperior
Encoding: 179 179 279
Width: 438
Flags: W
LayerCount: 2
Fore
SplineSet
246 1047 m 1,0,1
 298 1032 298 1032 328 1001 c 128,-1,2
 358 970 358 970 373.5 931.5 c 128,-1,3
 389 893 389 893 393 851.5 c 128,-1,4
 397 810 397 810 397 776 c 0,5,6
 397 639 397 639 347.5 565.5 c 128,-1,7
 298 492 298 492 213 492 c 0,8,9
 176 492 176 492 144.5 508 c 128,-1,10
 113 524 113 524 90 559 c 128,-1,11
 67 594 67 594 54 651 c 128,-1,12
 41 708 41 708 41 791 c 1,13,-1
 139 791 l 1,14,15
 139 671 139 671 158 622 c 128,-1,16
 177 573 177 573 217 573 c 0,17,18
 239 573 239 573 254 588 c 128,-1,19
 269 603 269 603 278 630 c 128,-1,20
 287 657 287 657 291 694 c 128,-1,21
 295 731 295 731 295 774 c 0,22,23
 295 822 295 822 288 859 c 128,-1,24
 281 896 281 896 265 922 c 128,-1,25
 249 948 249 948 222.5 962 c 128,-1,26
 196 976 196 976 158 977 c 1,27,-1
 158 1055 l 1,28,-1
 289 1286 l 1,29,-1
 145 1286 l 1,30,-1
 145 1159 l 1,31,-1
 59 1159 l 1,32,-1
 59 1374 l 1,33,-1
 393 1374 l 1,34,-1
 393 1300 l 1,35,-1
 246 1047 l 1,0,1
EndSplineSet
EndChar

StartChar: onequarter
Encoding: 188 188 280
Width: 850
Flags: W
LayerCount: 2
Fore
SplineSet
555 86 m 1,0,-1
 639 86 l 1,1,-1
 639 197 l 1,2,-1
 412 197 l 1,3,-1
 412 260 l 1,4,-1
 612 729 l 1,5,-1
 735 729 l 1,6,-1
 735 279 l 1,7,-1
 829 279 l 1,8,-1
 829 197 l 1,9,-1
 735 197 l 1,10,-1
 735 86 l 1,11,-1
 817 86 l 1,12,-1
 817 0 l 1,13,-1
 555 0 l 1,14,-1
 555 86 l 1,0,-1
639 621 m 1,15,-1
 502 279 l 1,16,-1
 639 279 l 1,17,-1
 639 621 l 1,15,-1
41 731 m 1,18,-1
 131 731 l 1,19,-1
 131 1288 l 1,20,-1
 20 1223 l 1,21,-1
 20 1309 l 1,22,-1
 131 1374 l 1,23,-1
 229 1374 l 1,24,-1
 229 731 l 1,25,-1
 319 731 l 1,26,-1
 319 645 l 1,27,-1
 41 645 l 1,28,-1
 41 731 l 1,18,-1
248 0 m 1,29,-1
 152 0 l 1,30,-1
 616 1374 l 1,31,-1
 713 1374 l 1,32,-1
 248 0 l 1,29,-1
EndSplineSet
Ligature2: "Ligature Substitution lookup 6 subtable" onesuperior slash four
Ligature2: "Ligature Substitution lookup 6 subtable" onesuperior fraction four
Ligature2: "Ligature Substitution lookup 6 subtable" one slash four
Ligature2: "Ligature Substitution lookup 6 subtable" one fraction four
EndChar

StartChar: onehalf
Encoding: 189 189 281
Width: 899
Flags: W
LayerCount: 2
Fore
SplineSet
41 731 m 1,0,-1
 131 731 l 1,1,-1
 131 1288 l 1,2,-1
 20 1223 l 1,3,-1
 20 1309 l 1,4,-1
 131 1374 l 1,5,-1
 229 1374 l 1,6,-1
 229 731 l 1,7,-1
 319 731 l 1,8,-1
 319 645 l 1,9,-1
 41 645 l 1,10,-1
 41 731 l 1,0,-1
248 0 m 1,11,-1
 152 0 l 1,12,-1
 616 1374 l 1,13,-1
 713 1374 l 1,14,-1
 248 0 l 1,11,-1
502 0 m 1,15,-1
 502 63 l 1,16,17
 563 130 563 130 608.5 189.5 c 128,-1,18
 654 249 654 249 684.5 307.5 c 128,-1,19
 715 366 715 366 730 425.5 c 128,-1,20
 745 485 745 485 745 553 c 0,21,22
 745 574 745 574 742 594 c 128,-1,23
 739 614 739 614 731.5 629 c 128,-1,24
 724 644 724 644 712 653 c 128,-1,25
 700 662 700 662 682 662 c 0,26,27
 667 662 667 662 654 652.5 c 128,-1,28
 641 643 641 643 631.5 621.5 c 128,-1,29
 622 600 622 600 616 564 c 128,-1,30
 610 528 610 528 610 475 c 1,31,-1
 508 475 l 1,32,33
 508 542 508 542 522 592 c 128,-1,34
 536 642 536 642 560 675.5 c 128,-1,35
 584 709 584 709 615.5 726 c 128,-1,36
 647 743 647 743 682 743 c 0,37,38
 723 743 723 743 754 727.5 c 128,-1,39
 785 712 785 712 806 685 c 128,-1,40
 827 658 827 658 837.5 623 c 128,-1,41
 848 588 848 588 848 549 c 0,42,43
 848 498 848 498 836 445 c 128,-1,44
 824 392 824 392 798 335 c 128,-1,45
 772 278 772 278 729.5 216 c 128,-1,46
 687 154 687 154 627 86 c 1,47,-1
 772 86 l 1,48,-1
 772 205 l 1,49,-1
 858 205 l 1,50,-1
 858 0 l 1,51,-1
 502 0 l 1,15,-1
EndSplineSet
Ligature2: "Ligature Substitution lookup 6 subtable" onesuperior slash twosuperior
Ligature2: "Ligature Substitution lookup 6 subtable" onesuperior fraction twosuperior
Ligature2: "Ligature Substitution lookup 6 subtable" one slash twosuperior
Ligature2: "Ligature Substitution lookup 6 subtable" one slash two
Ligature2: "Ligature Substitution lookup 6 subtable" one fraction twosuperior
Ligature2: "Ligature Substitution lookup 6 subtable" one fraction two
EndChar

StartChar: degree
Encoding: 176 176 283
Width: 471
Flags: W
LayerCount: 2
Fore
SplineSet
49 1198 m 0,0,1
 49 1237 49 1237 63.5 1271.5 c 128,-1,2
 78 1306 78 1306 103 1331.5 c 128,-1,3
 128 1357 128 1357 161.5 1371.5 c 128,-1,4
 195 1386 195 1386 233 1386 c 0,5,6
 272 1386 272 1386 306.5 1371.5 c 128,-1,7
 341 1357 341 1357 366.5 1331.5 c 128,-1,8
 392 1306 392 1306 407 1271.5 c 128,-1,9
 422 1237 422 1237 422 1198 c 0,10,11
 422 1160 422 1160 407 1126.5 c 128,-1,12
 392 1093 392 1093 366.5 1068 c 128,-1,13
 341 1043 341 1043 306.5 1028.5 c 128,-1,14
 272 1014 272 1014 233 1014 c 0,15,16
 195 1014 195 1014 161.5 1028.5 c 128,-1,17
 128 1043 128 1043 103 1068 c 128,-1,18
 78 1093 78 1093 63.5 1126.5 c 128,-1,19
 49 1160 49 1160 49 1198 c 0,0,1
145 1198 m 0,20,21
 145 1161 145 1161 170.5 1135.5 c 128,-1,22
 196 1110 196 1110 233 1110 c 0,23,24
 272 1110 272 1110 299 1135.5 c 128,-1,25
 326 1161 326 1161 326 1198 c 0,26,27
 326 1217 326 1217 319 1234 c 128,-1,28
 312 1251 312 1251 299 1263.5 c 128,-1,29
 286 1276 286 1276 269 1283 c 128,-1,30
 252 1290 252 1290 233 1290 c 0,31,32
 215 1290 215 1290 199 1283 c 128,-1,33
 183 1276 183 1276 171 1263.5 c 128,-1,34
 159 1251 159 1251 152 1234 c 128,-1,35
 145 1217 145 1217 145 1198 c 0,20,21
EndSplineSet
EndChar

StartChar: ordfeminine
Encoding: 170 170 284
Width: 438
Flags: W
LayerCount: 2
Fore
SplineSet
250 1053 m 1,0,1
 218 1048 218 1048 196 1036.5 c 128,-1,2
 174 1025 174 1025 160.5 1005 c 128,-1,3
 147 985 147 985 141 956 c 128,-1,4
 135 927 135 927 135 887 c 0,5,6
 135 825 135 825 145 797.5 c 128,-1,7
 155 770 155 770 180 770 c 0,8,9
 202 770 202 770 220.5 795.5 c 128,-1,10
 239 821 239 821 250 858 c 1,11,-1
 250 1053 l 1,0,1
49 1227 m 1,12,13
 53 1278 53 1278 68.5 1310 c 128,-1,14
 84 1342 84 1342 106 1360.5 c 128,-1,15
 128 1379 128 1379 155 1386 c 128,-1,16
 182 1393 182 1393 211 1393 c 0,17,18
 242 1393 242 1393 270 1384.5 c 128,-1,19
 298 1376 298 1376 318 1353 c 128,-1,20
 338 1330 338 1330 350 1290 c 128,-1,21
 362 1250 362 1250 362 1188 c 2,22,-1
 362 793 l 1,23,-1
 414 793 l 1,24,-1
 414 705 l 1,25,-1
 250 705 l 1,26,-1
 250 752 l 1,27,28
 227 720 227 720 205.5 703 c 128,-1,29
 184 686 184 686 150 686 c 0,30,31
 125 686 125 686 102.5 698.5 c 128,-1,32
 80 711 80 711 62.5 736 c 128,-1,33
 45 761 45 761 35 798 c 128,-1,34
 25 835 25 835 25 883 c 0,35,36
 25 952 25 952 41.5 996.5 c 128,-1,37
 58 1041 58 1041 87.5 1068.5 c 128,-1,38
 117 1096 117 1096 158.5 1109 c 128,-1,39
 200 1122 200 1122 250 1128 c 1,40,-1
 250 1188 l 2,41,42
 250 1224 250 1224 246.5 1247.5 c 128,-1,43
 243 1271 243 1271 237 1284.5 c 128,-1,44
 231 1298 231 1298 223 1303.5 c 128,-1,45
 215 1309 215 1309 205 1309 c 0,46,47
 183 1309 183 1309 170 1288.5 c 128,-1,48
 157 1268 157 1268 152 1212 c 1,49,-1
 49 1227 l 1,12,13
45 496 m 1,50,-1
 45 588 l 1,51,-1
 403 588 l 1,52,-1
 403 496 l 1,53,-1
 45 496 l 1,50,-1
EndSplineSet
EndChar

StartChar: ordmasculine
Encoding: 186 186 285
Width: 449
Flags: W
LayerCount: 2
Fore
SplineSet
424 1038 m 0,0,1
 424 947 424 947 409 880.5 c 128,-1,2
 394 814 394 814 367 771 c 128,-1,3
 340 728 340 728 303.5 707 c 128,-1,4
 267 686 267 686 225 686 c 0,5,6
 182 686 182 686 145.5 707 c 128,-1,7
 109 728 109 728 82 771 c 128,-1,8
 55 814 55 814 40 880.5 c 128,-1,9
 25 947 25 947 25 1038 c 0,10,11
 25 1130 25 1130 40.5 1197 c 128,-1,12
 56 1264 56 1264 83 1307.5 c 128,-1,13
 110 1351 110 1351 146.5 1372 c 128,-1,14
 183 1393 183 1393 225 1393 c 256,15,16
 267 1393 267 1393 303.5 1372 c 128,-1,17
 340 1351 340 1351 367 1307.5 c 128,-1,18
 394 1264 394 1264 409 1197 c 128,-1,19
 424 1130 424 1130 424 1038 c 0,0,1
313 1038 m 0,20,21
 313 1176 313 1176 291 1242.5 c 128,-1,22
 269 1309 269 1309 225 1309 c 0,23,24
 135 1309 135 1309 135 1038 c 0,25,26
 135 770 135 770 225 770 c 0,27,28
 313 770 313 770 313 1038 c 0,20,21
45 496 m 1,29,-1
 45 588 l 1,30,-1
 403 588 l 1,31,-1
 403 496 l 1,32,-1
 45 496 l 1,29,-1
EndSplineSet
EndChar

StartChar: plus
Encoding: 43 43 286
Width: 936
Flags: W
LayerCount: 2
Fore
SplineSet
522 631 m 1,0,-1
 522 346 l 1,1,-1
 414 346 l 1,2,-1
 414 631 l 1,3,-1
 133 631 l 1,4,-1
 133 739 l 1,5,-1
 414 739 l 1,6,-1
 414 1024 l 1,7,-1
 522 1024 l 1,8,-1
 522 739 l 1,9,-1
 803 739 l 1,10,-1
 803 631 l 1,11,-1
 522 631 l 1,0,-1
EndSplineSet
EndChar

StartChar: minus
Encoding: 8722 8722 287
Width: 936
Flags: W
LayerCount: 2
Fore
SplineSet
133 631 m 1,0,-1
 133 739 l 1,1,-1
 803 739 l 1,2,-1
 803 631 l 1,3,-1
 133 631 l 1,0,-1
EndSplineSet
EndChar

StartChar: equal
Encoding: 61 61 288
Width: 936
Flags: W
LayerCount: 2
Fore
SplineSet
113 801 m 1,0,-1
 113 909 l 1,1,-1
 823 909 l 1,2,-1
 823 801 l 1,3,-1
 113 801 l 1,0,-1
113 459 m 1,4,-1
 113 569 l 1,5,-1
 823 569 l 1,6,-1
 823 459 l 1,7,-1
 113 459 l 1,4,-1
EndSplineSet
EndChar

StartChar: notequal
Encoding: 8800 8800 289
Width: 936
Flags: W
LayerCount: 2
Fore
SplineSet
494 459 m 1,0,-1
 403 131 l 1,1,-1
 293 131 l 1,2,-1
 383 459 l 1,3,-1
 113 459 l 1,4,-1
 113 569 l 1,5,-1
 414 569 l 1,6,-1
 477 801 l 1,7,-1
 113 801 l 1,8,-1
 113 909 l 1,9,-1
 506 909 l 1,10,-1
 598 1237 l 1,11,-1
 709 1237 l 1,12,-1
 616 909 l 1,13,-1
 823 909 l 1,14,-1
 823 801 l 1,15,-1
 588 801 l 1,16,-1
 524 569 l 1,17,-1
 823 569 l 1,18,-1
 823 459 l 1,19,-1
 494 459 l 1,0,-1
EndSplineSet
EndChar

StartChar: approxequal
Encoding: 8776 8776 290
Width: 936
Flags: W
LayerCount: 2
Fore
SplineSet
823 528 m 1,0,1
 794 486 794 486 751 457 c 128,-1,2
 708 428 708 428 649 428 c 0,3,4
 605 428 605 428 556 445 c 128,-1,5
 507 462 507 462 458 482.5 c 128,-1,6
 409 503 409 503 362.5 520 c 128,-1,7
 316 537 316 537 279 537 c 0,8,9
 254 537 254 537 230.5 527 c 128,-1,10
 207 517 207 517 185.5 500.5 c 128,-1,11
 164 484 164 484 145.5 464 c 128,-1,12
 127 444 127 444 113 424 c 1,13,-1
 113 543 l 1,14,15
 128 564 128 564 147 583 c 128,-1,16
 166 602 166 602 188.5 615.5 c 128,-1,17
 211 629 211 629 235.5 637 c 128,-1,18
 260 645 260 645 285 645 c 0,19,20
 328 645 328 645 377.5 628 c 128,-1,21
 427 611 427 611 476.5 590 c 128,-1,22
 526 569 526 569 572.5 552 c 128,-1,23
 619 535 619 535 657 535 c 0,24,25
 682 535 682 535 705.5 545 c 128,-1,26
 729 555 729 555 750 571.5 c 128,-1,27
 771 588 771 588 789.5 608 c 128,-1,28
 808 628 808 628 823 649 c 1,29,-1
 823 528 l 1,0,1
823 825 m 1,30,31
 794 783 794 783 751 754 c 128,-1,32
 708 725 708 725 649 725 c 0,33,34
 605 725 605 725 556 742 c 128,-1,35
 507 759 507 759 458 779.5 c 128,-1,36
 409 800 409 800 362.5 817 c 128,-1,37
 316 834 316 834 279 834 c 0,38,39
 254 834 254 834 230.5 824 c 128,-1,40
 207 814 207 814 185.5 797.5 c 128,-1,41
 164 781 164 781 145.5 761 c 128,-1,42
 127 741 127 741 113 721 c 1,43,-1
 113 840 l 1,44,45
 128 861 128 861 147 880 c 128,-1,46
 166 899 166 899 188.5 912.5 c 128,-1,47
 211 926 211 926 235.5 934 c 128,-1,48
 260 942 260 942 285 942 c 0,49,50
 328 942 328 942 377.5 924.5 c 128,-1,51
 427 907 427 907 476.5 886.5 c 128,-1,52
 526 866 526 866 572.5 848.5 c 128,-1,53
 619 831 619 831 657 831 c 0,54,55
 682 831 682 831 705.5 841 c 128,-1,56
 729 851 729 851 750 867.5 c 128,-1,57
 771 884 771 884 789.5 904.5 c 128,-1,58
 808 925 808 925 823 946 c 1,59,-1
 823 825 l 1,30,31
EndSplineSet
EndChar

StartChar: multiply
Encoding: 215 215 291
Width: 936
Flags: W
LayerCount: 2
Fore
SplineSet
543 686 m 1,0,-1
 788 440 l 1,1,-1
 713 365 l 1,2,-1
 467 608 l 1,3,-1
 225 367 l 1,4,-1
 147 444 l 1,5,-1
 391 686 l 1,6,-1
 145 930 l 1,7,-1
 221 1008 l 1,8,-1
 467 762 l 1,9,-1
 709 1004 l 1,10,-1
 786 928 l 1,11,-1
 543 686 l 1,0,-1
EndSplineSet
EndChar

StartChar: divide
Encoding: 247 247 292
Width: 936
Flags: W
LayerCount: 2
Fore
SplineSet
133 631 m 1,0,-1
 133 739 l 1,1,-1
 803 739 l 1,2,-1
 803 631 l 1,3,-1
 133 631 l 1,0,-1
387 932 m 0,4,5
 387 969 387 969 410 993.5 c 128,-1,6
 433 1018 433 1018 467 1018 c 0,7,8
 504 1018 504 1018 528.5 993.5 c 128,-1,9
 553 969 553 969 553 932 c 0,10,11
 553 898 553 898 528.5 875 c 128,-1,12
 504 852 504 852 467 852 c 0,13,14
 433 852 433 852 410 875 c 128,-1,15
 387 898 387 898 387 932 c 0,4,5
387 432 m 0,16,17
 387 469 387 469 410 493.5 c 128,-1,18
 433 518 433 518 467 518 c 0,19,20
 504 518 504 518 528.5 493.5 c 128,-1,21
 553 469 553 469 553 432 c 0,22,23
 553 398 553 398 528.5 375 c 128,-1,24
 504 352 504 352 467 352 c 0,25,26
 433 352 433 352 410 375 c 128,-1,27
 387 398 387 398 387 432 c 0,16,17
EndSplineSet
EndChar

StartChar: logicalnot
Encoding: 172 172 293
Width: 936
Flags: W
LayerCount: 2
Fore
SplineSet
694 508 m 1,0,-1
 694 754 l 1,1,-1
 133 754 l 1,2,-1
 133 862 l 1,3,-1
 803 862 l 1,4,-1
 803 508 l 1,5,-1
 694 508 l 1,0,-1
EndSplineSet
EndChar

StartChar: plusminus
Encoding: 177 177 294
Width: 936
Flags: W
LayerCount: 2
Fore
SplineSet
133 98 m 1,0,-1
 133 207 l 1,1,-1
 803 207 l 1,2,-1
 803 98 l 1,3,-1
 133 98 l 1,0,-1
522 631 m 1,4,-1
 522 346 l 1,5,-1
 414 346 l 1,6,-1
 414 631 l 1,7,-1
 133 631 l 1,8,-1
 133 739 l 1,9,-1
 414 739 l 1,10,-1
 414 1024 l 1,11,-1
 522 1024 l 1,12,-1
 522 739 l 1,13,-1
 803 739 l 1,14,-1
 803 631 l 1,15,-1
 522 631 l 1,4,-1
EndSplineSet
EndChar

StartChar: less
Encoding: 60 60 295
Width: 936
Flags: W
LayerCount: 2
Fore
SplineSet
813 322 m 1,0,-1
 113 637 l 1,1,-1
 113 731 l 1,2,-1
 813 1047 l 1,3,-1
 813 934 l 1,4,-1
 258 684 l 1,5,-1
 813 436 l 1,6,-1
 813 322 l 1,0,-1
EndSplineSet
EndChar

StartChar: greater
Encoding: 62 62 296
Width: 936
Flags: W
LayerCount: 2
Fore
SplineSet
123 1047 m 1,0,-1
 823 731 l 1,1,-1
 823 637 l 1,2,-1
 123 322 l 1,3,-1
 123 434 l 1,4,-1
 678 684 l 1,5,-1
 123 932 l 1,6,-1
 123 1047 l 1,0,-1
EndSplineSet
EndChar

StartChar: lessequal
Encoding: 8804 8804 297
Width: 936
Flags: W
LayerCount: 2
Fore
SplineSet
133 98 m 1,0,-1
 133 207 l 1,1,-1
 803 207 l 1,2,-1
 803 98 l 1,3,-1
 133 98 l 1,0,-1
803 322 m 1,4,-1
 133 637 l 1,5,-1
 133 731 l 1,6,-1
 803 1047 l 1,7,-1
 803 934 l 1,8,-1
 279 684 l 1,9,-1
 803 436 l 1,10,-1
 803 322 l 1,4,-1
EndSplineSet
EndChar

StartChar: greaterequal
Encoding: 8805 8805 298
Width: 936
Flags: W
LayerCount: 2
Fore
SplineSet
133 98 m 1,0,-1
 133 207 l 1,1,-1
 803 207 l 1,2,-1
 803 98 l 1,3,-1
 133 98 l 1,0,-1
133 436 m 1,4,-1
 657 684 l 1,5,-1
 133 934 l 1,6,-1
 133 1047 l 1,7,-1
 803 731 l 1,8,-1
 803 637 l 1,9,-1
 133 322 l 1,10,-1
 133 436 l 1,4,-1
EndSplineSet
EndChar

StartChar: fraction
Encoding: 8260 8260 299
Width: 188
Flags: W
LayerCount: 2
Fore
SplineSet
-90 0 m 1,0,-1
 -186 0 l 1,1,-1
 279 1374 l 1,2,-1
 375 1374 l 1,3,-1
 -90 0 l 1,0,-1
EndSplineSet
EndChar

StartChar: uni2215
Encoding: 8725 8725 300
Width: 188
Flags: W
LayerCount: 2
Fore
SplineSet
-90 0 m 1,0,-1
 -186 0 l 1,1,-1
 279 1374 l 1,2,-1
 375 1374 l 1,3,-1
 -90 0 l 1,0,-1
EndSplineSet
EndChar

StartChar: bar
Encoding: 124 124 301
Width: 266
Flags: W
LayerCount: 2
Fore
SplineSet
82 -483 m 1,0,-1
 82 1565 l 1,1,-1
 184 1565 l 1,2,-1
 184 -483 l 1,3,-1
 82 -483 l 1,0,-1
EndSplineSet
EndChar

StartChar: brokenbar
Encoding: 166 166 302
Width: 266
Flags: W
LayerCount: 2
Fore
SplineSet
82 672 m 1,0,-1
 82 1430 l 1,1,-1
 184 1430 l 1,2,-1
 184 672 l 1,3,-1
 82 672 l 1,0,-1
82 -352 m 1,4,-1
 82 406 l 1,5,-1
 184 406 l 1,6,-1
 184 -352 l 1,7,-1
 82 -352 l 1,4,-1
EndSplineSet
EndChar

StartChar: at
Encoding: 64 64 303
Width: 1165
Flags: W
LayerCount: 2
Fore
SplineSet
684 436 m 1,0,1
 673 417 673 417 657 397 c 128,-1,2
 641 377 641 377 619.5 361 c 128,-1,3
 598 345 598 345 571 334.5 c 128,-1,4
 544 324 544 324 512 324 c 0,5,6
 475 324 475 324 442 337 c 128,-1,7
 409 350 409 350 383.5 379.5 c 128,-1,8
 358 409 358 409 343 457.5 c 128,-1,9
 328 506 328 506 328 578 c 0,10,11
 328 678 328 678 355.5 765 c 128,-1,12
 383 852 383 852 425.5 916 c 128,-1,13
 468 980 468 980 521 1016.5 c 128,-1,14
 574 1053 574 1053 625 1053 c 0,15,16
 643 1053 643 1053 659.5 1047.5 c 128,-1,17
 676 1042 676 1042 690 1034 c 128,-1,18
 704 1026 704 1026 715 1015.5 c 128,-1,19
 726 1005 726 1005 733 995 c 1,20,-1
 741 1038 l 1,21,-1
 860 1038 l 1,22,-1
 788 606 l 2,23,24
 786 592 786 592 783.5 577 c 128,-1,25
 781 562 781 562 779.5 549 c 128,-1,26
 778 536 778 536 777 526.5 c 128,-1,27
 776 517 776 517 776 514 c 0,28,29
 776 469 776 469 793.5 446.5 c 128,-1,30
 811 424 811 424 840 424 c 0,31,32
 871 424 871 424 898.5 452.5 c 128,-1,33
 926 481 926 481 946.5 530.5 c 128,-1,34
 967 580 967 580 979 646 c 128,-1,35
 991 712 991 712 991 788 c 0,36,37
 991 912 991 912 964 1008 c 128,-1,38
 937 1104 937 1104 887.5 1169.5 c 128,-1,39
 838 1235 838 1235 768.5 1269 c 128,-1,40
 699 1303 699 1303 614 1303 c 0,41,42
 521 1303 521 1303 441 1252.5 c 128,-1,43
 361 1202 361 1202 302.5 1114 c 128,-1,44
 244 1026 244 1026 211 907 c 128,-1,45
 178 788 178 788 178 651 c 0,46,47
 178 518 178 518 207.5 412.5 c 128,-1,48
 237 307 237 307 292 233.5 c 128,-1,49
 347 160 347 160 425 121 c 128,-1,50
 503 82 503 82 600 82 c 0,51,52
 627 82 627 82 658.5 87.5 c 128,-1,53
 690 93 690 93 724 105.5 c 128,-1,54
 758 118 758 118 792.5 138 c 128,-1,55
 827 158 827 158 860 188 c 1,56,-1
 911 78 l 1,57,58
 831 19 831 19 747 -5 c 128,-1,59
 663 -29 663 -29 573 -29 c 0,60,61
 457 -29 457 -29 361 17.5 c 128,-1,62
 265 64 265 64 196 151.5 c 128,-1,63
 127 239 127 239 89 365 c 128,-1,64
 51 491 51 491 51 651 c 256,65,66
 51 811 51 811 95.5 950 c 128,-1,67
 140 1089 140 1089 217 1192.5 c 128,-1,68
 294 1296 294 1296 396.5 1355.5 c 128,-1,69
 499 1415 499 1415 616 1415 c 0,70,71
 727 1415 727 1415 819 1370.5 c 128,-1,72
 911 1326 911 1326 976.5 1244.5 c 128,-1,73
 1042 1163 1042 1163 1078 1048 c 128,-1,74
 1114 933 1114 933 1114 793 c 0,75,76
 1114 701 1114 701 1093 616.5 c 128,-1,77
 1072 532 1072 532 1034 467 c 128,-1,78
 996 402 996 402 942.5 363 c 128,-1,79
 889 324 889 324 825 324 c 0,80,81
 808 324 808 324 788.5 329 c 128,-1,82
 769 334 769 334 749.5 346.5 c 128,-1,83
 730 359 730 359 713 380.5 c 128,-1,84
 696 402 696 402 684 436 c 1,0,1
545 418 m 0,85,86
 573 418 573 418 603.5 446 c 128,-1,87
 634 474 634 474 657 543 c 1,88,-1
 713 887 l 1,89,90
 705 913 705 913 685 935.5 c 128,-1,91
 665 958 665 958 633 958 c 0,92,93
 605 958 605 958 574 928 c 128,-1,94
 543 898 543 898 516.5 847 c 128,-1,95
 490 796 490 796 472.5 728 c 128,-1,96
 455 660 455 660 455 584 c 0,97,98
 455 535 455 535 461.5 503 c 128,-1,99
 468 471 468 471 480 452 c 128,-1,100
 492 433 492 433 508.5 425.5 c 128,-1,101
 525 418 525 418 545 418 c 0,85,86
EndSplineSet
EndChar

StartChar: bullet
Encoding: 8226 8226 304
Width: 510
Flags: W
LayerCount: 2
Fore
SplineSet
102 733 m 0,0,1
 102 764 102 764 114 792 c 128,-1,2
 126 820 126 820 146.5 841 c 128,-1,3
 167 862 167 862 194.5 874.5 c 128,-1,4
 222 887 222 887 254 887 c 0,5,6
 285 887 285 887 313 874.5 c 128,-1,7
 341 862 341 862 362 841 c 128,-1,8
 383 820 383 820 395.5 792 c 128,-1,9
 408 764 408 764 408 733 c 0,10,11
 408 701 408 701 395.5 673.5 c 128,-1,12
 383 646 383 646 362 626 c 128,-1,13
 341 606 341 606 313 594 c 128,-1,14
 285 582 285 582 254 582 c 0,15,16
 222 582 222 582 194.5 594 c 128,-1,17
 167 606 167 606 146.5 626 c 128,-1,18
 126 646 126 646 114 673.5 c 128,-1,19
 102 701 102 701 102 733 c 0,0,1
EndSplineSet
EndChar

StartChar: asciicircum
Encoding: 94 94 305
Width: 434
Flags: W
LayerCount: 2
Fore
SplineSet
295 825 m 1,0,-1
 217 1176 l 1,1,-1
 139 825 l 1,2,-1
 31 825 l 1,3,-1
 168 1374 l 1,4,-1
 266 1374 l 1,5,-1
 403 825 l 1,6,-1
 295 825 l 1,0,-1
EndSplineSet
EndChar

StartChar: asciitilde
Encoding: 126 126 306
Width: 936
Flags: W
LayerCount: 2
Fore
SplineSet
844 678 m 1,0,1
 829 657 829 657 808 639 c 128,-1,2
 787 621 787 621 761.5 607.5 c 128,-1,3
 736 594 736 594 707 586 c 128,-1,4
 678 578 678 578 649 578 c 0,5,6
 605 578 605 578 557 595 c 128,-1,7
 509 612 509 612 461 632 c 128,-1,8
 413 652 413 652 366.5 669 c 128,-1,9
 320 686 320 686 279 686 c 0,10,11
 254 686 254 686 227 676 c 128,-1,12
 200 666 200 666 174.5 650 c 128,-1,13
 149 634 149 634 127.5 613.5 c 128,-1,14
 106 593 106 593 92 573 c 1,15,-1
 92 692 l 1,16,17
 107 714 107 714 129.5 732.5 c 128,-1,18
 152 751 152 751 178.5 765 c 128,-1,19
 205 779 205 779 232.5 787 c 128,-1,20
 260 795 260 795 285 795 c 0,21,22
 328 795 328 795 376.5 777.5 c 128,-1,23
 425 760 425 760 474 739.5 c 128,-1,24
 523 719 523 719 569.5 701.5 c 128,-1,25
 616 684 616 684 657 684 c 0,26,27
 682 684 682 684 708.5 694 c 128,-1,28
 735 704 735 704 760.5 720.5 c 128,-1,29
 786 737 786 737 807.5 757.5 c 128,-1,30
 829 778 829 778 844 799 c 1,31,-1
 844 678 l 1,32,-1
 844 678 l 1,0,1
EndSplineSet
EndChar

StartChar: slash
Encoding: 47 47 307
Width: 477
Flags: W
LayerCount: 2
Fore
SplineSet
162 -41 m 1,0,-1
 45 -41 l 1,1,-1
 315 1436 l 1,2,-1
 432 1436 l 1,3,-1
 162 -41 l 1,0,-1
EndSplineSet
EndChar

StartChar: backslash
Encoding: 92 92 308
Width: 477
Flags: W
LayerCount: 2
Fore
SplineSet
45 1436 m 1,0,-1
 162 1436 l 1,1,-1
 432 -41 l 1,2,-1
 315 -41 l 1,3,-1
 45 1436 l 1,0,-1
EndSplineSet
EndChar

StartChar: quotesingle
Encoding: 39 39 309
Width: 205
Flags: W
LayerCount: 2
Fore
SplineSet
61 969 m 1,0,-1
 41 1374 l 1,1,-1
 164 1374 l 1,2,-1
 143 969 l 1,3,-1
 61 969 l 1,0,-1
EndSplineSet
EndChar

StartChar: quotedbl
Encoding: 34 34 310
Width: 389
Flags: W
LayerCount: 2
Fore
SplineSet
61 969 m 1,0,-1
 41 1374 l 1,1,-1
 164 1374 l 1,2,-1
 143 969 l 1,3,-1
 61 969 l 1,0,-1
246 969 m 1,4,-1
 225 1374 l 1,5,-1
 348 1374 l 1,6,-1
 328 969 l 1,7,-1
 246 969 l 1,4,-1
EndSplineSet
EndChar

StartChar: ampersand
Encoding: 38 38 311
Width: 862
Flags: W
LayerCount: 2
Fore
SplineSet
809 313 m 1,0,1
 793 156 793 156 739.5 69 c 128,-1,2
 686 -18 686 -18 604 -18 c 0,3,4
 583 -18 583 -18 566.5 -14 c 128,-1,5
 550 -10 550 -10 535 -1.5 c 128,-1,6
 520 7 520 7 505 19 c 128,-1,7
 490 31 490 31 473 47 c 1,8,9
 436 9 436 9 394 -9 c 128,-1,10
 352 -27 352 -27 293 -27 c 0,11,12
 243 -27 243 -27 198.5 -7 c 128,-1,13
 154 13 154 13 121 56 c 128,-1,14
 88 99 88 99 68.5 167 c 128,-1,15
 49 235 49 235 49 332 c 0,16,17
 49 400 49 400 62 460.5 c 128,-1,18
 75 521 75 521 96.5 574 c 128,-1,19
 118 627 118 627 146 673 c 128,-1,20
 174 719 174 719 205 758 c 1,21,22
 194 796 194 796 183 839.5 c 128,-1,23
 172 883 172 883 163 927.5 c 128,-1,24
 154 972 154 972 148.5 1016 c 128,-1,25
 143 1060 143 1060 143 1100 c 0,26,27
 143 1178 143 1178 158.5 1234.5 c 128,-1,28
 174 1291 174 1291 201.5 1327.5 c 128,-1,29
 229 1364 229 1364 266 1381.5 c 128,-1,30
 303 1399 303 1399 346 1399 c 0,31,32
 383 1399 383 1399 416 1381.5 c 128,-1,33
 449 1364 449 1364 473.5 1332.5 c 128,-1,34
 498 1301 498 1301 512 1255.5 c 128,-1,35
 526 1210 526 1210 526 1155 c 0,36,37
 526 1087 526 1087 508.5 1027.5 c 128,-1,38
 491 968 491 968 464 915.5 c 128,-1,39
 437 863 437 863 404 818 c 128,-1,40
 371 773 371 773 340 735 c 1,41,42
 355 678 355 678 372.5 616 c 128,-1,43
 390 554 390 554 409 491.5 c 128,-1,44
 428 429 428 429 447.5 370 c 128,-1,45
 467 311 467 311 487 260 c 1,46,47
 503 300 503 300 515.5 344 c 128,-1,48
 528 388 528 388 537 432 c 128,-1,49
 546 476 546 476 552 519 c 128,-1,50
 558 562 558 562 561 600 c 1,51,-1
 463 600 l 1,52,-1
 463 713 l 1,53,-1
 774 713 l 1,54,-1
 774 600 l 1,55,-1
 672 600 l 1,56,57
 665 549 665 549 655 489.5 c 128,-1,58
 645 430 645 430 630 369.5 c 128,-1,59
 615 309 615 309 594 250.5 c 128,-1,60
 573 192 573 192 545 141 c 1,61,62
 562 117 562 117 578.5 101.5 c 128,-1,63
 595 86 595 86 610 86 c 0,64,65
 631 86 631 86 647.5 102 c 128,-1,66
 664 118 664 118 676 148 c 128,-1,67
 688 178 688 178 696.5 220 c 128,-1,68
 705 262 705 262 711 313 c 1,69,-1
 809 313 l 1,0,1
311 78 m 0,70,71
 343 78 343 78 369 93 c 128,-1,72
 395 108 395 108 420 139 c 1,73,74
 391 196 391 196 364 267 c 128,-1,75
 337 338 337 338 314.5 407.5 c 128,-1,76
 292 477 292 477 274 536.5 c 128,-1,77
 256 596 256 596 246 631 c 1,78,79
 214 586 214 586 193 510 c 128,-1,80
 172 434 172 434 172 340 c 0,81,82
 172 289 172 289 180.5 241.5 c 128,-1,83
 189 194 189 194 206 157.5 c 128,-1,84
 223 121 223 121 249.5 99.5 c 128,-1,85
 276 78 276 78 311 78 c 0,70,71
262 1102 m 0,86,87
 262 1040 262 1040 274 974 c 128,-1,88
 286 908 286 908 301 858 c 1,89,90
 330 895 330 895 350.5 927 c 128,-1,91
 371 959 371 959 383.5 992 c 128,-1,92
 396 1025 396 1025 402 1062 c 128,-1,93
 408 1099 408 1099 408 1147 c 0,94,95
 408 1174 408 1174 404.5 1200.5 c 128,-1,96
 401 1227 401 1227 393 1247.5 c 128,-1,97
 385 1268 385 1268 373 1281 c 128,-1,98
 361 1294 361 1294 344 1294 c 0,99,100
 310 1294 310 1294 286 1250 c 128,-1,101
 262 1206 262 1206 262 1102 c 0,86,87
EndSplineSet
EndChar

StartChar: parenleft
Encoding: 40 40 312
Width: 440
Flags: W
LayerCount: 2
Fore
SplineSet
195 684 m 256,0,1
 195 571 195 571 208 461.5 c 128,-1,2
 221 352 221 352 244.5 253.5 c 128,-1,3
 268 155 268 155 301 70.5 c 128,-1,4
 334 -14 334 -14 375 -76 c 1,5,-1
 293 -141 l 1,6,7
 242 -71 242 -71 200 19.5 c 128,-1,8
 158 110 158 110 128 215.5 c 128,-1,9
 98 321 98 321 82 439 c 128,-1,10
 66 557 66 557 66 684 c 256,11,12
 66 811 66 811 82 929 c 128,-1,13
 98 1047 98 1047 128 1152.5 c 128,-1,14
 158 1258 158 1258 200 1348 c 128,-1,15
 242 1438 242 1438 293 1509 c 1,16,-1
 375 1444 l 1,17,18
 334 1382 334 1382 301 1297.5 c 128,-1,19
 268 1213 268 1213 244.5 1114.5 c 128,-1,20
 221 1016 221 1016 208 906.5 c 128,-1,21
 195 797 195 797 195 684 c 256,0,1
EndSplineSet
EndChar

StartChar: parenright
Encoding: 41 41 313
Width: 440
Flags: W
LayerCount: 2
Fore
SplineSet
246 684 m 256,0,1
 246 797 246 797 233 906.5 c 128,-1,2
 220 1016 220 1016 196.5 1114.5 c 128,-1,3
 173 1213 173 1213 139.5 1297.5 c 128,-1,4
 106 1382 106 1382 66 1444 c 1,5,-1
 147 1509 l 1,6,7
 199 1438 199 1438 241 1348 c 128,-1,8
 283 1258 283 1258 313 1152.5 c 128,-1,9
 343 1047 343 1047 359 929 c 128,-1,10
 375 811 375 811 375 684 c 256,11,12
 375 557 375 557 359 439 c 128,-1,13
 343 321 343 321 313 215.5 c 128,-1,14
 283 110 283 110 241 19.5 c 128,-1,15
 199 -71 199 -71 147 -141 c 1,16,-1
 66 -76 l 1,17,18
 106 -14 106 -14 139.5 70.5 c 128,-1,19
 173 155 173 155 196.5 253.5 c 128,-1,20
 220 352 220 352 233 461.5 c 128,-1,21
 246 571 246 571 246 684 c 256,0,1
EndSplineSet
EndChar

StartChar: bracketleft
Encoding: 91 91 314
Width: 453
Flags: W
LayerCount: 2
Fore
SplineSet
102 -121 m 1,0,-1
 102 1489 l 1,1,-1
 356 1489 l 1,2,-1
 356 1382 l 1,3,-1
 227 1382 l 1,4,-1
 227 -14 l 1,5,-1
 356 -14 l 1,6,-1
 356 -121 l 1,7,-1
 102 -121 l 1,0,-1
EndSplineSet
EndChar

StartChar: bracketright
Encoding: 93 93 315
Width: 453
Flags: W
LayerCount: 2
Fore
SplineSet
96 -121 m 1,0,-1
 96 -14 l 1,1,-1
 225 -14 l 1,2,-1
 225 1382 l 1,3,-1
 96 1382 l 1,4,-1
 96 1489 l 1,5,-1
 350 1489 l 1,6,-1
 350 -121 l 1,7,-1
 96 -121 l 1,0,-1
EndSplineSet
EndChar

StartChar: braceleft
Encoding: 123 123 316
Width: 442
Flags: W
LayerCount: 2
Fore
SplineSet
123 354 m 2,0,1
 123 429 123 429 119.5 482 c 128,-1,2
 116 535 116 535 105 569 c 128,-1,3
 94 603 94 603 73.5 619 c 128,-1,4
 53 635 53 635 18 635 c 2,5,-1
 -2 635 l 1,6,-1
 -2 737 l 1,7,-1
 18 737 l 2,8,9
 54 737 54 737 74.5 753.5 c 128,-1,10
 95 770 95 770 106 804.5 c 128,-1,11
 117 839 117 839 120 892.5 c 128,-1,12
 123 946 123 946 123 1020 c 2,13,-1
 123 1184 l 2,14,15
 123 1277 123 1277 133 1336.5 c 128,-1,16
 143 1396 143 1396 165 1429.5 c 128,-1,17
 187 1463 187 1463 220.5 1476 c 128,-1,18
 254 1489 254 1489 301 1489 c 2,19,-1
 360 1489 l 1,20,-1
 360 1382 l 1,21,-1
 326 1382 l 2,22,23
 306 1382 306 1382 291.5 1378 c 128,-1,24
 277 1374 277 1374 267.5 1358 c 128,-1,25
 258 1342 258 1342 253 1309 c 128,-1,26
 248 1276 248 1276 248 1219 c 2,27,-1
 248 1020 l 2,28,29
 248 964 248 964 246.5 910 c 128,-1,30
 245 856 245 856 233 811 c 128,-1,31
 221 766 221 766 194.5 733 c 128,-1,32
 168 700 168 700 119 686 c 1,33,34
 167 671 167 671 193.5 638.5 c 128,-1,35
 220 606 220 606 232 561 c 128,-1,36
 244 516 244 516 246 462 c 128,-1,37
 248 408 248 408 248 352 c 2,38,-1
 248 150 l 2,39,40
 248 92 248 92 253 59.5 c 128,-1,41
 258 27 258 27 267.5 10.5 c 128,-1,42
 277 -6 277 -6 291.5 -10 c 128,-1,43
 306 -14 306 -14 326 -14 c 2,44,-1
 360 -14 l 1,45,-1
 360 -121 l 1,46,-1
 301 -121 l 2,47,48
 254 -121 254 -121 220.5 -108 c 128,-1,49
 187 -95 187 -95 165 -61 c 128,-1,50
 143 -27 143 -27 133 32 c 128,-1,51
 123 91 123 91 123 184 c 2,52,-1
 123 354 l 2,0,1
EndSplineSet
EndChar

StartChar: braceright
Encoding: 125 125 317
Width: 442
Flags: W
LayerCount: 2
Fore
SplineSet
319 184 m 2,0,1
 319 91 319 91 309 32 c 128,-1,2
 299 -27 299 -27 277 -61 c 128,-1,3
 255 -95 255 -95 221.5 -108 c 128,-1,4
 188 -121 188 -121 141 -121 c 2,5,-1
 82 -121 l 1,6,-1
 82 -14 l 1,7,-1
 117 -14 l 2,8,9
 136 -14 136 -14 150.5 -10 c 128,-1,10
 165 -6 165 -6 175 10.5 c 128,-1,11
 185 27 185 27 190 59.5 c 128,-1,12
 195 92 195 92 195 150 c 2,13,-1
 195 352 l 2,14,15
 195 408 195 408 197 462 c 128,-1,16
 199 516 199 516 211 561 c 128,-1,17
 223 606 223 606 249.5 638.5 c 128,-1,18
 276 671 276 671 324 686 c 1,19,20
 275 700 275 700 248.5 733 c 128,-1,21
 222 766 222 766 210 811 c 128,-1,22
 198 856 198 856 196.5 910 c 128,-1,23
 195 964 195 964 195 1020 c 2,24,-1
 195 1219 l 2,25,26
 195 1276 195 1276 190 1309 c 128,-1,27
 185 1342 185 1342 175 1358 c 128,-1,28
 165 1374 165 1374 150.5 1378 c 128,-1,29
 136 1382 136 1382 117 1382 c 2,30,-1
 82 1382 l 1,31,-1
 82 1489 l 1,32,-1
 141 1489 l 2,33,34
 188 1489 188 1489 221.5 1476 c 128,-1,35
 255 1463 255 1463 277 1429.5 c 128,-1,36
 299 1396 299 1396 309 1336.5 c 128,-1,37
 319 1277 319 1277 319 1184 c 2,38,-1
 319 1020 l 2,39,40
 319 946 319 946 322 892.5 c 128,-1,41
 325 839 325 839 336 804.5 c 128,-1,42
 347 770 347 770 368 753.5 c 128,-1,43
 389 737 389 737 424 737 c 2,44,-1
 444 737 l 1,45,-1
 444 635 l 1,46,-1
 424 635 l 2,47,48
 389 635 389 635 368.5 619 c 128,-1,49
 348 603 348 603 337 569 c 128,-1,50
 326 535 326 535 322.5 482 c 128,-1,51
 319 429 319 429 319 354 c 2,52,-1
 319 184 l 2,0,1
EndSplineSet
EndChar

StartChar: asterisk
Encoding: 42 42 318
Width: 645
Flags: W
LayerCount: 2
Fore
SplineSet
539 938 m 1,0,-1
 360 1047 l 1,1,2
 362 1000 362 1000 365.5 949 c 128,-1,3
 369 898 369 898 371 852 c 1,4,-1
 274 852 l 1,5,-1
 285 1049 l 1,6,7
 241 1023 241 1023 196.5 993 c 128,-1,8
 152 963 152 963 109 938 c 1,9,-1
 61 1014 l 1,10,-1
 246 1112 l 1,11,12
 199 1137 199 1137 152.5 1163 c 128,-1,13
 106 1189 106 1189 61 1212 c 1,14,-1
 109 1288 l 1,15,-1
 285 1182 l 1,16,17
 283 1228 283 1228 279.5 1278.5 c 128,-1,18
 276 1329 276 1329 274 1374 c 1,19,-1
 371 1374 l 1,20,-1
 360 1182 l 1,21,22
 405 1208 405 1208 450 1235.5 c 128,-1,23
 495 1263 495 1263 539 1288 c 1,24,-1
 584 1212 l 1,25,-1
 397 1112 l 1,26,27
 442 1089 442 1089 489.5 1064 c 128,-1,28
 537 1039 537 1039 584 1014 c 1,29,-1
 539 938 l 1,0,-1
EndSplineSet
EndChar

StartChar: dagger
Encoding: 8224 8224 319
Width: 573
Flags: W
LayerCount: 2
Fore
SplineSet
41 1006 m 1,0,-1
 225 1006 l 1,1,-1
 225 1374 l 1,2,-1
 348 1374 l 1,3,-1
 348 1006 l 1,4,-1
 532 1006 l 1,5,-1
 532 891 l 1,6,-1
 348 891 l 1,7,-1
 348 -23 l 1,8,-1
 225 -23 l 1,9,-1
 225 891 l 1,10,-1
 41 891 l 1,11,-1
 41 1006 l 1,0,-1
EndSplineSet
EndChar

StartChar: daggerdbl
Encoding: 8225 8225 320
Width: 573
Flags: W
LayerCount: 2
Fore
SplineSet
41 1006 m 1,0,-1
 225 1006 l 1,1,-1
 225 1374 l 1,2,-1
 348 1374 l 1,3,-1
 348 1006 l 1,4,-1
 532 1006 l 1,5,-1
 532 891 l 1,6,-1
 348 891 l 1,7,-1
 348 575 l 1,8,-1
 532 575 l 1,9,-1
 532 461 l 1,10,-1
 348 461 l 1,11,-1
 348 -23 l 1,12,-1
 225 -23 l 1,13,-1
 225 461 l 1,14,-1
 41 461 l 1,15,-1
 41 575 l 1,16,-1
 225 575 l 1,17,-1
 225 891 l 1,18,-1
 41 891 l 1,19,-1
 41 1006 l 1,0,-1
EndSplineSet
EndChar

StartChar: section
Encoding: 167 167 321
Width: 543
Flags: W
LayerCount: 2
Fore
SplineSet
387 408 m 1,0,1
 418 370 418 370 438.5 322 c 128,-1,2
 459 274 459 274 459 209 c 0,3,4
 459 149 459 149 442.5 104.5 c 128,-1,5
 426 60 426 60 398.5 31 c 128,-1,6
 371 2 371 2 334 -12.5 c 128,-1,7
 297 -27 297 -27 256 -27 c 256,8,9
 215 -27 215 -27 182.5 -13 c 128,-1,10
 150 1 150 1 124.5 25 c 128,-1,11
 99 49 99 49 81 79.5 c 128,-1,12
 63 110 63 110 51 143 c 1,13,-1
 154 201 l 1,14,15
 161 177 161 177 170.5 154.5 c 128,-1,16
 180 132 180 132 192.5 114.5 c 128,-1,17
 205 97 205 97 221 86.5 c 128,-1,18
 237 76 237 76 258 76 c 0,19,20
 295 76 295 76 317.5 111.5 c 128,-1,21
 340 147 340 147 340 203 c 256,22,23
 340 259 340 259 318.5 301 c 128,-1,24
 297 343 297 343 264.5 379 c 128,-1,25
 232 415 232 415 194.5 448.5 c 128,-1,26
 157 482 157 482 124.5 520 c 128,-1,27
 92 558 92 558 70.5 605 c 128,-1,28
 49 652 49 652 49 715 c 0,29,30
 49 761 49 761 57.5 798 c 128,-1,31
 66 835 66 835 81.5 865 c 128,-1,32
 97 895 97 895 117.5 918.5 c 128,-1,33
 138 942 138 942 162 961 c 1,34,35
 133 998 133 998 111.5 1046.5 c 128,-1,36
 90 1095 90 1095 90 1161 c 0,37,38
 90 1218 90 1218 105.5 1262 c 128,-1,39
 121 1306 121 1306 147 1336 c 128,-1,40
 173 1366 173 1366 207.5 1381.5 c 128,-1,41
 242 1397 242 1397 281 1397 c 0,42,43
 314 1397 314 1397 343 1384 c 128,-1,44
 372 1371 372 1371 395.5 1349 c 128,-1,45
 419 1327 419 1327 437 1297.5 c 128,-1,46
 455 1268 455 1268 467 1235 c 1,47,-1
 367 1178 l 1,48,49
 362 1196 362 1196 354 1216.5 c 128,-1,50
 346 1237 346 1237 335 1254.5 c 128,-1,51
 324 1272 324 1272 311 1283 c 128,-1,52
 298 1294 298 1294 283 1294 c 0,53,54
 254 1294 254 1294 231.5 1260 c 128,-1,55
 209 1226 209 1226 209 1167 c 0,56,57
 209 1113 209 1113 230 1072 c 128,-1,58
 251 1031 251 1031 283 995.5 c 128,-1,59
 315 960 315 960 351.5 926.5 c 128,-1,60
 388 893 388 893 420 854 c 128,-1,61
 452 815 452 815 473 767 c 128,-1,62
 494 719 494 719 494 655 c 0,63,64
 494 608 494 608 485.5 571.5 c 128,-1,65
 477 535 477 535 462.5 505.5 c 128,-1,66
 448 476 448 476 428.5 452.5 c 128,-1,67
 409 429 409 429 387 408 c 1,0,1
373 627 m 0,68,69
 373 679 373 679 359.5 716.5 c 128,-1,70
 346 754 346 754 324.5 784 c 128,-1,71
 303 814 303 814 276 840 c 128,-1,72
 249 866 249 866 221 895 c 1,73,74
 213 886 213 886 204 873.5 c 128,-1,75
 195 861 195 861 187.5 843.5 c 128,-1,76
 180 826 180 826 175 801.5 c 128,-1,77
 170 777 170 777 170 743 c 0,78,79
 170 690 170 690 184 653 c 128,-1,80
 198 616 198 616 220 586.5 c 128,-1,81
 242 557 242 557 269.5 531 c 128,-1,82
 297 505 297 505 324 475 c 1,83,84
 341 495 341 495 357 534 c 128,-1,85
 373 573 373 573 373 627 c 0,68,69
EndSplineSet
EndChar

StartChar: paragraph
Encoding: 182 182 322
Width: 709
Flags: W
LayerCount: 2
Fore
SplineSet
195 0 m 1,0,-1
 195 92 l 1,1,-1
 297 92 l 1,2,-1
 297 674 l 1,3,4
 249 674 249 674 203 690 c 128,-1,5
 157 706 157 706 121 745.5 c 128,-1,6
 85 785 85 785 63 852.5 c 128,-1,7
 41 920 41 920 41 1024 c 0,8,9
 41 1127 41 1127 64.5 1195 c 128,-1,10
 88 1263 88 1263 127 1302.5 c 128,-1,11
 166 1342 166 1342 215.5 1358 c 128,-1,12
 265 1374 265 1374 317 1374 c 2,13,-1
 664 1374 l 1,14,-1
 664 1282 l 1,15,-1
 561 1282 l 1,16,-1
 561 92 l 1,17,-1
 664 92 l 1,18,-1
 664 0 l 1,19,-1
 195 0 l 1,0,-1
387 92 m 1,20,-1
 471 92 l 1,21,-1
 471 1282 l 1,22,-1
 387 1282 l 1,23,-1
 387 92 l 1,20,-1
EndSplineSet
EndChar

StartChar: trademark
Encoding: 8482 8482 325
Width: 1024
Flags: W
LayerCount: 2
Fore
SplineSet
49 1186 m 1,0,-1
 49 1374 l 1,1,-1
 412 1374 l 1,2,-1
 412 1186 l 1,3,-1
 342 1186 l 1,4,-1
 342 1311 l 1,5,-1
 270 1311 l 1,6,-1
 270 842 l 1,7,-1
 340 842 l 1,8,-1
 340 776 l 1,9,-1
 121 776 l 1,10,-1
 121 842 l 1,11,-1
 190 842 l 1,12,-1
 190 1311 l 1,13,-1
 119 1311 l 1,14,-1
 119 1186 l 1,15,-1
 49 1186 l 1,0,-1
436 1374 m 1,16,-1
 625 1374 l 1,17,-1
 707 973 l 1,18,-1
 786 1374 l 1,19,-1
 975 1374 l 1,20,-1
 975 1309 l 1,21,-1
 918 1309 l 1,22,-1
 918 842 l 1,23,-1
 975 842 l 1,24,-1
 975 776 l 1,25,-1
 786 776 l 1,26,-1
 786 842 l 1,27,-1
 838 842 l 1,28,-1
 838 1276 l 1,29,-1
 731 776 l 1,30,-1
 680 776 l 1,31,-1
 573 1278 l 1,32,-1
 573 842 l 1,33,-1
 625 842 l 1,34,-1
 625 776 l 1,35,-1
 436 776 l 1,36,-1
 436 842 l 1,37,-1
 496 842 l 1,38,-1
 496 1309 l 1,39,-1
 436 1309 l 1,40,-1
 436 1374 l 1,16,-1
EndSplineSet
EndChar

StartChar: period
Encoding: 46 46 326
Width: 309
Flags: W
LayerCount: 2
Fore
SplineSet
49 94 m 256,0,1
 49 116 49 116 57 136 c 128,-1,2
 65 156 65 156 79 170 c 128,-1,3
 93 184 93 184 112 192.5 c 128,-1,4
 131 201 131 201 154 201 c 0,5,6
 176 201 176 201 195.5 192.5 c 128,-1,7
 215 184 215 184 229 170 c 128,-1,8
 243 156 243 156 251.5 136 c 128,-1,9
 260 116 260 116 260 94 c 0,10,11
 260 49 260 49 229.5 19.5 c 128,-1,12
 199 -10 199 -10 154 -10 c 0,13,14
 131 -10 131 -10 112 -2 c 128,-1,15
 93 6 93 6 79 20 c 128,-1,16
 65 34 65 34 57 53 c 128,-1,17
 49 72 49 72 49 94 c 256,0,1
EndSplineSet
EndChar

StartChar: comma
Encoding: 44 44 327
Width: 309
Flags: W
LayerCount: 2
Fore
SplineSet
49 94 m 0,0,1
 49 116 49 116 57 136 c 128,-1,2
 65 156 65 156 79 170 c 128,-1,3
 93 184 93 184 112 192.5 c 128,-1,4
 131 201 131 201 154 201 c 0,5,6
 200 201 200 201 230 170 c 128,-1,7
 260 139 260 139 260 82 c 0,8,9
 260 40 260 40 249 -2 c 128,-1,10
 238 -44 238 -44 219 -83 c 128,-1,11
 200 -122 200 -122 175.5 -156.5 c 128,-1,12
 151 -191 151 -191 123 -219 c 1,13,-1
 66 -172 l 1,14,15
 98 -137 98 -137 123 -98.5 c 128,-1,16
 148 -60 148 -60 156 -10 c 1,17,18
 127 -10 127 -10 106.5 -1 c 128,-1,19
 86 8 86 8 73 23 c 128,-1,20
 60 38 60 38 54.5 56.5 c 128,-1,21
 49 75 49 75 49 94 c 0,0,1
EndSplineSet
EndChar

StartChar: colon
Encoding: 58 58 328
Width: 391
Flags: W
LayerCount: 2
Fore
SplineSet
90 94 m 256,0,1
 90 116 90 116 98 136 c 128,-1,2
 106 156 106 156 120 170 c 128,-1,3
 134 184 134 184 153 192.5 c 128,-1,4
 172 201 172 201 195 201 c 0,5,6
 217 201 217 201 236.5 192.5 c 128,-1,7
 256 184 256 184 270 170 c 128,-1,8
 284 156 284 156 292.5 136 c 128,-1,9
 301 116 301 116 301 94 c 0,10,11
 301 49 301 49 270.5 19.5 c 128,-1,12
 240 -10 240 -10 195 -10 c 0,13,14
 172 -10 172 -10 153 -2 c 128,-1,15
 134 6 134 6 120 20 c 128,-1,16
 106 34 106 34 98 53 c 128,-1,17
 90 72 90 72 90 94 c 256,0,1
90 709 m 0,18,19
 90 731 90 731 98 750.5 c 128,-1,20
 106 770 106 770 120 784 c 128,-1,21
 134 798 134 798 153 806.5 c 128,-1,22
 172 815 172 815 195 815 c 0,23,24
 240 815 240 815 270.5 784.5 c 128,-1,25
 301 754 301 754 301 709 c 0,26,27
 301 686 301 686 292.5 667 c 128,-1,28
 284 648 284 648 270 634 c 128,-1,29
 256 620 256 620 236.5 612 c 128,-1,30
 217 604 217 604 195 604 c 0,31,32
 150 604 150 604 120 634 c 128,-1,33
 90 664 90 664 90 709 c 0,18,19
EndSplineSet
EndChar

StartChar: semicolon
Encoding: 59 59 329
Width: 391
Flags: W
LayerCount: 2
Fore
SplineSet
90 709 m 0,0,1
 90 731 90 731 98 750.5 c 128,-1,2
 106 770 106 770 120 784 c 128,-1,3
 134 798 134 798 153 806.5 c 128,-1,4
 172 815 172 815 195 815 c 0,5,6
 240 815 240 815 270.5 784.5 c 128,-1,7
 301 754 301 754 301 709 c 0,8,9
 301 686 301 686 292.5 667 c 128,-1,10
 284 648 284 648 270 634 c 128,-1,11
 256 620 256 620 236.5 612 c 128,-1,12
 217 604 217 604 195 604 c 0,13,14
 150 604 150 604 120 634 c 128,-1,15
 90 664 90 664 90 709 c 0,0,1
90 94 m 0,16,17
 90 116 90 116 98 136 c 128,-1,18
 106 156 106 156 120 170 c 128,-1,19
 134 184 134 184 153 192.5 c 128,-1,20
 172 201 172 201 195 201 c 0,21,22
 241 201 241 201 271 170 c 128,-1,23
 301 139 301 139 301 82 c 0,24,25
 301 40 301 40 290 -2 c 128,-1,26
 279 -44 279 -44 260 -83 c 128,-1,27
 241 -122 241 -122 216.5 -156.5 c 128,-1,28
 192 -191 192 -191 164 -219 c 1,29,-1
 106 -172 l 1,30,31
 139 -137 139 -137 164 -98.5 c 128,-1,32
 189 -60 189 -60 197 -10 c 1,33,34
 168 -10 168 -10 147.5 -1 c 128,-1,35
 127 8 127 8 114 23 c 128,-1,36
 101 38 101 38 95.5 56.5 c 128,-1,37
 90 75 90 75 90 94 c 0,16,17
EndSplineSet
EndChar

StartChar: exclam
Encoding: 33 33 330
Width: 391
Flags: W
LayerCount: 2
Fore
SplineSet
238 328 m 1,0,-1
 154 328 l 1,1,-1
 125 1157 l 1,2,-1
 125 1323 l 2,3,4
 125 1352 125 1352 140.5 1375.5 c 128,-1,5
 156 1399 156 1399 195 1399 c 0,6,7
 233 1399 233 1399 249.5 1375.5 c 128,-1,8
 266 1352 266 1352 266 1323 c 2,9,-1
 266 1157 l 1,10,-1
 238 328 l 1,0,-1
90 94 m 256,11,12
 90 116 90 116 98 136 c 128,-1,13
 106 156 106 156 120 170 c 128,-1,14
 134 184 134 184 153 192.5 c 128,-1,15
 172 201 172 201 195 201 c 0,16,17
 217 201 217 201 236.5 192.5 c 128,-1,18
 256 184 256 184 270 170 c 128,-1,19
 284 156 284 156 292.5 136 c 128,-1,20
 301 116 301 116 301 94 c 0,21,22
 301 49 301 49 270.5 19.5 c 128,-1,23
 240 -10 240 -10 195 -10 c 0,24,25
 172 -10 172 -10 153 -2 c 128,-1,26
 134 6 134 6 120 20 c 128,-1,27
 106 34 106 34 98 53 c 128,-1,28
 90 72 90 72 90 94 c 256,11,12
EndSplineSet
EndChar

StartChar: exclamdown
Encoding: 161 161 331
Width: 391
Flags: W
LayerCount: 2
Fore
SplineSet
154 713 m 1,0,-1
 238 713 l 1,1,-1
 266 -117 l 1,2,-1
 266 -283 l 2,3,4
 266 -312 266 -312 250.5 -335 c 128,-1,5
 235 -358 235 -358 197 -358 c 0,6,7
 158 -358 158 -358 141.5 -335 c 128,-1,8
 125 -312 125 -312 125 -283 c 2,9,-1
 125 -117 l 1,10,-1
 154 713 l 1,0,-1
301 946 m 0,11,12
 301 901 301 901 271.5 870.5 c 128,-1,13
 242 840 242 840 197 840 c 0,14,15
 174 840 174 840 154.5 848.5 c 128,-1,16
 135 857 135 857 121 871 c 128,-1,17
 107 885 107 885 98.5 904.5 c 128,-1,18
 90 924 90 924 90 946 c 256,19,20
 90 968 90 968 98.5 987.5 c 128,-1,21
 107 1007 107 1007 121 1021 c 128,-1,22
 135 1035 135 1035 154.5 1043 c 128,-1,23
 174 1051 174 1051 197 1051 c 0,24,25
 219 1051 219 1051 238 1043 c 128,-1,26
 257 1035 257 1035 271 1021 c 128,-1,27
 285 1007 285 1007 293 987.5 c 128,-1,28
 301 968 301 968 301 946 c 0,11,12
EndSplineSet
EndChar

StartChar: question
Encoding: 63 63 332
Width: 545
Flags: W
LayerCount: 2
Fore
SplineSet
268 1290 m 0,0,1
 219 1290 219 1290 195.5 1208 c 128,-1,2
 172 1126 172 1126 172 965 c 1,3,-1
 45 965 l 1,4,5
 45 1079 45 1079 59 1161.5 c 128,-1,6
 73 1244 73 1244 101.5 1296.5 c 128,-1,7
 130 1349 130 1349 172.5 1374 c 128,-1,8
 215 1399 215 1399 272 1399 c 0,9,10
 315 1399 315 1399 354 1377.5 c 128,-1,11
 393 1356 393 1356 422.5 1308 c 128,-1,12
 452 1260 452 1260 469.5 1184 c 128,-1,13
 487 1108 487 1108 487 999 c 0,14,15
 487 884 487 884 468.5 804.5 c 128,-1,16
 450 725 450 725 422 673 c 128,-1,17
 394 621 394 621 361 592.5 c 128,-1,18
 328 564 328 564 299 551 c 1,19,-1
 299 328 l 1,20,-1
 178 328 l 1,21,-1
 178 625 l 1,22,23
 217 631 217 631 250 653.5 c 128,-1,24
 283 676 283 676 307 720.5 c 128,-1,25
 331 765 331 765 344.5 835 c 128,-1,26
 358 905 358 905 358 1006 c 0,27,28
 358 1091 358 1091 350.5 1146 c 128,-1,29
 343 1201 343 1201 330.5 1233 c 128,-1,30
 318 1265 318 1265 302 1277.5 c 128,-1,31
 286 1290 286 1290 268 1290 c 0,0,1
129 94 m 0,32,33
 129 116 129 116 137 136 c 128,-1,34
 145 156 145 156 159 170 c 128,-1,35
 173 184 173 184 192 192.5 c 128,-1,36
 211 201 211 201 233 201 c 256,37,38
 255 201 255 201 275 192.5 c 128,-1,39
 295 184 295 184 309 170 c 128,-1,40
 323 156 323 156 331.5 136 c 128,-1,41
 340 116 340 116 340 94 c 256,42,43
 340 72 340 72 331.5 53 c 128,-1,44
 323 34 323 34 309 20 c 128,-1,45
 295 6 295 6 275 -2 c 128,-1,46
 255 -10 255 -10 233 -10 c 0,47,48
 188 -10 188 -10 158.5 19.5 c 128,-1,49
 129 49 129 49 129 94 c 0,32,33
EndSplineSet
EndChar

StartChar: questiondown
Encoding: 191 191 333
Width: 545
Flags: W
LayerCount: 2
Fore
SplineSet
264 -250 m 0,0,1
 314 -250 314 -250 337 -167.5 c 128,-1,2
 360 -85 360 -85 360 76 c 1,3,-1
 487 76 l 1,4,5
 487 -38 487 -38 473 -120.5 c 128,-1,6
 459 -203 459 -203 430.5 -255.5 c 128,-1,7
 402 -308 402 -308 359.5 -333 c 128,-1,8
 317 -358 317 -358 260 -358 c 0,9,10
 217 -358 217 -358 178 -336.5 c 128,-1,11
 139 -315 139 -315 109.5 -267.5 c 128,-1,12
 80 -220 80 -220 62.5 -144 c 128,-1,13
 45 -68 45 -68 45 41 c 0,14,15
 45 156 45 156 63.5 235.5 c 128,-1,16
 82 315 82 315 110 367 c 128,-1,17
 138 419 138 419 171 447.5 c 128,-1,18
 204 476 204 476 233 489 c 1,19,-1
 233 713 l 1,20,-1
 354 713 l 1,21,-1
 354 416 l 1,22,23
 316 410 316 410 283 387 c 128,-1,24
 250 364 250 364 226 319.5 c 128,-1,25
 202 275 202 275 188 205 c 128,-1,26
 174 135 174 135 174 35 c 0,27,28
 174 -51 174 -51 181.5 -106 c 128,-1,29
 189 -161 189 -161 201.5 -193 c 128,-1,30
 214 -225 214 -225 230 -237.5 c 128,-1,31
 246 -250 246 -250 264 -250 c 0,0,1
403 946 m 0,32,33
 403 901 403 901 373.5 870.5 c 128,-1,34
 344 840 344 840 299 840 c 256,35,36
 254 840 254 840 223.5 870.5 c 128,-1,37
 193 901 193 901 193 946 c 0,38,39
 193 968 193 968 201.5 987.5 c 128,-1,40
 210 1007 210 1007 224 1021 c 128,-1,41
 238 1035 238 1035 257.5 1043 c 128,-1,42
 277 1051 277 1051 299 1051 c 256,43,44
 321 1051 321 1051 340 1043 c 128,-1,45
 359 1035 359 1035 373 1021 c 128,-1,46
 387 1007 387 1007 395 987.5 c 128,-1,47
 403 968 403 968 403 946 c 0,32,33
EndSplineSet
EndChar

StartChar: quoteleft
Encoding: 8216 8216 334
Width: 272
Flags: W
LayerCount: 2
Fore
SplineSet
231 1110 m 0,0,1
 231 1070 231 1070 204 1042 c 128,-1,2
 177 1014 177 1014 137 1014 c 0,3,4
 95 1014 95 1014 68 1041.5 c 128,-1,5
 41 1069 41 1069 41 1120 c 0,6,7
 41 1159 41 1159 51 1197 c 128,-1,8
 61 1235 61 1235 78 1270.5 c 128,-1,9
 95 1306 95 1306 117 1337 c 128,-1,10
 139 1368 139 1368 164 1393 c 1,11,-1
 217 1350 l 1,12,13
 188 1319 188 1319 165.5 1284 c 128,-1,14
 143 1249 143 1249 135 1204 c 1,15,16
 161 1204 161 1204 179.5 1196 c 128,-1,17
 198 1188 198 1188 209.5 1174.5 c 128,-1,18
 221 1161 221 1161 226 1144.5 c 128,-1,19
 231 1128 231 1128 231 1110 c 0,0,1
EndSplineSet
EndChar

StartChar: quoteright
Encoding: 8217 8217 335
Width: 272
Flags: W
LayerCount: 2
Fore
SplineSet
41 1278 m 0,0,1
 41 1318 41 1318 68 1346 c 128,-1,2
 95 1374 95 1374 135 1374 c 0,3,4
 177 1374 177 1374 204 1346.5 c 128,-1,5
 231 1319 231 1319 231 1268 c 0,6,7
 231 1229 231 1229 221 1191 c 128,-1,8
 211 1153 211 1153 194.5 1117.5 c 128,-1,9
 178 1082 178 1082 155.5 1051 c 128,-1,10
 133 1020 133 1020 109 995 c 1,11,-1
 55 1038 l 1,12,13
 84 1069 84 1069 106.5 1104 c 128,-1,14
 129 1139 129 1139 137 1184 c 1,15,16
 111 1184 111 1184 93 1192 c 128,-1,17
 75 1200 75 1200 63.5 1213.5 c 128,-1,18
 52 1227 52 1227 46.5 1243.5 c 128,-1,19
 41 1260 41 1260 41 1278 c 0,0,1
EndSplineSet
EndChar

StartChar: quotedblleft
Encoding: 8220 8220 336
Width: 508
Flags: W
LayerCount: 2
Fore
SplineSet
231 1110 m 0,0,1
 231 1070 231 1070 204 1042 c 128,-1,2
 177 1014 177 1014 137 1014 c 0,3,4
 95 1014 95 1014 68 1041.5 c 128,-1,5
 41 1069 41 1069 41 1120 c 0,6,7
 41 1159 41 1159 51 1197 c 128,-1,8
 61 1235 61 1235 78 1270.5 c 128,-1,9
 95 1306 95 1306 117 1337 c 128,-1,10
 139 1368 139 1368 164 1393 c 1,11,-1
 217 1350 l 1,12,13
 188 1319 188 1319 165.5 1284 c 128,-1,14
 143 1249 143 1249 135 1204 c 1,15,16
 161 1204 161 1204 179.5 1196 c 128,-1,17
 198 1188 198 1188 209.5 1174.5 c 128,-1,18
 221 1161 221 1161 226 1144.5 c 128,-1,19
 231 1128 231 1128 231 1110 c 0,0,1
467 1110 m 0,20,21
 467 1070 467 1070 440 1042 c 128,-1,22
 413 1014 413 1014 373 1014 c 0,23,24
 331 1014 331 1014 303.5 1041.5 c 128,-1,25
 276 1069 276 1069 276 1120 c 0,26,27
 276 1159 276 1159 286 1197 c 128,-1,28
 296 1235 296 1235 313 1270.5 c 128,-1,29
 330 1306 330 1306 352.5 1337 c 128,-1,30
 375 1368 375 1368 399 1393 c 1,31,-1
 453 1350 l 1,32,33
 424 1319 424 1319 401.5 1284 c 128,-1,34
 379 1249 379 1249 371 1204 c 1,35,36
 397 1204 397 1204 415 1196 c 128,-1,37
 433 1188 433 1188 444.5 1174.5 c 128,-1,38
 456 1161 456 1161 461.5 1144.5 c 128,-1,39
 467 1128 467 1128 467 1110 c 0,20,21
EndSplineSet
EndChar

StartChar: quotedblright
Encoding: 8221 8221 337
Width: 508
Flags: W
LayerCount: 2
Fore
SplineSet
276 1278 m 0,0,1
 276 1318 276 1318 303 1346 c 128,-1,2
 330 1374 330 1374 371 1374 c 0,3,4
 413 1374 413 1374 440 1346.5 c 128,-1,5
 467 1319 467 1319 467 1268 c 0,6,7
 467 1229 467 1229 457 1191 c 128,-1,8
 447 1153 447 1153 430 1117.5 c 128,-1,9
 413 1082 413 1082 391 1051 c 128,-1,10
 369 1020 369 1020 344 995 c 1,11,-1
 291 1038 l 1,12,13
 320 1069 320 1069 342.5 1104 c 128,-1,14
 365 1139 365 1139 373 1184 c 1,15,16
 347 1184 347 1184 328.5 1192 c 128,-1,17
 310 1200 310 1200 298.5 1213.5 c 128,-1,18
 287 1227 287 1227 281.5 1243.5 c 128,-1,19
 276 1260 276 1260 276 1278 c 0,0,1
41 1278 m 0,20,21
 41 1318 41 1318 68 1346 c 128,-1,22
 95 1374 95 1374 135 1374 c 0,23,24
 177 1374 177 1374 204 1346.5 c 128,-1,25
 231 1319 231 1319 231 1268 c 0,26,27
 231 1229 231 1229 221 1191 c 128,-1,28
 211 1153 211 1153 194.5 1117.5 c 128,-1,29
 178 1082 178 1082 155.5 1051 c 128,-1,30
 133 1020 133 1020 109 995 c 1,31,-1
 55 1038 l 1,32,33
 84 1069 84 1069 106.5 1104 c 128,-1,34
 129 1139 129 1139 137 1184 c 1,35,36
 111 1184 111 1184 93 1192 c 128,-1,37
 75 1200 75 1200 63.5 1213.5 c 128,-1,38
 52 1227 52 1227 46.5 1243.5 c 128,-1,39
 41 1260 41 1260 41 1278 c 0,20,21
EndSplineSet
EndChar

StartChar: quotesinglbase
Encoding: 8218 8218 338
Width: 272
Flags: W
LayerCount: 2
Fore
SplineSet
41 94 m 0,0,1
 41 134 41 134 68 162 c 128,-1,2
 95 190 95 190 135 190 c 0,3,4
 177 190 177 190 204 162.5 c 128,-1,5
 231 135 231 135 231 84 c 0,6,7
 231 46 231 46 221 7.5 c 128,-1,8
 211 -31 211 -31 194.5 -66 c 128,-1,9
 178 -101 178 -101 155.5 -132.5 c 128,-1,10
 133 -164 133 -164 109 -188 c 1,11,-1
 55 -145 l 1,12,13
 84 -114 84 -114 106.5 -79.5 c 128,-1,14
 129 -45 129 -45 137 0 c 1,15,16
 111 0 111 0 93 8 c 128,-1,17
 75 16 75 16 63.5 29.5 c 128,-1,18
 52 43 52 43 46.5 59.5 c 128,-1,19
 41 76 41 76 41 94 c 0,0,1
EndSplineSet
EndChar

StartChar: quotedblbase
Encoding: 8222 8222 339
Width: 508
Flags: W
LayerCount: 2
Fore
SplineSet
276 94 m 0,0,1
 276 134 276 134 303 162 c 128,-1,2
 330 190 330 190 371 190 c 0,3,4
 413 190 413 190 440 162.5 c 128,-1,5
 467 135 467 135 467 84 c 0,6,7
 467 46 467 46 457 7.5 c 128,-1,8
 447 -31 447 -31 430 -66 c 128,-1,9
 413 -101 413 -101 391 -132.5 c 128,-1,10
 369 -164 369 -164 344 -188 c 1,11,-1
 291 -145 l 1,12,13
 320 -114 320 -114 342.5 -79.5 c 128,-1,14
 365 -45 365 -45 373 0 c 1,15,16
 347 0 347 0 328.5 8 c 128,-1,17
 310 16 310 16 298.5 29.5 c 128,-1,18
 287 43 287 43 281.5 59.5 c 128,-1,19
 276 76 276 76 276 94 c 0,0,1
41 94 m 0,20,21
 41 134 41 134 68 162 c 128,-1,22
 95 190 95 190 135 190 c 0,23,24
 177 190 177 190 204 162.5 c 128,-1,25
 231 135 231 135 231 84 c 0,26,27
 231 46 231 46 221 7.5 c 128,-1,28
 211 -31 211 -31 194.5 -66 c 128,-1,29
 178 -101 178 -101 155.5 -132.5 c 128,-1,30
 133 -164 133 -164 109 -188 c 1,31,-1
 55 -145 l 1,32,33
 84 -114 84 -114 106.5 -79.5 c 128,-1,34
 129 -45 129 -45 137 0 c 1,35,36
 111 0 111 0 93 8 c 128,-1,37
 75 16 75 16 63.5 29.5 c 128,-1,38
 52 43 52 43 46.5 59.5 c 128,-1,39
 41 76 41 76 41 94 c 0,20,21
EndSplineSet
EndChar

StartChar: guilsinglleft
Encoding: 8249 8249 340
Width: 356
Flags: W
LayerCount: 2
Fore
SplineSet
31 444 m 1,0,-1
 31 535 l 1,1,-1
 240 864 l 1,2,-1
 326 805 l 1,3,-1
 125 489 l 1,4,-1
 326 174 l 1,5,-1
 240 115 l 1,6,-1
 31 444 l 1,0,-1
EndSplineSet
EndChar

StartChar: guilsinglright
Encoding: 8250 8250 341
Width: 356
Flags: W
LayerCount: 2
Fore
SplineSet
326 535 m 1,0,-1
 326 444 l 1,1,-1
 117 115 l 1,2,-1
 31 174 l 1,3,-1
 231 489 l 1,4,-1
 31 805 l 1,5,-1
 117 864 l 1,6,-1
 326 535 l 1,0,-1
EndSplineSet
EndChar

StartChar: periodcentered
Encoding: 183 183 344
Width: 309
Flags: W
LayerCount: 2
Fore
SplineSet
49 672 m 0,0,1
 49 694 49 694 57 713.5 c 128,-1,2
 65 733 65 733 79 747 c 128,-1,3
 93 761 93 761 112 769.5 c 128,-1,4
 131 778 131 778 154 778 c 0,5,6
 199 778 199 778 229.5 747.5 c 128,-1,7
 260 717 260 717 260 672 c 0,8,9
 260 649 260 649 251.5 630 c 128,-1,10
 243 611 243 611 229 597 c 128,-1,11
 215 583 215 583 195.5 575 c 128,-1,12
 176 567 176 567 154 567 c 0,13,14
 109 567 109 567 79 597 c 128,-1,15
 49 627 49 627 49 672 c 0,0,1
EndSplineSet
EndChar

StartChar: ellipsis
Encoding: 8230 8230 345
Width: 928
Flags: W
LayerCount: 2
Fore
SplineSet
49 94 m 256,0,1
 49 116 49 116 57 136 c 128,-1,2
 65 156 65 156 79 170 c 128,-1,3
 93 184 93 184 112 192.5 c 128,-1,4
 131 201 131 201 154 201 c 0,5,6
 176 201 176 201 195.5 192.5 c 128,-1,7
 215 184 215 184 229 170 c 128,-1,8
 243 156 243 156 251.5 136 c 128,-1,9
 260 116 260 116 260 94 c 0,10,11
 260 49 260 49 229.5 19.5 c 128,-1,12
 199 -10 199 -10 154 -10 c 0,13,14
 131 -10 131 -10 112 -2 c 128,-1,15
 93 6 93 6 79 20 c 128,-1,16
 65 34 65 34 57 53 c 128,-1,17
 49 72 49 72 49 94 c 256,0,1
358 94 m 256,18,19
 358 116 358 116 366 136 c 128,-1,20
 374 156 374 156 388 170 c 128,-1,21
 402 184 402 184 421 192.5 c 128,-1,22
 440 201 440 201 463 201 c 0,23,24
 485 201 485 201 504.5 192.5 c 128,-1,25
 524 184 524 184 538 170 c 128,-1,26
 552 156 552 156 560.5 136 c 128,-1,27
 569 116 569 116 569 94 c 0,28,29
 569 49 569 49 538.5 19.5 c 128,-1,30
 508 -10 508 -10 463 -10 c 0,31,32
 440 -10 440 -10 421 -2 c 128,-1,33
 402 6 402 6 388 20 c 128,-1,34
 374 34 374 34 366 53 c 128,-1,35
 358 72 358 72 358 94 c 256,18,19
668 94 m 0,36,37
 668 116 668 116 676 136 c 128,-1,38
 684 156 684 156 698 170 c 128,-1,39
 712 184 712 184 731 192.5 c 128,-1,40
 750 201 750 201 772 201 c 256,41,42
 794 201 794 201 813.5 192.5 c 128,-1,43
 833 184 833 184 847.5 170 c 128,-1,44
 862 156 862 156 870.5 136 c 128,-1,45
 879 116 879 116 879 94 c 0,46,47
 879 49 879 49 848 19.5 c 128,-1,48
 817 -10 817 -10 772 -10 c 256,49,50
 727 -10 727 -10 697.5 19.5 c 128,-1,51
 668 49 668 49 668 94 c 0,36,37
EndSplineSet
EndChar

StartChar: hyphen
Encoding: 45 45 346
Width: 463
Flags: W
LayerCount: 2
Fore
SplineSet
66 424 m 1,0,-1
 66 547 l 1,1,-1
 397 547 l 1,2,-1
 397 424 l 1,3,-1
 66 424 l 1,0,-1
EndSplineSet
EndChar

StartChar: uni00AD
Encoding: 173 173 347
Width: 463
Flags: W
LayerCount: 2
Fore
SplineSet
66 424 m 1,0,-1
 66 547 l 1,1,-1
 397 547 l 1,2,-1
 397 424 l 1,3,-1
 66 424 l 1,0,-1
EndSplineSet
EndChar

StartChar: endash
Encoding: 8211 8211 348
Width: 819
Flags: W
LayerCount: 2
Fore
SplineSet
61 430 m 1,0,-1
 61 541 l 1,1,-1
 758 541 l 1,2,-1
 758 430 l 1,3,-1
 61 430 l 1,0,-1
EndSplineSet
EndChar

StartChar: emdash
Encoding: 8212 8212 349
Width: 1229
Flags: W
LayerCount: 2
Fore
SplineSet
0 430 m 1,0,-1
 0 541 l 1,1,-1
 1229 541 l 1,2,-1
 1229 430 l 1,3,-1
 0 430 l 1,0,-1
EndSplineSet
EndChar

StartChar: underscore
Encoding: 95 95 350
Width: 512
Flags: W
LayerCount: 2
Fore
SplineSet
0 -250 m 1,0,-1
 0 -135 l 1,1,-1
 512 -135 l 1,2,-1
 512 -250 l 1,3,-1
 0 -250 l 1,0,-1
EndSplineSet
EndChar

StartChar: grave
Encoding: 96 96 351
Width: 614
Flags: W
LayerCount: 2
Fore
SplineSet
164 1356 m 1,0,-1
 432 1147 l 1,1,-1
 389 1081 l 1,2,-1
 98 1257 l 1,3,-1
 164 1356 l 1,0,-1
EndSplineSet
EndChar

StartChar: acute
Encoding: 180 180 352
Width: 614
Flags: W
LayerCount: 2
Fore
SplineSet
516 1257 m 1,0,-1
 225 1081 l 1,1,-1
 182 1147 l 1,2,-1
 451 1356 l 1,3,-1
 516 1257 l 1,0,-1
EndSplineSet
EndChar

StartChar: dieresis
Encoding: 168 168 353
Width: 614
Flags: W
LayerCount: 2
Fore
SplineSet
98 1176 m 256,0,1
 98 1208 98 1208 120 1230.5 c 128,-1,2
 142 1253 142 1253 174 1253 c 256,3,4
 206 1253 206 1253 229 1230.5 c 128,-1,5
 252 1208 252 1208 252 1176 c 256,6,7
 252 1144 252 1144 229 1122 c 128,-1,8
 206 1100 206 1100 174 1100 c 256,9,10
 142 1100 142 1100 120 1122 c 128,-1,11
 98 1144 98 1144 98 1176 c 256,0,1
362 1176 m 256,12,13
 362 1208 362 1208 384 1230.5 c 128,-1,14
 406 1253 406 1253 438 1253 c 256,15,16
 470 1253 470 1253 493 1230.5 c 128,-1,17
 516 1208 516 1208 516 1176 c 256,18,19
 516 1144 516 1144 493 1122 c 128,-1,20
 470 1100 470 1100 438 1100 c 256,21,22
 406 1100 406 1100 384 1122 c 128,-1,23
 362 1144 362 1144 362 1176 c 256,12,13
EndSplineSet
EndChar

StartChar: macron
Encoding: 175 175 354
Width: 614
Flags: W
LayerCount: 2
Fore
SplineSet
115 1112 m 1,0,-1
 115 1217 l 1,1,-1
 500 1217 l 1,2,-1
 500 1112 l 1,3,-1
 115 1112 l 1,0,-1
EndSplineSet
EndChar

StartChar: cedilla
Encoding: 184 184 355
Width: 614
Flags: W
LayerCount: 2
Fore
SplineSet
334 -98 m 1,0,1
 355 -98 355 -98 380 -105 c 128,-1,2
 405 -112 405 -112 427 -128.5 c 128,-1,3
 449 -145 449 -145 464 -172.5 c 128,-1,4
 479 -200 479 -200 479 -242 c 0,5,6
 479 -287 479 -287 462.5 -317.5 c 128,-1,7
 446 -348 446 -348 419.5 -366.5 c 128,-1,8
 393 -385 393 -385 360.5 -393 c 128,-1,9
 328 -401 328 -401 297 -401 c 0,10,11
 234 -401 234 -401 189 -384.5 c 128,-1,12
 144 -368 144 -368 119 -354 c 1,13,-1
 168 -266 l 1,14,15
 191 -285 191 -285 221 -298 c 128,-1,16
 251 -311 251 -311 285 -311 c 0,17,18
 328 -311 328 -311 352.5 -292 c 128,-1,19
 377 -273 377 -273 377 -242 c 0,20,21
 377 -223 377 -223 369 -210 c 128,-1,22
 361 -197 361 -197 347.5 -189.5 c 128,-1,23
 334 -182 334 -182 317.5 -179 c 128,-1,24
 301 -176 301 -176 283 -176 c 0,25,26
 253 -176 253 -176 225 -182 c 1,27,-1
 274 20 l 1,28,-1
 362 20 l 1,29,-1
 334 -98 l 1,0,1
EndSplineSet
EndChar

StartChar: circumflex
Encoding: 710 710 356
Width: 614
Flags: W
LayerCount: 2
Fore
SplineSet
504 1081 m 1,0,-1
 307 1231 l 1,1,-1
 111 1081 l 1,2,-1
 51 1143 l 1,3,-1
 307 1362 l 1,4,-1
 563 1143 l 1,5,-1
 504 1081 l 1,0,-1
EndSplineSet
EndChar

StartChar: caron
Encoding: 711 711 357
Width: 614
Flags: W
LayerCount: 2
Fore
SplineSet
563 1300 m 1,0,-1
 307 1081 l 1,1,-1
 51 1300 l 1,2,-1
 111 1362 l 1,3,-1
 307 1212 l 1,4,-1
 504 1362 l 1,5,-1
 563 1300 l 1,0,-1
EndSplineSet
EndChar

StartChar: breve
Encoding: 728 728 358
Width: 614
Flags: W
LayerCount: 2
Fore
SplineSet
530 1311 m 1,0,1
 524 1274 524 1274 511 1235.5 c 128,-1,2
 498 1197 498 1197 472.5 1165.5 c 128,-1,3
 447 1134 447 1134 407 1114 c 128,-1,4
 367 1094 367 1094 307 1094 c 256,5,6
 247 1094 247 1094 207 1114 c 128,-1,7
 167 1134 167 1134 142.5 1165.5 c 128,-1,8
 118 1197 118 1197 105 1235.5 c 128,-1,9
 92 1274 92 1274 86 1311 c 1,10,-1
 188 1311 l 1,11,12
 191 1293 191 1293 198 1272 c 128,-1,13
 205 1251 205 1251 218.5 1233 c 128,-1,14
 232 1215 232 1215 253.5 1202.5 c 128,-1,15
 275 1190 275 1190 307 1190 c 0,16,17
 341 1190 341 1190 363 1202.5 c 128,-1,18
 385 1215 385 1215 399 1233 c 128,-1,19
 413 1251 413 1251 420 1272 c 128,-1,20
 427 1293 427 1293 430 1311 c 1,21,-1
 530 1311 l 1,22,-1
 530 1311 l 1,0,1
EndSplineSet
EndChar

StartChar: dotaccent
Encoding: 729 729 359
Width: 614
Flags: W
LayerCount: 2
Fore
SplineSet
225 1180 m 0,0,1
 225 1215 225 1215 248 1239.5 c 128,-1,2
 271 1264 271 1264 305 1264 c 0,3,4
 340 1264 340 1264 364.5 1239.5 c 128,-1,5
 389 1215 389 1215 389 1180 c 0,6,7
 389 1146 389 1146 364.5 1123 c 128,-1,8
 340 1100 340 1100 305 1100 c 0,9,10
 271 1100 271 1100 248 1123 c 128,-1,11
 225 1146 225 1146 225 1180 c 0,0,1
EndSplineSet
EndChar

StartChar: ring
Encoding: 730 730 360
Width: 614
Flags: W
LayerCount: 2
Fore
SplineSet
135 1245 m 256,0,1
 135 1284 135 1284 150 1318.5 c 128,-1,2
 165 1353 165 1353 190.5 1378.5 c 128,-1,3
 216 1404 216 1404 250.5 1419 c 128,-1,4
 285 1434 285 1434 324 1434 c 256,5,6
 363 1434 363 1434 397 1419 c 128,-1,7
 431 1404 431 1404 456.5 1378.5 c 128,-1,8
 482 1353 482 1353 497 1318.5 c 128,-1,9
 512 1284 512 1284 512 1245 c 256,10,11
 512 1206 512 1206 497 1171.5 c 128,-1,12
 482 1137 482 1137 456.5 1111.5 c 128,-1,13
 431 1086 431 1086 397 1071.5 c 128,-1,14
 363 1057 363 1057 324 1057 c 256,15,16
 285 1057 285 1057 250.5 1071.5 c 128,-1,17
 216 1086 216 1086 190.5 1111.5 c 128,-1,18
 165 1137 165 1137 150 1171.5 c 128,-1,19
 135 1206 135 1206 135 1245 c 256,0,1
227 1245 m 256,20,21
 227 1205 227 1205 255 1177 c 128,-1,22
 283 1149 283 1149 324 1149 c 0,23,24
 364 1149 364 1149 392 1177 c 128,-1,25
 420 1205 420 1205 420 1245 c 256,26,27
 420 1285 420 1285 392 1313 c 128,-1,28
 364 1341 364 1341 324 1341 c 0,29,30
 283 1341 283 1341 255 1313 c 128,-1,31
 227 1285 227 1285 227 1245 c 256,20,21
EndSplineSet
EndChar

StartChar: ogonek
Encoding: 731 731 361
Width: 614
Flags: W
LayerCount: 2
Fore
SplineSet
373 20 m 1,0,1
 352 -4 352 -4 333.5 -29 c 128,-1,2
 315 -54 315 -54 300.5 -81 c 128,-1,3
 286 -108 286 -108 278 -137.5 c 128,-1,4
 270 -167 270 -167 270 -201 c 0,5,6
 270 -233 270 -233 285.5 -249.5 c 128,-1,7
 301 -266 301 -266 326 -266 c 0,8,9
 344 -266 344 -266 358.5 -258 c 128,-1,10
 373 -250 373 -250 385 -238 c 1,11,-1
 418 -319 l 1,12,13
 392 -335 392 -335 361 -345.5 c 128,-1,14
 330 -356 330 -356 295 -356 c 0,15,16
 230 -356 230 -356 196 -321.5 c 128,-1,17
 162 -287 162 -287 162 -219 c 0,18,19
 162 -189 162 -189 171 -158 c 128,-1,20
 180 -127 180 -127 196 -96 c 128,-1,21
 212 -65 212 -65 232.5 -36 c 128,-1,22
 253 -7 253 -7 276 20 c 1,23,-1
 373 20 l 1,0,1
EndSplineSet
EndChar

StartChar: tilde
Encoding: 732 732 362
Width: 614
Flags: W
LayerCount: 2
Fore
SplineSet
541 1311 m 1,0,1
 541 1285 541 1285 533.5 1247 c 128,-1,2
 526 1209 526 1209 510.5 1174 c 128,-1,3
 495 1139 495 1139 470 1114.5 c 128,-1,4
 445 1090 445 1090 410 1090 c 256,5,6
 375 1090 375 1090 347 1108.5 c 128,-1,7
 319 1127 319 1127 295.5 1149.5 c 128,-1,8
 272 1172 272 1172 253 1191 c 128,-1,9
 234 1210 234 1210 217 1210 c 0,10,11
 199 1210 199 1210 188 1195 c 128,-1,12
 177 1180 177 1180 171.5 1160 c 128,-1,13
 166 1140 166 1140 164.5 1120 c 128,-1,14
 163 1100 163 1100 162 1090 c 1,15,-1
 74 1090 l 1,16,17
 74 1115 74 1115 81.5 1152.5 c 128,-1,18
 89 1190 89 1190 104.5 1225.5 c 128,-1,19
 120 1261 120 1261 145.5 1286 c 128,-1,20
 171 1311 171 1311 207 1311 c 0,21,22
 241 1311 241 1311 269 1292 c 128,-1,23
 297 1273 297 1273 319.5 1250.5 c 128,-1,24
 342 1228 342 1228 361 1209 c 128,-1,25
 380 1190 380 1190 397 1190 c 0,26,27
 415 1190 415 1190 426 1205 c 128,-1,28
 437 1220 437 1220 442.5 1240 c 128,-1,29
 448 1260 448 1260 450 1280 c 128,-1,30
 452 1300 452 1300 453 1311 c 1,31,-1
 541 1311 l 1,32,-1
 541 1311 l 1,0,1
EndSplineSet
EndChar

StartChar: hungarumlaut
Encoding: 733 733 363
Width: 614
Flags: W
LayerCount: 2
Fore
SplineSet
330 1270 m 1,0,-1
 98 1081 l 1,1,-1
 51 1141 l 1,2,-1
 258 1356 l 1,3,-1
 330 1270 l 1,0,-1
555 1270 m 1,4,-1
 324 1081 l 1,5,-1
 276 1141 l 1,6,-1
 483 1356 l 1,7,-1
 555 1270 l 1,4,-1
EndSplineSet
EndChar

StartChar: commaaccent
Encoding: 806 806 364
Width: 614
Flags: W
LayerCount: 2
Fore
SplineSet
315 -416 m 1,0,-1
 215 -416 l 1,1,-1
 254 -143 l 1,2,-1
 397 -143 l 1,3,-1
 315 -416 l 1,0,-1
EndSplineSet
EndChar

StartChar: uni0315
Encoding: 789 789 365
Width: 182
Flags: W
LayerCount: 2
Fore
SplineSet
100 1081 m 1,0,-1
 0 1081 l 1,1,-1
 39 1354 l 1,2,-1
 182 1354 l 1,3,-1
 100 1081 l 1,0,-1
EndSplineSet
EndChar

StartChar: micro
Encoding: 181 181 368
Width: 645
Flags: W
LayerCount: 2
Fore
SplineSet
260 958 m 1,0,-1
 184 322 l 1,1,2
 194 212 194 212 211 157 c 128,-1,3
 228 102 228 102 260 102 c 0,4,5
 284 102 284 102 305 124 c 128,-1,6
 326 146 326 146 343.5 182 c 128,-1,7
 361 218 361 218 373.5 265 c 128,-1,8
 386 312 386 312 393 362 c 1,9,-1
 463 958 l 1,10,-1
 584 958 l 1,11,-1
 512 362 l 2,12,13
 507 320 507 320 506.5 287 c 128,-1,14
 506 254 506 254 508 225 c 0,15,16
 510 191 510 191 515.5 162.5 c 128,-1,17
 521 134 521 134 529 108 c 128,-1,18
 537 82 537 82 546.5 55.5 c 128,-1,19
 556 29 556 29 567 0 c 1,20,-1
 449 0 l 1,21,22
 441 18 441 18 435.5 31 c 128,-1,23
 430 44 430 44 425.5 59 c 128,-1,24
 421 74 421 74 416.5 94.5 c 128,-1,25
 412 115 412 115 406 147 c 1,26,27
 370 57 370 57 335.5 17 c 128,-1,28
 301 -23 301 -23 258 -23 c 0,29,30
 229 -23 229 -23 200.5 4.5 c 128,-1,31
 172 32 172 32 154 104 c 1,32,-1
 96 -410 l 1,33,-1
 -20 -410 l 1,34,-1
 141 958 l 1,35,-1
 260 958 l 1,0,-1
EndSplineSet
EndChar

StartChar: mu
Encoding: 956 956 369
Width: 645
Flags: W
LayerCount: 2
Fore
SplineSet
260 958 m 1,0,-1
 184 322 l 1,1,2
 194 212 194 212 211 157 c 128,-1,3
 228 102 228 102 260 102 c 0,4,5
 284 102 284 102 305 124 c 128,-1,6
 326 146 326 146 343.5 182 c 128,-1,7
 361 218 361 218 373.5 265 c 128,-1,8
 386 312 386 312 393 362 c 1,9,-1
 463 958 l 1,10,-1
 584 958 l 1,11,-1
 512 362 l 2,12,13
 507 320 507 320 506.5 287 c 128,-1,14
 506 254 506 254 508 225 c 0,15,16
 510 191 510 191 515.5 162.5 c 128,-1,17
 521 134 521 134 529 108 c 128,-1,18
 537 82 537 82 546.5 55.5 c 128,-1,19
 556 29 556 29 567 0 c 1,20,-1
 449 0 l 1,21,22
 441 18 441 18 435.5 31 c 128,-1,23
 430 44 430 44 425.5 59 c 128,-1,24
 421 74 421 74 416.5 94.5 c 128,-1,25
 412 115 412 115 406 147 c 1,26,27
 370 57 370 57 335.5 17 c 128,-1,28
 301 -23 301 -23 258 -23 c 0,29,30
 229 -23 229 -23 200.5 4.5 c 128,-1,31
 172 32 172 32 154 104 c 1,32,-1
 96 -410 l 1,33,-1
 -20 -410 l 1,34,-1
 141 958 l 1,35,-1
 260 958 l 1,0,-1
EndSplineSet
EndChar

StartChar: partialdiff
Encoding: 8706 8706 370
Width: 651
Flags: W
LayerCount: 2
Fore
SplineSet
307 1290 m 0,0,1
 278 1290 278 1290 251.5 1269 c 128,-1,2
 225 1248 225 1248 201 1221 c 1,3,-1
 133 1305 l 1,4,5
 145 1317 145 1317 166 1333 c 128,-1,6
 187 1349 187 1349 214 1364 c 128,-1,7
 241 1379 241 1379 273.5 1389 c 128,-1,8
 306 1399 306 1399 342 1399 c 0,9,10
 407 1399 407 1399 455.5 1356 c 128,-1,11
 504 1313 504 1313 535.5 1235 c 128,-1,12
 567 1157 567 1157 582.5 1047 c 128,-1,13
 598 937 598 937 598 803 c 0,14,15
 598 599 598 599 574 443.5 c 128,-1,16
 550 288 550 288 507.5 183.5 c 128,-1,17
 465 79 465 79 406.5 26 c 128,-1,18
 348 -27 348 -27 279 -27 c 0,19,20
 223 -27 223 -27 180.5 5 c 128,-1,21
 138 37 138 37 108.5 93.5 c 128,-1,22
 79 150 79 150 64 226.5 c 128,-1,23
 49 303 49 303 49 393 c 0,24,25
 49 511 49 511 72 601 c 128,-1,26
 95 691 95 691 131 752.5 c 128,-1,27
 167 814 167 814 211.5 845.5 c 128,-1,28
 256 877 256 877 299 877 c 0,29,30
 334 877 334 877 361 864 c 128,-1,31
 388 851 388 851 409 829.5 c 128,-1,32
 430 808 430 808 445.5 780.5 c 128,-1,33
 461 753 461 753 473 725 c 1,34,35
 473 846 473 846 467 949 c 128,-1,36
 461 1052 461 1052 443 1128 c 128,-1,37
 425 1204 425 1204 392.5 1247 c 128,-1,38
 360 1290 360 1290 307 1290 c 0,0,1
311 768 m 0,39,40
 276 768 276 768 250.5 740 c 128,-1,41
 225 712 225 712 208 662.5 c 128,-1,42
 191 613 191 613 182.5 544.5 c 128,-1,43
 174 476 174 476 174 395 c 0,44,45
 174 327 174 327 181.5 269.5 c 128,-1,46
 189 212 189 212 203.5 170.5 c 128,-1,47
 218 129 218 129 239 105.5 c 128,-1,48
 260 82 260 82 287 82 c 0,49,50
 321 82 321 82 350.5 121.5 c 128,-1,51
 380 161 380 161 402.5 225.5 c 128,-1,52
 425 290 425 290 440 371.5 c 128,-1,53
 455 453 455 453 461 537 c 1,54,55
 452 569 452 569 436.5 609 c 128,-1,56
 421 649 421 649 400.5 684.5 c 128,-1,57
 380 720 380 720 357 744 c 128,-1,58
 334 768 334 768 311 768 c 0,39,40
EndSplineSet
EndChar
